<?xml version="1.0" encoding="utf-8"?>
<COLLADA xmlns="http://www.collada.org/2005/11/COLLADASchema" version="1.4.1" xmlns:xsi="http://www.w3.org/2001/XMLSchema-instance">
  <asset>
    <contributor>
      <author>Blender User</author>
      <authoring_tool>Blender 3.2.0 commit date:2022-06-08, commit time:10:22, hash:e05e1e369187</authoring_tool>
    </contributor>
    <created>2024-04-29T19:16:44</created>
    <modified>2024-04-29T19:16:44</modified>
    <unit name="meter" meter="1"/>
    <up_axis>Z_UP</up_axis>
  </asset>
  <library_images/>
  <library_geometries>
    <geometry id="Cube_006-mesh" name="Cube.006">
      <mesh>
        <source id="Cube_006-mesh-positions">
          <float_array id="Cube_006-mesh-positions-array" count="105">0.6 0.65 0 0.65 0.6 0 0.6 0.65 0.2 0.6 0.6 0.25 0.65 0.6 0.2 0.5578205 0.5578205 0.25 0.5 0.4182295 0.00999999 0.4182295 0.5 0.00999999 0.4937756 0.4495217 0.00999999 0.4760499 0.4760499 0.00999999 0.4495217 0.4937756 0.00999999 0.4345042 0.5067412 0.25 0.4182295 0.5 0.2390402 0.5 0.4182295 0.2390402 0.5067412 0.4345042 0.25 0.4495217 0.4937756 0.2390402 0.4619376 0.501118 0.25 0.4760499 0.4760499 0.2390402 0.4853678 0.4853678 0.25 0.4937756 0.4495217 0.2390402 0.501118 0.4619376 0.25 0.01986306 0.6 0.25 0.01746046 0.65 0.2 0.1478008 0.5067412 0.25 0.01983433 0.5999194 0.25 0.09505027 0.65 0 0.65 0.2459158 0 0.65 0.1620368 0.2 0.2952933 0.5 0.00999999 0.5 0.3509438 0.00999999 0.6 0.1774744 0.25 0.001944005 0.65 0.1616493 0.5 0.2548854 0.2390402 0.1633713 0.5 0.2390402 0.5067412 0.2453804 0.25</float_array>
          <technique_common>
            <accessor source="#Cube_006-mesh-positions-array" count="35" stride="3">
              <param name="X" type="float"/>
              <param name="Y" type="float"/>
              <param name="Z" type="float"/>
            </accessor>
          </technique_common>
        </source>
        <source id="Cube_006-mesh-normals">
          <float_array id="Cube_006-mesh-normals-array" count="147">0 0 1 0 0 -1 -0.980785 -0.1950922 0 1 0 0 -0.5555703 -0.8314696 0 0.5773494 0.5773507 0.5773507 0.7071067 0.707107 0 0.7071067 0 0.707107 0 0.7071068 0.7071068 0 1 0 -0.1950917 -0.980785 0 -0.8314693 -0.5555707 0 -1 0 0 0 -1 0 -0.1455184 -0.7315654 0.6660604 -0.3580534 -0.5358655 0.7646214 -0.5365875 -0.3607 0.7628691 -0.7340457 -0.1504612 0.6622223 -0.8517727 0 0.5239114 0 -0.8517762 0.5239061 -0.8801722 0.313818 0.3561114 -0.5574653 -0.7655961 -0.3210844 0 0 1 0 0 1 0.7071072 0.7071064 0 0.7071068 0 0.7071068 0 0.7071065 0.7071071 0 1 1.53205e-6 0 1 -5.11593e-7 -0.1950917 -0.980785 0 -0.8314704 -0.5555693 0 0 -1 2.55276e-7 -3.78161e-7 0 1 -0.1504629 -0.7340455 0.6622221 -0.3607013 -0.5365882 0.7628682 -0.5358628 -0.3580532 0.7646235 -0.7315638 -0.1455205 0.6660617 -0.8517725 0 0.5239121 0 -0.851773 0.523911 -0.8801589 0.3138083 0.356153 -0.5574651 -0.7655958 -0.3210856 -0.5574648 -0.7655954 -0.3210869 -0.5574648 -0.7655954 -0.3210871 -0.5574663 -0.7655957 -0.3210837 -0.5574647 -0.7655953 -0.3210871 -0.5574648 -0.7655954 -0.3210871 -0.5574648 -0.7655957 -0.3210863 -0.557465 -0.7655956 -0.3210859 -0.557465 -0.7655953 -0.321087</float_array>
          <technique_common>
            <accessor source="#Cube_006-mesh-normals-array" count="49" stride="3">
              <param name="X" type="float"/>
              <param name="Y" type="float"/>
              <param name="Z" type="float"/>
            </accessor>
          </technique_common>
        </source>
        <source id="Cube_006-mesh-map-0">
          <float_array id="Cube_006-mesh-map-0-array" count="396">0.625 0.03427463 0.625 0.3637202 0.625 0.1375252 0.5 0.02884608 0.5 0.07770848 0.5 0.3201632 0.6249999 0.1118222 0.625 0.1158856 0.6249999 0.1109298 0.6 0.009615361 0.5 0.07770848 0.5 0.009615361 0.625 0.130439 0.625 0.1030595 0.6249998 0.130308 0.625 0.130439 0.625 0.1473358 0.625 0.1158856 0.6 0.009615361 0.6 0 0.625 0.009615361 0.6 0 0.5 0.009615361 0.5 0 0.6 0.009615361 0.625 0.1117067 0.6 0.09383904 0.6 0.9903846 0.625 0.8788198 0.625 0.9903846 0.6 0.9903846 0.5 0.9903846 0.5 0.8932788 0.625 0.1473358 0.6249998 0.130308 0.6249999 0.1473358 0.625 0.1079856 0.6249999 0.1109298 0.625 0.1030595 0.625 0.1158856 0.625 0.1266336 0.625 0.1419777 0.6249999 0.1473358 0.625 0.2142564 0.625 0.1473358 0.625 0.1098589 0.625 0.06318831 0.6249999 0.1226076 0.625 0.1012797 0.625 0.06318831 0.625 0.1098589 0.625 0.09820282 0.625 0.06318831 0.625 0.1012797 0.625 0.03427463 0.625 0.06318831 0.625 0.1097417 0.6249998 0.130308 0.625 0.1375252 0.6249999 0.1473358 0.625 0.1030595 0.6249999 0.1249241 0.6249998 0.130308 0.625 0.1030595 0.625 0.109309 0.625 0.1028239 0.6249999 0.1109298 0.625 0.1135909 0.625 0.1108871 0.625 0.1158856 0.625 0.1403659 0.625 0.1097417 0.6249999 0.1473358 0.625 0.2942206 0.625 0.2860684 0.6249999 0.1226076 0.625 0.06318831 0.625 0.1375252 0.4954022 0.5647711 0.4894972 0.558178 0.4843258 0.558178 0.4765431 0.4019264 0.4738991 0.4331138 0.4775359 0.347381 0.625 0.3637363 0.625 0.2942206 0.625 0.3637202 0.625 0.2942206 0.625 0.1375252 0.625 0.3637202 0.625 0.1375252 0.625 0.06318831 0.625 0.03427463 0.5 0.02884608 0.5 0.009615361 0.5 0.07770848 0.6249999 0.1118222 0.625 0.1158856 0.625 0.1158856 0.6 0.009615361 0.6 0.09383904 0.5 0.07770848 0.625 0.130439 0.625 0.1079856 0.625 0.1030595 0.625 0.2142564 0.625 0.1266336 0.625 0.1473358 0.625 0.1266336 0.625 0.1158856 0.625 0.1473358 0.625 0.1158856 0.6249999 0.1118222 0.625 0.1079856 0.625 0.1079856 0.625 0.130439 0.625 0.1158856 0.6 0 0.6 0.009615361 0.5 0.009615361 0.6 0.009615361 0.625 0.03427463 0.625 0.1117067 0.6 0.9903846 0.6 0.8783578 0.625 0.8788198 0.5 0.8932788 0.5808247 0.8753739 0.6 0.8783578 0.6 0.8783578 0.6 0.9903846 0.5 0.8932788 0.625 0.1473358 0.625 0.130439 0.6249998 0.130308 0.625 0.1079856 0.6249999 0.1118222 0.6249999 0.1109298 0.625 0.1158856 0.625 0.1158856 0.625 0.1266336 0.6249999 0.1473358 0.625 0.2860684 0.625 0.2142564 0.625 0.1403659 0.625 0.1117067 0.625 0.1097417 0.625 0.1117067 0.625 0.03427463 0.625 0.1097417 0.6249998 0.130308 0.6249999 0.1226076 0.625 0.1375252 0.625 0.1030595 0.625 0.1028239 0.6249999 0.1249241 0.625 0.1030595 0.6249999 0.1109298 0.625 0.109309 0.6249999 0.1109298 0.625 0.1158856 0.625 0.1135909 0.625 0.1158856 0.625 0.1419777 0.625 0.1403659 0.6249999 0.1473358 0.625 0.1375252 0.625 0.2942206 0.4954022 0.5647711 0.4954036 0.5647605 0.4894972 0.558178 0.5098915 0.3632034 0.5083878 0.3645215 0.5105027 0.3487962 0.5083878 0.3645215 0.4778846 0.3703017 0.4775359 0.347381 0.4765431 0.4019264 0.5061817 0.4165263 0.4738991 0.4331138 0.5061817 0.4165263 0.5075393 0.4186552 0.494817 0.443418 0.4738991 0.4331138 0.5061817 0.4165263 0.494817 0.443418 0.5083878 0.3645215 0.4775359 0.347381 0.5041715 0.3423336 0.5105027 0.3487962 0.5083878 0.3645215 0.5041715 0.3423336 0.5075393 0.4186552 0.5067006 0.4384244 0.494817 0.443418 0.4775359 0.347381 0.4778846 0.3703017 0.4765431 0.4019264</float_array>
          <technique_common>
            <accessor source="#Cube_006-mesh-map-0-array" count="198" stride="2">
              <param name="S" type="float"/>
              <param name="T" type="float"/>
            </accessor>
          </technique_common>
        </source>
        <vertices id="Cube_006-mesh-vertices">
          <input semantic="POSITION" source="#Cube_006-mesh-positions"/>
        </vertices>
        <triangles count="66">
          <input semantic="VERTEX" source="#Cube_006-mesh-vertices" offset="0"/>
          <input semantic="NORMAL" source="#Cube_006-mesh-normals" offset="1"/>
          <input semantic="TEXCOORD" source="#Cube_006-mesh-map-0" offset="2" set="0"/>
          <p>3 0 0 21 0 1 11 0 2 0 1 3 26 1 4 25 1 5 8 2 6 13 2 7 19 2 8 4 3 9 26 3 10 1 3 11 10 4 12 17 4 13 15 4 14 10 0 15 7 0 16 6 0 17 4 5 18 2 5 19 3 5 20 2 6 21 1 6 22 0 6 23 4 7 24 30 7 25 27 7 26 2 8 27 21 8 28 3 8 29 2 9 30 0 9 31 25 9 32 7 10 33 15 10 34 12 10 35 9 11 36 19 11 37 17 11 38 13 12 39 29 12 40 32 12 41 12 13 42 28 13 43 7 13 44 18 0 45 5 0 46 16 0 47 20 0 48 5 0 49 18 0 50 14 0 51 5 0 52 20 0 53 3 0 54 5 0 55 14 0 56 15 14 57 11 14 58 12 14 59 17 15 60 16 15 61 15 15 62 17 16 63 20 16 64 18 16 65 19 17 66 14 17 67 20 17 68 13 18 69 34 18 70 14 18 71 12 19 72 23 19 73 33 19 74 16 0 75 5 0 76 11 0 77 24 20 78 22 20 79 31 20 80 28 21 81 25 21 82 26 21 83 24 0 84 23 0 85 21 0 86 23 0 87 11 0 88 21 0 89 11 0 90 5 0 91 3 0 92 0 1 93 1 1 94 26 1 95 8 2 96 6 2 97 13 2 98 4 3 99 27 3 100 26 3 101 10 4 102 9 4 103 17 4 104 28 0 105 29 0 106 7 0 107 29 22 108 6 22 109 7 22 110 6 0 111 8 0 112 9 0 113 9 23 114 10 23 115 6 23 116 2 24 117 4 24 118 1 24 119 4 25 120 3 25 121 30 25 122 2 26 123 22 26 124 21 26 125 25 27 126 31 27 127 22 27 128 22 28 129 2 28 130 25 28 131 7 29 132 10 29 133 15 29 134 9 30 135 8 30 136 19 30 137 13 12 138 6 12 139 29 12 140 12 31 141 33 31 142 28 31 143 34 0 144 30 0 145 14 0 146 30 32 147 3 32 148 14 32 149 15 33 150 16 33 151 11 33 152 17 34 153 18 34 154 16 34 155 17 35 156 19 35 157 20 35 158 19 36 159 13 36 160 14 36 161 13 37 162 32 37 163 34 37 164 12 38 165 11 38 166 23 38 167 24 39 168 21 39 169 22 39 170 34 40 171 32 40 172 30 40 173 32 41 174 29 41 175 26 41 176 28 42 177 33 42 178 25 42 179 33 43 180 23 43 181 31 43 182 25 44 183 33 44 184 31 44 185 32 45 186 26 45 187 27 45 188 30 46 189 32 46 190 27 46 191 23 47 192 24 47 193 31 47 194 26 48 195 29 48 196 28 48 197</p>
        </triangles>
      </mesh>
    </geometry>
    <geometry id="Cube_004-mesh" name="Cube.004">
      <mesh>
        <source id="Cube_004-mesh-positions">
          <float_array id="Cube_004-mesh-positions-array" count="54">-0.4182295 -0.5 0.00999999 -0.4495217 -0.4937756 0.00999999 -0.4460436 -0.65 0.2 -0.5269623 -0.65 0 -0.4638115 -0.4842274 0.00999999 -0.3747361 -0.5067412 0.25 -0.4079868 -0.6 0.25 -0.3767669 -0.5 0.2390402 -0.4182295 -0.5 0.1365606 -0.4495217 -0.4937756 0.05373311 -0.09663987 -0.65 0 -0.03510385 -0.65 0.2 -0.3700598 -0.2099322 0 -0.18676 -0.5 0.00999999 -0.3663672 -0.2109232 0.00999999 -0.05078548 -0.6 0.25 -0.1087284 -0.5067412 0.25 -0.1162889 -0.5 0.2390402</float_array>
          <technique_common>
            <accessor source="#Cube_004-mesh-positions-array" count="18" stride="3">
              <param name="X" type="float"/>
              <param name="Y" type="float"/>
              <param name="Z" type="float"/>
            </accessor>
          </technique_common>
        </source>
        <source id="Cube_004-mesh-normals">
          <float_array id="Cube_004-mesh-normals-array" count="78">0 -1 0 0 0 -1 0 0 1 0 -0.7071059 0.7071076 0 1 0 0.1950916 0.9807851 0 0.5555719 0.8314686 0 0 0.8517721 0.5239126 -0.8801723 0.3138179 0.3561112 0.8218015 0.5105961 -0.2528519 0 0 1 0 -0.707107 0.7071066 0.1950915 0.9807851 0 0 0.8517715 0.5239135 -0.8801721 0.3138179 0.3561116 -0.8801714 0.3138176 0.3561133 -0.880172 0.3138177 0.3561121 -0.8801718 0.3138182 0.3561121 -0.8801719 0.3138181 0.356112 -0.8801712 0.3138176 0.3561138 -0.8801721 0.313818 0.3561117 0.8218021 0.5105964 -0.2528493 0.8218014 0.510596 -0.2528527 0.8218012 0.5105959 -0.2528532 0.8218013 0.510596 -0.2528529 0.8218015 0.5105962 -0.252852</float_array>
          <technique_common>
            <accessor source="#Cube_004-mesh-normals-array" count="26" stride="3">
              <param name="X" type="float"/>
              <param name="Y" type="float"/>
              <param name="Z" type="float"/>
            </accessor>
          </technique_common>
        </source>
        <source id="Cube_004-mesh-map-0">
          <float_array id="Cube_004-mesh-map-0-array" count="192">0.6 0.4607776 0.5 0.3935846 0.6 0.3817507 0.5 0.3935846 0.5 0.4763389 0.5 0.4544274 0.625 0.4690508 0.625 0.4691635 0.625 0.4817382 0.625 0.3992126 0.625 0.4571502 0.625 0.385226 0.625 0.4571502 0.6 0.3817507 0.625 0.385226 0.625 0.4597268 0.625 0.4169983 0.625 0.4690508 0.625 0.4690508 0.625 0.4761999 0.625 0.4690508 0.625 0.4761999 0.625 0.4762249 0.625 0.4817382 0.625 0.4011509 0.625 0.4584496 0.625 0.3992126 0.4506553 0.7087567 0.4449178 0.7074997 0.4407984 0.7293238 0.4755697 0.2127315 0.5052018 0.1646566 0.5016266 0.218414 0.6 0.4607776 0.5 0.4763389 0.5 0.3935846 0.625 0.4817382 0.625 0.4762249 0.625 0.4690508 0.625 0.4690508 0.625 0.4169983 0.625 0.4691635 0.625 0.3992126 0.625 0.4584496 0.625 0.4571502 0.625 0.4571502 0.6 0.4607776 0.6 0.3817507 0.625 0.4011509 0.625 0.4169983 0.625 0.4597268 0.625 0.4169983 0.625 0.4690508 0.625 0.4690508 0.625 0.4690508 0.625 0.4762249 0.625 0.4761999 0.625 0.4011509 0.625 0.4597268 0.625 0.4584496 0.4494863 0.6715191 0.4481543 0.6713886 0.4449178 0.7074997 0.4481543 0.6713886 0.4407984 0.7293238 0.4449178 0.7074997 0.4407984 0.7293238 0.4677671 0.7293237 0.4506553 0.7087567 0.4677671 0.7293237 0.475345 0.7227411 0.46172 0.7095761 0.4506553 0.7087567 0.4677671 0.7293237 0.46172 0.7095761 0.475345 0.7227411 0.4769039 0.7104637 0.4755387 0.7095761 0.475345 0.7227411 0.4755387 0.7095761 0.46172 0.7095761 0.5066975 0.1674337 0.5076372 0.2015458 0.5052018 0.1646566 0.5076372 0.2015458 0.5016266 0.218414 0.5052018 0.1646566 0.4755697 0.2127315 0.471136 0.05176454 0.4753613 0.158149 0.471136 0.05176454 0.4724489 0.05241119 0.4753613 0.158149 0.4753613 0.158149 0.5052018 0.1646566 0.4755697 0.2127315</float_array>
          <technique_common>
            <accessor source="#Cube_004-mesh-map-0-array" count="96" stride="2">
              <param name="S" type="float"/>
              <param name="T" type="float"/>
            </accessor>
          </technique_common>
        </source>
        <vertices id="Cube_004-mesh-vertices">
          <input semantic="POSITION" source="#Cube_004-mesh-positions"/>
        </vertices>
        <triangles count="32">
          <input semantic="VERTEX" source="#Cube_004-mesh-vertices" offset="0"/>
          <input semantic="NORMAL" source="#Cube_004-mesh-normals" offset="1"/>
          <input semantic="TEXCOORD" source="#Cube_004-mesh-map-0" offset="2" set="0"/>
          <p>2 0 0 10 0 1 11 0 2 10 1 3 3 1 4 12 1 5 0 2 6 14 2 7 4 2 8 16 2 9 6 2 10 15 2 11 6 3 12 11 3 13 15 3 14 7 4 15 13 4 16 8 4 17 0 5 18 9 5 19 8 5 20 9 6 21 1 6 22 4 6 23 17 7 24 5 7 25 16 7 26 9 8 27 4 8 28 3 8 29 10 9 30 17 9 31 11 9 32 2 0 33 3 0 34 10 0 35 4 10 36 1 10 37 0 10 38 0 2 39 13 2 40 14 2 41 16 2 42 5 2 43 6 2 44 6 11 45 2 11 46 11 11 47 17 4 48 13 4 49 7 4 50 13 4 51 0 4 52 8 4 53 0 12 54 1 12 55 9 12 56 17 13 57 7 13 58 5 13 59 14 14 60 12 14 61 4 14 62 12 15 63 3 15 64 4 15 65 3 16 66 2 16 67 9 16 68 2 17 69 6 17 70 8 17 71 9 18 72 2 18 73 8 18 74 6 19 75 5 19 76 7 19 77 6 20 78 7 20 79 8 20 80 16 21 81 15 21 82 17 21 83 15 22 84 11 22 85 17 22 86 10 23 87 12 23 88 13 23 89 12 24 90 14 24 91 13 24 92 13 25 93 17 25 94 10 25 95</p>
        </triangles>
      </mesh>
    </geometry>
    <geometry id="Cube_002-mesh" name="Cube.002">
      <mesh>
        <source id="Cube_002-mesh-positions">
          <float_array id="Cube_002-mesh-positions-array" count="162">-0.6 -0.65 0 -0.65 -0.6 0 -0.65 0.6 0 -0.6 0.65 0 -0.6 -0.6 0.25 -0.65 -0.6 0.2 -0.6 -0.65 0.2 -0.6 0.6 0.25 -0.6 0.65 0.2 -0.65 0.6 0.2 -0.5578205 0.5578205 0.25 -0.5578205 -0.5578205 0.25 -0.4182295 0.5 0.00999999 -0.5 0.4182295 0.00999999 -0.4495217 0.4937756 0.00999999 -0.4760499 0.4760499 0.00999999 -0.4937756 0.4495217 0.00999999 -0.5 -0.4182295 0.00999999 -0.4937756 -0.4495217 0.00999999 -0.4760499 -0.4760499 0.00999999 -0.5067412 0.4345042 0.25 -0.5 0.4182295 0.2390402 -0.4182295 0.5 0.2390402 -0.4345042 0.5067412 0.25 -0.4937756 0.4495217 0.2390402 -0.501118 0.4619376 0.25 -0.4760499 0.4760499 0.2390402 -0.4853678 0.4853678 0.25 -0.4495217 0.4937756 0.2390402 -0.4619376 0.501118 0.25 -0.4345042 -0.5067412 0.25 -0.4182295 -0.5 0.2390402 -0.5 -0.4182295 0.2390402 -0.5067412 -0.4345042 0.25 -0.4495217 -0.4937756 0.2390402 -0.4619376 -0.501118 0.25 -0.4760499 -0.4760499 0.2390402 -0.4853678 -0.4853678 0.25 -0.4937756 -0.4495217 0.2390402 -0.501118 -0.4619376 0.25 -0.4460436 -0.65 0.2 -0.5269623 -0.65 0 -0.01338756 0.5067412 0.25 0.01986306 0.6 0.25 -0.0634582 0.65 0 -0.4638115 -0.4842274 0.00999999 -0.1128935 0.5 0.00999999 -0.3747361 -0.5067412 0.25 -0.4079868 -0.6 0.25 0.01746046 0.65 0.2 -0.3767669 -0.5 0.2390402 -0.4182295 -0.5 0.1365606 -0.4495217 -0.4937756 0.05373311 -0.02022528 0.5 0.2390402</float_array>
          <technique_common>
            <accessor source="#Cube_002-mesh-positions-array" count="54" stride="3">
              <param name="X" type="float"/>
              <param name="Y" type="float"/>
              <param name="Z" type="float"/>
            </accessor>
          </technique_common>
        </source>
        <source id="Cube_002-mesh-normals">
          <float_array id="Cube_002-mesh-normals-array" count="216">0 -1 -2.4197e-7 -1 0 0 0 0 1 0 0 -1 0.1950917 -0.980785 0 -0.5773494 -0.5773507 0.5773507 -0.5773494 0.5773507 0.5773507 0 -0.7071061 0.7071075 -0.7071067 0 0.7071068 0 0.707106 0.7071076 -0.7071072 -0.7071064 0 -0.7071067 0.707107 0 0 1 -4.8266e-7 0 1 0 0.980785 -0.1950922 0 0.5555703 -0.8314696 0 0.8314704 -0.5555693 0 0.195092 0.980785 0 0.8314704 0.5555693 0 0.5555712 0.8314689 0 0 -1 1.63463e-7 1 0 0 0.980785 0.1950922 0 0.7315638 -0.1455205 0.6660617 0.5358628 -0.3580532 0.7646235 0.3607013 -0.5365882 0.7628682 0.1504629 -0.7340455 0.6622221 0.1455184 0.7315654 0.6660604 0.3580534 0.5358655 0.7646214 0.5365875 0.3607 0.7628691 0.7340457 0.1504612 0.6622223 0 -0.8517723 0.5239123 0 0.8517729 0.5239113 0.8517724 0 0.523912 0.8801721 -0.3138181 -0.3561114 0 -1 0 0 0 1 -3.23895e-7 0 1 0 0 1 0.1950917 -0.980785 0 0 -0.7071066 0.707107 -0.7071066 0 0.707107 0 0.707107 0.7071066 -0.7071067 -0.707107 0 -0.7071072 0.7071064 0 0.8314693 -0.5555707 0 0.1950918 0.980785 0 0.8314693 0.5555707 0 0.5555712 0.8314691 2.89362e-6 0.5555694 0.8314703 0 0.7340457 -0.1504612 0.6622223 0.5365875 -0.3607 0.7628691 0.3580534 -0.5358655 0.7646214 0.1455184 -0.7315654 0.6660604 0.1504629 0.7340455 0.6622221 0.3607013 0.5365882 0.7628682 0.5358628 0.3580532 0.7646235 0.7315638 0.1455205 0.6660617 0 -0.851771 0.5239143 0 0.8517709 0.5239145 0.8517724 0 0.523912 0.8801718 -0.3138178 -0.3561121 0.8801719 -0.3138176 -0.3561125 0.8801718 -0.3138179 -0.3561121 0.8801742 -0.3138189 -0.3561058 0.8801718 -0.3138182 -0.3561122 0.880172 -0.3138176 -0.3561122 0.880172 -0.3138179 -0.356112 0.8801718 -0.3138174 -0.3561127 0.8801721 -0.3138177 -0.3561117 0.880172 -0.3138179 -0.3561121 0.8801718 -0.3138178 -0.3561125</float_array>
          <technique_common>
            <accessor source="#Cube_002-mesh-normals-array" count="72" stride="3">
              <param name="X" type="float"/>
              <param name="Y" type="float"/>
              <param name="Z" type="float"/>
            </accessor>
          </technique_common>
        </source>
        <source id="Cube_002-mesh-map-0">
          <float_array id="Cube_002-mesh-map-0-array" count="624">0.6 0.4903846 0.5 0.4763389 0.6 0.4607776 0.6 0.5096154 0.5 0.7403846 0.5 0.5096154 0.625 0.7157254 0.625 0.6868117 0.625 0.6124748 0.5 0.4763389 0.5 0.7403846 0.5 0.4116105 0.625 0.6026642 0.625 0.619561 0.625 0.6381778 0.625 0.7157254 0.625 0.4958131 0.625 0.6402583 0.625 0.4922811 0.625 0.4958131 0.625 0.4571502 0.625 0.619561 0.625 0.6026642 0.625 0.6196919 0.6 0.4903846 0.625 0.4958131 0.6 0.5096154 0.625 0.7596154 0.6 0.7596154 0.6 0.75 0.625 0.4958131 0.6 0.4607776 0.625 0.4571502 0.625 0.7157254 0.6 0.5096154 0.625 0.4958131 0.6 0.8783578 0.625 0.7596154 0.625 0.8788198 0.5 0.5096154 0.6 0.4903846 0.6 0.5096154 0.5 0.7596154 0.6 0.7403846 0.6 0.7596154 0.5 0.8627964 0.6 0.7596154 0.6 0.8783578 0.625 0.6402583 0.625 0.6445813 0.625 0.6868117 0.625 0.4690508 0.625 0.4690508 0.625 0.4597268 0.625 0.6341144 0.625 0.6390702 0.625 0.6341143 0.625 0.6420144 0.625 0.6196919 0.625 0.6469404 0.625 0.4717592 0.625 0.4779443 0.625 0.4922811 0.625 0.6381778 0.625 0.6469404 0.625 0.6390702 0.625 0.476094 0.625 0.4690508 0.625 0.4761999 0.625 0.4954723 0.625 0.48646 0.625 0.4948416 0.625 0.4873946 0.625 0.476094 0.625 0.4761999 0.625 0.6026642 0.625 0.4364538 0.625 0.3860097 0.625 0.500501 0.625 0.6341144 0.625 0.6341143 0.625 0.6445813 0.625 0.648303 0.625 0.6868117 0.625 0.648303 0.625 0.6508399 0.625 0.6868117 0.625 0.6508399 0.625 0.6517972 0.625 0.6868117 0.625 0.4867551 0.625 0.4880038 0.625 0.4922811 0.625 0.4832189 0.625 0.4867551 0.625 0.4922811 0.625 0.4779443 0.625 0.4832189 0.625 0.4922811 0.625 0.500501 0.625 0.4948416 0.625 0.500501 0.625 0.6390702 0.625 0.6402583 0.625 0.6341143 0.625 0.6469404 0.625 0.640691 0.625 0.6390702 0.625 0.6469404 0.625 0.6250759 0.625 0.6471762 0.625 0.6196919 0.625 0.610484 0.625 0.6196982 0.625 0.476094 0.625 0.4717592 0.625 0.4690508 0.625 0.4873946 0.625 0.4783094 0.625 0.476094 0.625 0.4873946 0.625 0.4939245 0.625 0.4874393 0.625 0.4954723 0.625 0.4982064 0.625 0.4955025 0.625 0.6026642 0.625 0.3823168 0.625 0.6124748 0.625 0.4690508 0.625 0.4584496 0.625 0.4597268 0.625 0.4995427 0.625 0.6341143 0.625 0.6402583 0.4407984 0.7293238 0.4449178 0.7074997 0.4506553 0.7087567 0.6 0.4903846 0.5 0.4903846 0.5 0.4763389 0.6 0.5096154 0.6 0.7403846 0.5 0.7403846 0.625 0.3823168 0.625 0.3637202 0.625 0.6124748 0.625 0.3637202 0.625 0.7157254 0.625 0.6124748 0.5 0.4763389 0.5 0.4903846 0.5 0.5096154 0.5 0.5096154 0.5 0.7403846 0.5 0.4763389 0.5 0.7403846 0.5 0.7211539 0.5 0.4116105 0.625 0.619561 0.625 0.6420144 0.625 0.6381778 0.625 0.6381778 0.625 0.6341144 0.625 0.6026642 0.625 0.6341144 0.625 0.500501 0.625 0.4364538 0.625 0.500501 0.625 0.4948416 0.625 0.4817382 0.625 0.4948416 0.625 0.48646 0.625 0.4817382 0.625 0.4817382 0.625 0.4364538 0.625 0.500501 0.625 0.4364538 0.625 0.6026642 0.625 0.6341144 0.625 0.4922811 0.625 0.4995427 0.625 0.4958131 0.625 0.4995427 0.625 0.6402583 0.625 0.4958131 0.625 0.6402583 0.625 0.6868117 0.625 0.7157254 0.625 0.4584496 0.625 0.4717592 0.625 0.4571502 0.625 0.4717592 0.625 0.4922811 0.625 0.4571502 0.625 0.619561 0.625 0.6026642 0.625 0.6026642 0.625 0.4958131 0.6 0.4903846 0.6 0.4607776 0.625 0.7157254 0.6 0.7403846 0.6 0.5096154 0.6 0.8783578 0.6 0.7596154 0.625 0.7596154 0.5 0.5096154 0.5 0.4903846 0.6 0.4903846 0.5 0.7596154 0.5 0.7403846 0.6 0.7403846 0.5 0.8627964 0.5 0.7596154 0.6 0.7596154 0.625 0.6341144 0.625 0.6381778 0.625 0.6390702 0.625 0.6420144 0.625 0.619561 0.625 0.6196919 0.625 0.6381778 0.625 0.6420144 0.625 0.6469404 0.625 0.476094 0.625 0.4690508 0.625 0.4690508 0.625 0.4954723 0.625 0.4873946 0.625 0.48646 0.625 0.4761999 0.625 0.4817382 0.625 0.48646 0.625 0.48646 0.625 0.4873946 0.625 0.4761999 0.625 0.6026642 0.625 0.6026642 0.625 0.4364538 0.625 0.500501 0.625 0.500501 0.625 0.6341144 0.625 0.500501 0.625 0.4954723 0.625 0.4948416 0.625 0.6390702 0.625 0.6445813 0.625 0.6402583 0.625 0.6469404 0.625 0.6471762 0.625 0.640691 0.625 0.6469404 0.625 0.6196919 0.625 0.6250759 0.625 0.6196919 0.625 0.6026642 0.625 0.610484 0.625 0.476094 0.625 0.4779443 0.625 0.4717592 0.625 0.4873946 0.625 0.4874393 0.625 0.4783094 0.625 0.4873946 0.625 0.4954723 0.625 0.4939245 0.625 0.4954723 0.625 0.500501 0.625 0.4982064 0.625 0.6026642 0.625 0.3860097 0.625 0.3823168 0.625 0.4690508 0.625 0.4717592 0.625 0.4584496 0.625 0.4995427 0.625 0.500501 0.625 0.6341143 0.4625285 0.558178 0.4894972 0.558178 0.4613696 0.5779256 0.4894972 0.558178 0.4954036 0.5647605 0.4922542 0.5779256 0.4613696 0.5779256 0.4894972 0.558178 0.4922542 0.5779256 0.4954036 0.5647605 0.4938448 0.5770381 0.4922542 0.5779256 0.475345 0.7227411 0.4677671 0.7293237 0.46172 0.7095761 0.4677671 0.7293237 0.4407984 0.7293238 0.4506553 0.7087567 0.46172 0.7095761 0.4677671 0.7293237 0.4506553 0.7087567 0.4755387 0.7095761 0.4769039 0.7104637 0.475345 0.7227411 0.46172 0.7095761 0.4755387 0.7095761 0.475345 0.7227411 0.4625285 0.558178 0.4613696 0.5779256 0.4449178 0.7074997 0.4407984 0.7293238 0.4625285 0.558178 0.4449178 0.7074997</float_array>
          <technique_common>
            <accessor source="#Cube_002-mesh-map-0-array" count="312" stride="2">
              <param name="S" type="float"/>
              <param name="T" type="float"/>
            </accessor>
          </technique_common>
        </source>
        <vertices id="Cube_002-mesh-vertices">
          <input semantic="POSITION" source="#Cube_002-mesh-positions"/>
        </vertices>
        <triangles count="104">
          <input semantic="VERTEX" source="#Cube_002-mesh-vertices" offset="0"/>
          <input semantic="NORMAL" source="#Cube_002-mesh-normals" offset="1"/>
          <input semantic="TEXCOORD" source="#Cube_002-mesh-map-0" offset="2" set="0"/>
          <p>6 0 0 41 0 1 40 0 2 5 1 3 2 1 4 1 1 5 7 2 6 10 2 7 23 2 8 41 3 9 2 3 10 44 3 11 12 2 12 14 2 13 16 2 14 7 2 15 4 2 16 20 2 17 11 2 18 4 2 19 48 2 20 14 4 21 22 4 22 28 4 23 6 5 24 4 5 25 5 5 26 7 6 27 8 6 28 9 6 29 4 7 30 40 7 31 48 7 32 7 8 33 5 8 34 4 8 35 49 9 36 7 9 37 43 9 38 1 10 39 6 10 40 5 10 41 3 11 42 9 11 43 8 11 44 44 12 45 8 12 46 49 12 47 20 2 48 25 2 49 10 2 50 51 13 51 31 13 52 50 13 53 13 14 54 24 14 55 21 14 56 15 15 57 28 15 58 26 15 59 30 2 60 35 2 61 11 2 62 16 16 63 26 16 64 24 16 65 34 17 66 51 17 67 52 17 68 38 18 69 19 18 70 18 18 71 36 19 72 34 19 73 52 19 74 22 20 75 46 20 76 53 20 77 32 21 78 13 21 79 21 21 80 25 2 81 27 2 82 10 2 83 27 2 84 29 2 85 10 2 86 29 2 87 23 2 88 10 2 89 39 2 90 33 2 91 11 2 92 37 2 93 39 2 94 11 2 95 35 2 96 37 2 97 11 2 98 32 22 99 18 22 100 17 22 101 24 23 102 20 23 103 21 23 104 26 24 105 25 24 106 24 24 107 26 25 108 29 25 109 27 25 110 28 26 111 23 26 112 29 26 113 34 27 114 30 27 115 31 27 116 36 28 117 35 28 118 34 28 119 36 29 120 39 29 121 37 29 122 38 30 123 33 30 124 39 30 125 22 31 126 42 31 127 23 31 128 31 32 129 47 32 130 50 32 131 33 33 132 21 33 133 20 33 134 41 34 135 45 34 136 52 34 137 6 35 138 0 35 139 41 35 140 5 1 141 9 1 142 2 1 143 42 2 144 43 2 145 23 2 146 43 2 147 7 2 148 23 2 149 41 3 150 0 3 151 1 3 152 1 3 153 2 3 154 41 3 155 2 3 156 3 3 157 44 3 158 14 2 159 15 2 160 16 2 161 16 2 162 13 2 163 12 2 164 13 36 165 17 36 166 46 36 167 17 2 168 18 2 169 45 2 170 18 37 171 19 37 172 45 37 173 45 38 174 46 38 175 17 38 176 46 2 177 12 2 178 13 2 179 11 2 180 33 2 181 4 2 182 33 2 183 20 2 184 4 2 185 20 2 186 10 2 187 7 2 188 47 2 189 30 2 190 48 2 191 30 2 192 11 2 193 48 2 194 14 39 195 12 39 196 22 39 197 4 40 198 6 40 199 40 40 200 7 41 201 9 41 202 5 41 203 49 42 204 8 42 205 7 42 206 1 43 207 0 43 208 6 43 209 3 44 210 2 44 211 9 44 212 44 13 213 3 13 214 8 13 215 13 14 216 16 14 217 24 14 218 15 15 219 14 15 220 28 15 221 16 45 222 15 45 223 26 45 224 34 46 225 31 46 226 51 46 227 38 47 228 36 47 229 19 47 230 52 48 231 45 48 232 19 48 233 19 49 234 36 49 235 52 49 236 22 35 237 12 35 238 46 35 239 32 21 240 17 21 241 13 21 242 32 22 243 38 22 244 18 22 245 24 50 246 25 50 247 20 50 248 26 51 249 27 51 250 25 51 251 26 52 252 28 52 253 29 52 254 28 53 255 22 53 256 23 53 257 34 54 258 35 54 259 30 54 260 36 55 261 37 55 262 35 55 263 36 56 264 38 56 265 39 56 266 38 57 267 32 57 268 33 57 269 22 58 270 53 58 271 42 58 272 31 59 273 30 59 274 47 59 275 33 60 276 32 60 277 21 60 278 44 61 279 49 61 280 46 61 281 49 62 282 43 62 283 53 62 284 46 63 285 49 63 286 53 63 287 43 64 288 42 64 289 53 64 290 48 65 291 40 65 292 51 65 293 40 66 294 41 66 295 52 66 296 51 67 297 40 67 298 52 67 299 50 68 300 47 68 301 48 68 302 51 69 303 50 69 304 48 69 305 44 70 306 46 70 307 45 70 308 41 71 309 44 71 310 45 71 311</p>
        </triangles>
      </mesh>
    </geometry>
    <geometry id="Cube-mesh" name="Cube">
      <mesh>
        <source id="Cube-mesh-positions">
          <float_array id="Cube-mesh-positions-array" count="135">0.65 -0.6 0 0.6 -0.65 0 0.6 -0.6 0.25 0.6 -0.65 0.2 0.65 -0.6 0.2 0.5578205 -0.5578205 0.25 0.4182295 -0.5 0.00999999 0.5 -0.4182295 0.00999999 0.4495217 -0.4937756 0.00999999 0.4760499 -0.4760499 0.00999999 0.4937756 -0.4495217 0.00999999 0.5067412 -0.4345042 0.25 0.5 -0.4182295 0.2390402 0.4182295 -0.5 0.2390402 0.4345042 -0.5067412 0.25 0.4937756 -0.4495217 0.2390402 0.501118 -0.4619376 0.25 0.4760499 -0.4760499 0.2390402 0.4853678 -0.4853678 0.25 0.4495217 -0.4937756 0.2390402 0.4619376 -0.501118 0.25 -0.01338756 0.5067412 0.25 -0.0634582 0.65 0 -0.1128935 0.5 0.00999999 -0.02022528 0.5 0.2390402 -0.09663987 -0.65 0 -0.03510385 -0.65 0.2 -0.3700598 -0.2099322 0 -0.18676 -0.5 0.00999999 -0.3663672 -0.2109232 0.00999999 -0.05078548 -0.6 0.25 -0.1087284 -0.5067412 0.25 -0.1162889 -0.5 0.2390402 0.1478008 0.5067412 0.25 0.01983433 0.5999194 0.25 0.09505027 0.65 0 0.65 0.2459158 0 0.65 0.1620368 0.2 0.2952933 0.5 0.00999999 0.5 0.3509438 0.00999999 0.6 0.1774744 0.25 0.001944005 0.65 0.1616493 0.5 0.2548854 0.2390402 0.1633713 0.5 0.2390402 0.5067412 0.2453804 0.25</float_array>
          <technique_common>
            <accessor source="#Cube-mesh-positions-array" count="45" stride="3">
              <param name="X" type="float"/>
              <param name="Y" type="float"/>
              <param name="Z" type="float"/>
            </accessor>
          </technique_common>
        </source>
        <source id="Cube-mesh-normals">
          <float_array id="Cube-mesh-normals-array" count="189">0 -1 2.139e-7 0 0 1 0 0 -1 1 0 0 -0.8314693 0.5555707 0 0.5773494 -0.5773507 0.5773507 0.7071068 0 0.7071067 0 -0.7071065 0.7071071 0.7071067 -0.707107 0 0 1 -2.90779e-7 -1 0 0 -0.980785 0.1950922 0 -0.5555703 0.8314696 0 0 1 0 0 -1 0 -0.1950917 0.980785 0 4.11031e-7 0 1 -0.7315638 0.1455205 0.6660617 -0.5358628 0.3580532 0.7646235 -0.3607013 0.5365882 0.7628682 -0.1504629 0.7340455 0.6622221 -0.851772 0 0.5239127 0 -0.8517736 0.5239101 0 0.8517686 0.5239184 -0.880172 0.3138179 0.356112 -0.8218013 -0.5105961 0.2528521 0.5574657 0.7655966 0.3210825 0 0 1 0 0 1 0 0 1 -0.8314704 0.5555693 0 0.7071065 0 0.7071071 0 -0.707107 0.7071067 0.7071072 -0.7071064 0 0 1 0 0 -1 -1.59386e-7 -0.1950917 0.980785 0 -0.7340457 0.1504612 0.6622223 -0.5365875 0.3607 0.7628691 -0.3580534 0.5358655 0.7646214 -0.1455184 0.7315654 0.6660604 -0.8517723 0 0.5239121 0 -0.8517716 0.5239134 0 0.8517732 0.523911 -0.880172 0.3138178 0.356112 -0.880172 0.3138179 0.356112 -0.8801732 0.3138186 0.3561082 -0.8801714 0.3138177 0.3561135 -0.8801715 0.3138177 0.3561133 -0.8218017 -0.5105962 0.2528509 -0.8218015 -0.5105961 0.2528519 -0.8218015 -0.5105957 0.2528526 -0.8218011 -0.5105965 0.252852 -0.8218012 -0.5105959 0.2528532 0.5574651 0.7655958 0.3210856 0.5574648 0.7655957 0.3210863 0.5574647 0.7655954 0.321087 0.5574647 0.7655953 0.3210871 0.557465 0.7655955 0.3210862 0.5574663 0.7655957 0.3210837 0.5574648 0.7655953 0.3210871 0.5574647 0.7655953 0.3210868 0.557465 0.7655953 0.321087</float_array>
          <technique_common>
            <accessor source="#Cube-mesh-normals-array" count="63" stride="3">
              <param name="X" type="float"/>
              <param name="Y" type="float"/>
              <param name="Z" type="float"/>
            </accessor>
          </technique_common>
        </source>
        <source id="Cube-mesh-map-0">
          <float_array id="Cube-mesh-map-0-array" count="516">0.5 0.2596154 0.6 0.3817507 0.5 0.3935846 0.625 0.3637363 0.625 0.3823168 0.625 0.2942206 0.5 0.4544274 0.5 0.4116105 0.5 0.3201632 0.6 0.09383904 0.5 0.2403846 0.5 0.07770848 0.625 0.2551584 0.625 0.249499 0.625 0.2809492 0.625 0.2541869 0.625 0.257719 0.625 0.2782408 0.625 0.2626055 0.625 0.2551584 0.625 0.26354 0.625 0.2541869 0.6 0.2596154 0.6 0.2403846 0.625 0.2541869 0.6 0.09383904 0.625 0.1117067 0.625 0.2541869 0.6 0.3817507 0.6 0.2596154 0.5 0.2596154 0.6 0.2403846 0.6 0.2596154 0.5 0.8627964 0.5808247 0.8753739 0.5 0.8932788 0.625 0.257719 0.625 0.2504574 0.625 0.2548668 0.625 0.249499 0.625 0.1419777 0.625 0.1266336 0.6249999 0.2545276 0.625 0.249499 0.625 0.2551584 0.625 0.273906 0.625 0.26354 0.625 0.2737751 0.625 0.2809492 0.625 0.4011509 0.625 0.2809492 0.625 0.4364538 0.625 0.2860684 0.625 0.3860097 0.625 0.257719 0.625 0.2611254 0.625 0.2619963 0.625 0.257719 0.625 0.2586193 0.625 0.2611254 0.625 0.257719 0.625 0.2548668 0.625 0.2586193 0.625 0.2809492 0.625 0.2737751 0.625 0.2809492 0.625 0.2504574 0.625 0.2541869 0.625 0.1117067 0.6249999 0.2545276 0.625 0.2504574 0.625 0.249499 0.625 0.2626055 0.625 0.2560756 0.6249999 0.2545276 0.625 0.2626055 0.625 0.2716906 0.625 0.2625607 0.625 0.273906 0.625 0.2777187 0.625 0.2739123 0.625 0.249499 0.625 0.1403659 0.625 0.1419777 0.625 0.3860097 0.625 0.2942206 0.625 0.3823168 0.625 0.3992126 0.625 0.2809492 0.625 0.4011509 0.4613696 0.5779256 0.4922542 0.5779256 0.4843258 0.558178 0.5052018 0.1646566 0.4753613 0.158149 0.4755697 0.2127315 0.4775359 0.347381 0.4738991 0.4331138 0.4765431 0.4019264 0.5 0.2596154 0.6 0.2596154 0.6 0.3817507 0.5 0.3201632 0.5 0.07770848 0.5 0.4544274 0.5 0.07770848 0.5 0.2403846 0.5 0.3935846 0.5 0.4544274 0.5 0.07770848 0.5 0.3935846 0.5 0.2403846 0.5 0.2596154 0.5 0.3935846 0.6 0.09383904 0.6 0.2403846 0.5 0.2403846 0.625 0.1266336 0.625 0.2142564 0.625 0.4691635 0.625 0.2142564 0.625 0.4364538 0.625 0.4691635 0.625 0.4691635 0.625 0.4169983 0.625 0.249499 0.625 0.1266336 0.625 0.4691635 0.625 0.249499 0.625 0.4169983 0.625 0.2809492 0.625 0.249499 0.625 0.2809492 0.625 0.2737751 0.625 0.2551584 0.625 0.2737751 0.625 0.26354 0.625 0.2551584 0.625 0.3992126 0.625 0.385226 0.625 0.2782408 0.625 0.385226 0.625 0.2541869 0.625 0.2782408 0.625 0.2626055 0.6249999 0.2545276 0.625 0.2551584 0.625 0.2541869 0.6 0.2403846 0.6 0.09383904 0.625 0.2541869 0.625 0.385226 0.6 0.3817507 0.5 0.2596154 0.5 0.2403846 0.6 0.2403846 0.625 0.249499 0.625 0.249499 0.625 0.1419777 0.6249999 0.2545276 0.625 0.249499 0.625 0.249499 0.625 0.273906 0.625 0.2626055 0.625 0.26354 0.625 0.2809492 0.625 0.4169983 0.625 0.4011509 0.625 0.4364538 0.625 0.2142564 0.625 0.2860684 0.625 0.2809492 0.625 0.273906 0.625 0.2737751 0.625 0.1117067 0.625 0.1403659 0.625 0.2504574 0.625 0.2504574 0.625 0.257719 0.625 0.2541869 0.6249999 0.2545276 0.625 0.2548668 0.625 0.2504574 0.625 0.2626055 0.625 0.2625607 0.625 0.2560756 0.625 0.2626055 0.625 0.273906 0.625 0.2716906 0.625 0.273906 0.625 0.2809492 0.625 0.2777187 0.625 0.249499 0.625 0.2504574 0.625 0.1403659 0.625 0.3860097 0.625 0.2860684 0.625 0.2942206 0.625 0.3992126 0.625 0.2782408 0.625 0.2809492 0.4954022 0.5647711 0.4843258 0.558178 0.4922542 0.5779256 0.4843258 0.558178 0.4625285 0.558178 0.4613696 0.5779256 0.4954022 0.5647711 0.4922542 0.5779256 0.4938448 0.5770381 0.4625285 0.558178 0.4481543 0.6713886 0.4613696 0.5779256 0.4481543 0.6713886 0.4494863 0.6715191 0.4613696 0.5779256 0.4753613 0.158149 0.4724489 0.05241119 0.471136 0.05176454 0.4755697 0.2127315 0.5016266 0.218414 0.5052018 0.1646566 0.5016266 0.218414 0.5076372 0.2015458 0.5052018 0.1646566 0.5076372 0.2015458 0.5066975 0.1674337 0.5052018 0.1646566 0.4753613 0.158149 0.471136 0.05176454 0.4755697 0.2127315 0.5083878 0.3645215 0.5098915 0.3632034 0.5105027 0.3487962 0.5105027 0.3487962 0.5041715 0.3423336 0.5083878 0.3645215 0.5041715 0.3423336 0.4775359 0.347381 0.5083878 0.3645215 0.4738991 0.4331138 0.494817 0.443418 0.5061817 0.4165263 0.494817 0.443418 0.5067006 0.4384244 0.5075393 0.4186552 0.5061817 0.4165263 0.494817 0.443418 0.5075393 0.4186552 0.5061817 0.4165263 0.4765431 0.4019264 0.4738991 0.4331138 0.4778846 0.3703017 0.5083878 0.3645215 0.4775359 0.347381 0.4765431 0.4019264 0.4778846 0.3703017 0.4775359 0.347381</float_array>
          <technique_common>
            <accessor source="#Cube-mesh-map-0-array" count="258" stride="2">
              <param name="S" type="float"/>
              <param name="T" type="float"/>
            </accessor>
          </technique_common>
        </source>
        <vertices id="Cube-mesh-vertices">
          <input semantic="POSITION" source="#Cube-mesh-positions"/>
        </vertices>
        <triangles count="86">
          <input semantic="VERTEX" source="#Cube-mesh-vertices" offset="0"/>
          <input semantic="NORMAL" source="#Cube-mesh-normals" offset="1"/>
          <input semantic="TEXCOORD" source="#Cube-mesh-map-0" offset="2" set="0"/>
          <p>1 0 0 26 0 1 25 0 2 34 1 3 21 1 4 33 1 5 27 2 6 22 2 7 35 2 8 37 3 9 0 3 10 36 3 11 10 1 12 7 1 13 6 1 14 2 1 15 5 1 16 14 1 17 17 4 18 10 4 19 9 4 20 2 5 21 3 5 22 4 5 23 2 6 24 37 6 25 40 6 26 2 7 27 26 7 28 3 7 29 1 8 30 4 8 31 3 8 32 22 9 33 41 9 34 35 9 35 5 1 36 11 1 37 16 1 38 7 10 39 42 10 40 39 10 41 15 11 42 7 11 43 10 11 44 19 12 45 9 12 46 8 12 47 6 13 48 32 13 49 13 13 50 23 14 51 43 14 52 24 14 53 5 1 54 20 1 55 14 1 56 5 1 57 18 1 58 20 1 59 5 1 60 16 1 61 18 1 62 13 15 63 8 15 64 6 15 65 11 16 66 2 16 67 40 16 68 15 17 69 11 17 70 12 17 71 17 18 72 16 18 73 15 18 74 17 19 75 20 19 76 18 19 77 19 20 78 14 20 79 20 20 80 12 21 81 44 21 82 42 21 83 24 22 84 33 22 85 21 22 86 31 23 87 13 23 88 32 23 89 23 24 90 24 24 91 41 24 92 32 25 93 28 25 94 25 25 95 36 26 96 35 26 97 38 26 98 1 14 99 3 14 100 26 14 101 35 2 102 36 2 103 27 2 104 36 2 105 0 2 106 25 2 107 27 2 108 36 2 109 25 2 110 0 2 111 1 2 112 25 2 113 37 3 114 4 3 115 0 3 116 39 27 117 38 27 118 29 27 119 38 1 120 23 1 121 29 1 122 29 28 123 28 28 124 7 28 125 39 29 126 29 29 127 7 29 128 28 1 129 6 1 130 7 1 131 6 1 132 8 1 133 10 1 134 8 1 135 9 1 136 10 1 137 31 1 138 30 1 139 14 1 140 30 1 141 2 1 142 14 1 143 17 30 144 15 30 145 10 30 146 2 31 147 4 31 148 37 31 149 2 32 150 30 32 151 26 32 152 1 33 153 0 33 154 4 33 155 7 10 156 12 10 157 42 10 158 15 11 159 12 11 160 7 11 161 19 12 162 17 12 163 9 12 164 6 34 165 28 34 166 32 34 167 23 35 168 38 35 169 43 35 170 13 36 171 19 36 172 8 36 173 40 1 174 44 1 175 11 1 176 11 1 177 5 1 178 2 1 179 15 37 180 16 37 181 11 37 182 17 38 183 18 38 184 16 38 185 17 39 186 19 39 187 20 39 188 19 40 189 13 40 190 14 40 191 12 41 192 11 41 193 44 41 194 24 42 195 43 42 196 33 42 197 31 43 198 14 43 199 13 43 200 34 44 201 41 44 202 24 44 203 41 45 204 22 45 205 23 45 206 34 46 207 24 46 208 21 46 209 22 47 210 27 47 211 23 47 212 27 48 213 29 48 214 23 48 215 28 49 216 29 49 217 27 49 218 25 50 219 26 50 220 32 50 221 26 51 222 30 51 223 32 51 224 30 52 225 31 52 226 32 52 227 28 53 228 27 53 229 25 53 230 42 54 231 44 54 232 40 54 233 40 55 234 37 55 235 42 55 236 37 56 237 36 56 238 42 56 239 35 57 240 41 57 241 43 57 242 41 58 243 34 58 244 33 58 245 43 59 246 41 59 247 33 59 248 43 60 249 38 60 250 35 60 251 39 61 252 42 61 253 36 61 254 38 62 255 39 62 256 36 62 257</p>
        </triangles>
      </mesh>
    </geometry>
  </library_geometries>
  <library_visual_scenes>
    <visual_scene id="Scene" name="Scene">
      <node id="slot_003" name="slot.003" type="NODE">
        <matrix sid="transform">1 0 0 0 0 1 0 0 0 0 1 0 0 0 0 1</matrix>
        <instance_geometry url="#Cube_006-mesh" name="slot.003"/>
      </node>
      <node id="slot_002" name="slot.002" type="NODE">
        <matrix sid="transform">1 0 0 0 0 1 0 0 0 0 1 0 0 0 0 1</matrix>
        <instance_geometry url="#Cube_004-mesh" name="slot.002"/>
      </node>
      <node id="slot_001" name="slot.001" type="NODE">
        <matrix sid="transform">1 0 0 0 0 1 0 0 0 0 1 0 0 0 0 1</matrix>
        <instance_geometry url="#Cube_002-mesh" name="slot.001"/>
      </node>
      <node id="slot" name="slot" type="NODE">
        <matrix sid="transform">1 0 0 0 0 1 0 0 0 0 1 0 0 0 0 1</matrix>
        <instance_geometry url="#Cube-mesh" name="slot"/>
      </node>
    </visual_scene>
  </library_visual_scenes>
  <scene>
    <instance_visual_scene url="#Scene"/>
  </scene>
</COLLADA>