<?xml version="1.0" encoding="utf-8"?>
<COLLADA xmlns="http://www.collada.org/2005/11/COLLADASchema" version="1.4.1" xmlns:xsi="http://www.w3.org/2001/XMLSchema-instance">
  <asset>
    <contributor>
      <author>Blender User</author>
      <authoring_tool>Blender 3.2.0 commit date:2022-06-08, commit time:10:22, hash:e05e1e369187</authoring_tool>
    </contributor>
    <created>2024-04-17T23:52:10</created>
    <modified>2024-04-17T23:52:10</modified>
    <unit name="meter" meter="1"/>
    <up_axis>Z_UP</up_axis>
  </asset>
  <library_effects>
    <effect id="default_mat-effect">
      <profile_COMMON>
        <newparam sid="basic_dice_mat_png-surface">
          <surface type="2D">
            <init_from>basic_dice_mat_png</init_from>
          </surface>
        </newparam>
        <newparam sid="basic_dice_mat_png-sampler">
          <sampler2D>
            <source>basic_dice_mat_png-surface</source>
          </sampler2D>
        </newparam>
        <technique sid="common">
          <lambert>
            <emission>
              <color sid="emission">0 0 0 1</color>
            </emission>
            <diffuse>
              <texture texture="basic_dice_mat_png-sampler" texcoord="UVMap"/>
            </diffuse>
            <index_of_refraction>
              <float sid="ior">1.45</float>
            </index_of_refraction>
          </lambert>
        </technique>
      </profile_COMMON>
    </effect>
  </library_effects>
  <library_images>
    <image id="basic_dice_mat_png" name="basic_dice_mat_png">
      <init_from>basic%20dice%20mat.png</init_from>
    </image>
  </library_images>
  <library_materials>
    <material id="default_mat-material" name="default mat">
      <instance_effect url="#default_mat-effect"/>
    </material>
  </library_materials>
  <library_geometries>
    <geometry id="Cube_001-mesh" name="Cube.001">
      <mesh>
        <source id="Cube_001-mesh-positions">
          <float_array id="Cube_001-mesh-positions-array" count="1158">-0.5 0 0 0 0.5 0 0 0 0.5 0 0 -0.5 0.5 0 0 0 -0.5 0 -0.4 0.4 0.5 -0.4 0.5 0.4 -0.5 0.4 0.4 -0.4 0.4258728 0.496595 -0.4 0.4500081 0.4865978 -0.4 0.4707106 0.4707106 -0.4258728 0.4 0.496595 -0.4258036 0.4258036 0.4931039 -0.4252288 0.4495212 0.4831333 -0.4247139 0.4685172 0.4685172 -0.4500081 0.4 0.4865978 -0.4495211 0.4252288 0.4831333 -0.4472343 0.4472343 0.4744166 -0.4450809 0.4631177 0.4631177 -0.457735 0.457735 0.457735 -0.4258728 0.496595 0.4 -0.4500081 0.4865978 0.4 -0.4707106 0.4707106 0.4 -0.4 0.496595 0.4258728 -0.4258036 0.4931039 0.4258036 -0.4495212 0.4831333 0.4252288 -0.4685172 0.4685172 0.4247139 -0.4 0.4865978 0.4500081 -0.4252288 0.4831333 0.4495211 -0.4472343 0.4744166 0.4472343 -0.4631177 0.4631177 0.4450809 -0.496595 0.4 0.4258728 -0.4865978 0.4 0.4500081 -0.4707106 0.4 0.4707106 -0.496595 0.4258728 0.4 -0.4931039 0.4258036 0.4258036 -0.4831333 0.4252288 0.4495212 -0.4685172 0.4247139 0.4685172 -0.4865978 0.4500081 0.4 -0.4831333 0.4495211 0.4252288 -0.4744166 0.4472343 0.4472343 -0.4631177 0.4450809 0.4631177 -0.4 0.5 0 -0.5 0.4 0 -0.4258819 0.4965925 0 -0.45 0.4866025 0 -0.4707106 0.4707106 0 -0.4866025 0.45 0 -0.4965925 0.4258819 0 -0.5 0 0.4 -0.4 0 0.5 -0.4965925 0 0.4258819 -0.4866025 0 0.45 -0.4707106 0 0.4707106 -0.45 0 0.4866025 -0.4258819 0 0.4965925 0 0.4 0.5 0 0.5 0.4 0 0.4258819 0.4965925 0 0.45 0.4866025 0 0.4707106 0.4707106 0 0.4866025 0.45 0 0.4965925 0.4258819 -0.4 0.4 -0.5 -0.5 0.4 -0.4 -0.4 0.5 -0.4 -0.4258728 0.4 -0.496595 -0.4500081 0.4 -0.4865978 -0.4707106 0.4 -0.4707106 -0.4 0.4258728 -0.496595 -0.4258036 0.4258036 -0.4931039 -0.4495212 0.4252288 -0.4831333 -0.4685172 0.4247139 -0.4685172 -0.4 0.4500081 -0.4865978 -0.4252288 0.4495211 -0.4831333 -0.4472343 0.4472343 -0.4744166 -0.4631177 0.4450809 -0.4631177 -0.457735 0.457735 -0.457735 -0.496595 0.4258728 -0.4 -0.4865978 0.4500081 -0.4 -0.4707106 0.4707106 -0.4 -0.496595 0.4 -0.4258728 -0.4931039 0.4258036 -0.4258036 -0.4831333 0.4495212 -0.4252288 -0.4685172 0.4685172 -0.4247139 -0.4865978 0.4 -0.4500081 -0.4831333 0.4252288 -0.4495211 -0.4744166 0.4472343 -0.4472343 -0.4631177 0.4631177 -0.4450809 -0.4 0.496595 -0.4258728 -0.4 0.4865978 -0.4500081 -0.4 0.4707106 -0.4707106 -0.4258728 0.496595 -0.4 -0.4258036 0.4931039 -0.4258036 -0.4252288 0.4831333 -0.4495212 -0.4247139 0.4685172 -0.4685172 -0.4500081 0.4865978 -0.4 -0.4495211 0.4831333 -0.4252288 -0.4472343 0.4744166 -0.4472343 -0.4450809 0.4631177 -0.4631177 -0.4 0 -0.5 -0.5 0 -0.4 -0.4258819 0 -0.4965925 -0.45 0 -0.4866025 -0.4707106 0 -0.4707106 -0.4866025 0 -0.45 -0.4965925 0 -0.4258819 0 0.5 -0.4 0 0.4 -0.5 0 0.4965925 -0.4258819 0 0.4866025 -0.45 0 0.4707106 -0.4707106 0 0.45 -0.4866025 0 0.4258819 -0.4965925 0.4 0.4 0.5 0.5 0.4 0.4 0.4 0.5 0.4 0.4258728 0.4 0.496595 0.4500081 0.4 0.4865978 0.4707106 0.4 0.4707106 0.4 0.4258728 0.496595 0.4258036 0.4258036 0.4931039 0.4495212 0.4252288 0.4831333 0.4685172 0.4247139 0.4685172 0.4 0.4500081 0.4865978 0.4252288 0.4495211 0.4831333 0.4472343 0.4472343 0.4744166 0.4631177 0.4450809 0.4631177 0.457735 0.457735 0.457735 0.496595 0.4258728 0.4 0.4865978 0.4500081 0.4 0.4707106 0.4707106 0.4 0.496595 0.4 0.4258728 0.4931039 0.4258036 0.4258036 0.4831333 0.4495212 0.4252288 0.4685172 0.4685172 0.4247139 0.4865978 0.4 0.4500081 0.4831333 0.4252288 0.4495211 0.4744166 0.4472343 0.4472343 0.4631177 0.4631177 0.4450809 0.4 0.496595 0.4258728 0.4 0.4865978 0.4500081 0.4 0.4707106 0.4707106 0.4258728 0.496595 0.4 0.4258036 0.4931039 0.4258036 0.4252288 0.4831333 0.4495212 0.4247139 0.4685172 0.4685172 0.4500081 0.4865978 0.4 0.4495211 0.4831333 0.4252288 0.4472343 0.4744166 0.4472343 0.4450809 0.4631177 0.4631177 0.5 0.4 0 0.4 0.5 0 0.4965925 0.4258819 0 0.4866025 0.45 0 0.4707106 0.4707106 0 0.45 0.4866025 0 0.4258819 0.4965925 0 0.4 0 0.5 0.5 0 0.4 0.4258819 0 0.4965925 0.45 0 0.4866025 0.4707106 0 0.4707106 0.4866025 0 0.45 0.4965925 0 0.4258819 0.4 0.4 -0.5 0.4 0.5 -0.4 0.5 0.4 -0.4 0.4 0.4258728 -0.496595 0.4 0.4500081 -0.4865978 0.4 0.4707106 -0.4707106 0.4258728 0.4 -0.496595 0.4258036 0.4258036 -0.4931039 0.4252288 0.4495212 -0.4831333 0.4247139 0.4685172 -0.4685172 0.4500081 0.4 -0.4865978 0.4495211 0.4252288 -0.4831333 0.4472343 0.4472343 -0.4744166 0.4450809 0.4631177 -0.4631177 0.457735 0.457735 -0.457735 0.4258728 0.496595 -0.4 0.4500081 0.4865978 -0.4 0.4707106 0.4707106 -0.4 0.4 0.496595 -0.4258728 0.4258036 0.4931039 -0.4258036 0.4495212 0.4831333 -0.4252288 0.4685172 0.4685172 -0.4247139 0.4 0.4865978 -0.4500081 0.4252288 0.4831333 -0.4495211 0.4472343 0.4744166 -0.4472343 0.4631177 0.4631177 -0.4450809 0.496595 0.4 -0.4258728 0.4865978 0.4 -0.4500081 0.4707106 0.4 -0.4707106 0.496595 0.4258728 -0.4 0.4931039 0.4258036 -0.4258036 0.4831333 0.4252288 -0.4495212 0.4685172 0.4247139 -0.4685172 0.4865978 0.4500081 -0.4 0.4831333 0.4495211 -0.4252288 0.4744166 0.4472343 -0.4472343 0.4631177 0.4450809 -0.4631177 0.5 0 -0.4 0.4 0 -0.5 0.4965925 0 -0.4258819 0.4866025 0 -0.45 0.4707106 0 -0.4707106 0.45 0 -0.4866025 0.4258819 0 -0.4965925 -0.4 -0.4 0.5 -0.5 -0.4 0.4 -0.4 -0.5 0.4 -0.4258728 -0.4 0.496595 -0.4500081 -0.4 0.4865978 -0.4707106 -0.4 0.4707106 -0.4 -0.4258728 0.496595 -0.4258036 -0.4258036 0.4931039 -0.4495212 -0.4252288 0.4831333 -0.4685172 -0.4247139 0.4685172 -0.4 -0.4500081 0.4865978 -0.4252288 -0.4495211 0.4831333 -0.4472343 -0.4472343 0.4744166 -0.4631177 -0.4450809 0.4631177 -0.457735 -0.457735 0.457735 -0.496595 -0.4258728 0.4 -0.4865978 -0.4500081 0.4 -0.4707106 -0.4707106 0.4 -0.496595 -0.4 0.4258728 -0.4931039 -0.4258036 0.4258036 -0.4831333 -0.4495212 0.4252288 -0.4685172 -0.4685172 0.4247139 -0.4865978 -0.4 0.4500081 -0.4831333 -0.4252288 0.4495211 -0.4744166 -0.4472343 0.4472343 -0.4631177 -0.4631177 0.4450809 -0.4 -0.496595 0.4258728 -0.4 -0.4865978 0.4500081 -0.4 -0.4707106 0.4707106 -0.4258728 -0.496595 0.4 -0.4258036 -0.4931039 0.4258036 -0.4252288 -0.4831333 0.4495212 -0.4247139 -0.4685172 0.4685172 -0.4500081 -0.4865978 0.4 -0.4495211 -0.4831333 0.4252288 -0.4472343 -0.4744166 0.4472343 -0.4450809 -0.4631177 0.4631177 -0.5 -0.4 0 -0.4 -0.5 0 -0.4965925 -0.4258819 0 -0.4866025 -0.45 0 -0.4707106 -0.4707106 0 -0.45 -0.4866025 0 -0.4258819 -0.4965925 0 0 -0.5 0.4 0 -0.4 0.5 0 -0.4965925 0.4258819 0 -0.4866025 0.45 0 -0.4707106 0.4707106 0 -0.45 0.4866025 0 -0.4258819 0.4965925 -0.4 -0.4 -0.5 -0.4 -0.5 -0.4 -0.5 -0.4 -0.4 -0.4 -0.4258728 -0.496595 -0.4 -0.4500081 -0.4865978 -0.4 -0.4707106 -0.4707106 -0.4258728 -0.4 -0.496595 -0.4258036 -0.4258036 -0.4931039 -0.4252288 -0.4495212 -0.4831333 -0.4247139 -0.4685172 -0.4685172 -0.4500081 -0.4 -0.4865978 -0.4495211 -0.4252288 -0.4831333 -0.4472343 -0.4472343 -0.4744166 -0.4450809 -0.4631177 -0.4631177 -0.457735 -0.457735 -0.457735 -0.4258728 -0.496595 -0.4 -0.4500081 -0.4865978 -0.4 -0.4707106 -0.4707106 -0.4 -0.4 -0.496595 -0.4258728 -0.4258036 -0.4931039 -0.4258036 -0.4495212 -0.4831333 -0.4252288 -0.4685172 -0.4685172 -0.4247139 -0.4 -0.4865978 -0.4500081 -0.4252288 -0.4831333 -0.4495211 -0.4472343 -0.4744166 -0.4472343 -0.4631177 -0.4631177 -0.4450809 -0.496595 -0.4 -0.4258728 -0.4865978 -0.4 -0.4500081 -0.4707106 -0.4 -0.4707106 -0.496595 -0.4258728 -0.4 -0.4931039 -0.4258036 -0.4258036 -0.4831333 -0.4252288 -0.4495212 -0.4685172 -0.4247139 -0.4685172 -0.4865978 -0.4500081 -0.4 -0.4831333 -0.4495211 -0.4252288 -0.4744166 -0.4472343 -0.4472343 -0.4631177 -0.4450809 -0.4631177 0 -0.4 -0.5 0 -0.5 -0.4 0 -0.4258819 -0.4965925 0 -0.45 -0.4866025 0 -0.4707106 -0.4707106 0 -0.4866025 -0.45 0 -0.4965925 -0.4258819 0.4 -0.4 0.5 0.4 -0.5 0.4 0.5 -0.4 0.4 0.4 -0.4258728 0.496595 0.4 -0.4500081 0.4865978 0.4 -0.4707106 0.4707106 0.4258728 -0.4 0.496595 0.4258036 -0.4258036 0.4931039 0.4252288 -0.4495212 0.4831333 0.4247139 -0.4685172 0.4685172 0.4500081 -0.4 0.4865978 0.4495211 -0.4252288 0.4831333 0.4472343 -0.4472343 0.4744166 0.4450809 -0.4631177 0.4631177 0.457735 -0.457735 0.457735 0.4258728 -0.496595 0.4 0.4500081 -0.4865978 0.4 0.4707106 -0.4707106 0.4 0.4 -0.496595 0.4258728 0.4258036 -0.4931039 0.4258036 0.4495212 -0.4831333 0.4252288 0.4685172 -0.4685172 0.4247139 0.4 -0.4865978 0.4500081 0.4252288 -0.4831333 0.4495211 0.4472343 -0.4744166 0.4472343 0.4631177 -0.4631177 0.4450809 0.496595 -0.4 0.4258728 0.4865978 -0.4 0.4500081 0.4707106 -0.4 0.4707106 0.496595 -0.4258728 0.4 0.4931039 -0.4258036 0.4258036 0.4831333 -0.4252288 0.4495212 0.4685172 -0.4247139 0.4685172 0.4865978 -0.4500081 0.4 0.4831333 -0.4495211 0.4252288 0.4744166 -0.4472343 0.4472343 0.4631177 -0.4450809 0.4631177 0.4 -0.5 0 0.5 -0.4 0 0.4258819 -0.4965925 0 0.45 -0.4866025 0 0.4707106 -0.4707106 0 0.4866025 -0.45 0 0.4965925 -0.4258819 0 0.4 -0.4 -0.5 0.5 -0.4 -0.4 0.4 -0.5 -0.4 0.4258728 -0.4 -0.496595 0.4500081 -0.4 -0.4865978 0.4707106 -0.4 -0.4707106 0.4 -0.4258728 -0.496595 0.4258036 -0.4258036 -0.4931039 0.4495212 -0.4252288 -0.4831333 0.4685172 -0.4247139 -0.4685172 0.4 -0.4500081 -0.4865978 0.4252288 -0.4495211 -0.4831333 0.4472343 -0.4472343 -0.4744166 0.4631177 -0.4450809 -0.4631177 0.457735 -0.457735 -0.457735 0.496595 -0.4258728 -0.4 0.4865978 -0.4500081 -0.4 0.4707106 -0.4707106 -0.4 0.496595 -0.4 -0.4258728 0.4931039 -0.4258036 -0.4258036 0.4831333 -0.4495212 -0.4252288 0.4685172 -0.4685172 -0.4247139 0.4865978 -0.4 -0.4500081 0.4831333 -0.4252288 -0.4495211 0.4744166 -0.4472343 -0.4472343 0.4631177 -0.4631177 -0.4450809 0.4 -0.496595 -0.4258728 0.4 -0.4865978 -0.4500081 0.4 -0.4707106 -0.4707106 0.4258728 -0.496595 -0.4 0.4258036 -0.4931039 -0.4258036 0.4252288 -0.4831333 -0.4495212 0.4247139 -0.4685172 -0.4685172 0.4500081 -0.4865978 -0.4 0.4495211 -0.4831333 -0.4252288 0.4472343 -0.4744166 -0.4472343 0.4450809 -0.4631177 -0.4631177</float_array>
          <technique_common>
            <accessor source="#Cube_001-mesh-positions-array" count="386" stride="3">
              <param name="X" type="float"/>
              <param name="Y" type="float"/>
              <param name="Z" type="float"/>
            </accessor>
          </technique_common>
        </source>
        <source id="Cube_001-mesh-normals">
          <float_array id="Cube_001-mesh-normals-array" count="1158">-0.065068 0.9957572 -0.06506806 0 1 0 0 0.9978591 -0.06540143 -0.9957572 0.06506806 0.065068 -1 0 0 -0.997859 0 0.06540274 0 0.06540274 0.997859 -0.06540143 0 0.997859 0 0 1 -0.9957572 -0.06506806 -0.065068 -0.997859 0 -0.06540274 -0.9957572 0.06506806 -0.065068 -0.9957572 -0.06506806 0.065068 -0.06540143 0 -0.997859 0 0.06540274 -0.997859 0 0 -1 0.06540143 0 0.997859 0.9957572 0.06506806 -0.065068 1 0 0 0.997859 0 -0.06540274 0.9957572 0.06506806 0.065068 0.997859 0 0.06540274 0.06540143 0 -0.997859 0.9957572 -0.06506806 0.065068 0.065068 0.9957572 0.06506806 0 0.9978591 0.06540143 0 -1 0 -0.065068 -0.9957572 -0.06506806 0 -0.9978591 -0.06540143 0 -0.06540274 0.997859 0.065068 0.9957572 -0.06506806 0.065068 -0.9957572 0.06506806 0 -0.9978591 0.06540143 0 -0.06540274 -0.997859 0.9957572 -0.06506806 -0.065068 0.065068 -0.9957572 -0.06506806 -0.065068 -0.9957572 0.06506806 -0.06444489 0.2574789 0.9641326 -0.2574787 0.06444483 0.9641327 -0.06506806 0.065068 0.9957572 -0.06256508 0.4981265 0.8648443 -0.2556869 0.2556862 0.9323351 -0.06111896 0.705785 0.7057846 -0.245477 0.4908091 0.8359711 -0.4981259 0.06256556 0.8648446 -0.490809 0.2454772 0.8359711 -0.4271836 0.6393409 0.6393414 -0.4602473 0.4602493 0.7591726 -0.7057846 0.06111896 0.705785 -0.6393415 0.4271836 0.6393409 -0.6871779 0.2357439 0.6871764 -0.5773503 0.5773503 0.5773503 -0.2574789 0.9641326 0.06444489 -0.06444483 0.9641327 0.2574787 -0.065068 0.9957572 0.06506806 -0.4981265 0.8648444 0.06256508 -0.2556862 0.9323351 0.255687 -0.705785 0.7057847 0.06111896 -0.490809 0.8359711 0.245477 -0.06256556 0.8648446 0.498126 -0.2454772 0.8359711 0.490809 -0.6393409 0.6393414 0.4271836 -0.4602493 0.7591726 0.4602473 -0.2357439 0.6871764 0.6871779 -0.9641325 0.06444495 0.2574789 -0.9641327 0.2574787 0.06444483 -0.8648444 0.06256508 0.4981265 -0.9323351 0.2556869 0.2556862 -0.8359711 0.245477 0.490809 -0.8648446 0.498126 0.06256556 -0.8359711 0.490809 0.2454772 -0.7591726 0.4602473 0.4602493 -0.6871764 0.6871779 0.2357439 -0.2574787 0.06444501 -0.9641326 -0.06444483 0.2574791 -0.9641325 -0.06506806 0.065068 -0.9957572 -0.4981262 0.0625655 -0.8648445 -0.2556869 0.2556869 -0.9323349 -0.7057849 0.06111896 -0.7057849 -0.4908092 0.245477 -0.8359709 -0.06256538 0.4981267 -0.8648442 -0.2454771 0.4908092 -0.8359709 -0.639341 0.4271832 -0.6393415 -0.4602476 0.460249 -0.7591726 -0.06111896 0.7057849 -0.7057848 -0.4271833 0.6393416 -0.639341 -0.2357442 0.6871765 -0.6871777 -0.5773503 0.5773503 -0.5773503 -0.9641327 0.2574787 -0.06444495 -0.9641325 0.06444478 -0.2574791 -0.8648445 0.4981262 -0.06256544 -0.9323349 0.2556869 -0.2556869 -0.7057849 0.7057849 -0.06111896 -0.8359709 0.4908092 -0.245477 -0.8648443 0.06256538 -0.4981267 -0.8359709 0.2454771 -0.4908092 -0.6393416 0.639341 -0.4271833 -0.7591726 0.4602476 -0.460249 -0.6871777 0.2357442 -0.6871765 -0.06444495 0.9641326 -0.2574787 -0.2574791 0.9641325 -0.06444478 -0.06256544 0.8648445 -0.4981262 -0.2556869 0.9323349 -0.2556869 -0.245477 0.8359709 -0.4908092 -0.4981266 0.8648442 -0.06256538 -0.4908092 0.8359709 -0.2454771 -0.460249 0.7591726 -0.4602476 -0.6871765 0.6871777 -0.2357442 0.2574787 0.06444501 0.9641326 0.06444483 0.2574791 0.9641325 0.06506806 0.065068 0.9957572 0.4981262 0.0625655 0.8648445 0.2556869 0.2556869 0.9323349 0.7057849 0.06111896 0.7057849 0.4908092 0.245477 0.8359709 0.06256538 0.4981267 0.8648442 0.2454771 0.4908092 0.8359709 0.639341 0.4271832 0.6393415 0.4602476 0.460249 0.7591726 0.06111896 0.7057849 0.7057848 0.4271833 0.6393416 0.639341 0.2357442 0.6871765 0.6871777 0.5773503 0.5773503 0.5773503 0.9641327 0.2574787 0.06444495 0.9641325 0.06444478 0.2574791 0.8648445 0.4981262 0.06256544 0.9323349 0.2556869 0.2556869 0.7057849 0.7057849 0.06111896 0.8359709 0.4908092 0.245477 0.8648443 0.06256538 0.4981267 0.8359709 0.2454771 0.4908092 0.6393416 0.639341 0.4271833 0.7591726 0.4602476 0.460249 0.6871777 0.2357442 0.6871765 0.06444495 0.9641326 0.2574787 0.2574791 0.9641325 0.06444478 0.06256544 0.8648445 0.4981262 0.2556869 0.9323349 0.2556869 0.245477 0.8359709 0.4908092 0.4981266 0.8648442 0.06256538 0.4908092 0.8359709 0.2454771 0.460249 0.7591726 0.4602476 0.6871765 0.6871777 0.2357442 0.06444489 0.2574789 -0.9641326 0.2574787 0.06444483 -0.9641327 0.06506806 0.065068 -0.9957572 0.06256508 0.4981265 -0.8648443 0.2556869 0.2556862 -0.9323351 0.06111896 0.705785 -0.7057846 0.245477 0.4908091 -0.8359711 0.4981259 0.06256556 -0.8648446 0.490809 0.2454772 -0.8359711 0.4271836 0.6393409 -0.6393414 0.4602473 0.4602493 -0.7591726 0.7057846 0.06111896 -0.705785 0.6393415 0.4271836 -0.6393409 0.6871779 0.2357439 -0.6871764 0.5773503 0.5773503 -0.5773503 0.2574789 0.9641326 -0.06444489 0.06444483 0.9641327 -0.2574787 0.4981265 0.8648444 -0.06256508 0.2556862 0.9323351 -0.255687 0.705785 0.7057847 -0.06111896 0.490809 0.8359711 -0.245477 0.06256556 0.8648446 -0.498126 0.2454772 0.8359711 -0.490809 0.6393409 0.6393414 -0.4271836 0.4602493 0.7591726 -0.4602473 0.2357439 0.6871764 -0.6871779 0.9641325 0.06444495 -0.2574789 0.9641327 0.2574787 -0.06444483 0.8648444 0.06256508 -0.4981265 0.9323351 0.2556869 -0.2556862 0.8359711 0.245477 -0.490809 0.8648446 0.498126 -0.06256556 0.8359711 0.490809 -0.2454772 0.7591726 0.4602473 -0.4602493 0.6871764 0.6871779 -0.2357439 -0.2574787 -0.06444501 0.9641326 -0.06444483 -0.2574791 0.9641325 -0.06506806 -0.065068 0.9957572 -0.4981262 -0.0625655 0.8648445 -0.2556869 -0.2556869 0.9323349 -0.7057849 -0.06111896 0.7057849 -0.4908092 -0.245477 0.8359709 -0.06256538 -0.4981267 0.8648442 -0.2454771 -0.4908092 0.8359709 -0.639341 -0.4271832 0.6393415 -0.4602476 -0.460249 0.7591726 -0.06111896 -0.7057849 0.7057848 -0.4271833 -0.6393416 0.639341 -0.2357442 -0.6871765 0.6871777 -0.5773503 -0.5773503 0.5773503 -0.9641327 -0.2574787 0.06444495 -0.9641325 -0.06444478 0.2574791 -0.8648445 -0.4981262 0.06256544 -0.9323349 -0.2556869 0.2556869 -0.7057849 -0.7057849 0.06111896 -0.8359709 -0.4908092 0.245477 -0.8648443 -0.06256538 0.4981267 -0.8359709 -0.2454771 0.4908092 -0.6393416 -0.639341 0.4271833 -0.7591726 -0.4602476 0.460249 -0.6871777 -0.2357442 0.6871765 -0.06444495 -0.9641326 0.2574787 -0.2574791 -0.9641325 0.06444478 -0.06256544 -0.8648445 0.4981262 -0.2556869 -0.9323349 0.2556869 -0.245477 -0.8359709 0.4908092 -0.4981266 -0.8648442 0.06256538 -0.4908092 -0.8359709 0.2454771 -0.460249 -0.7591726 0.4602476 -0.6871765 -0.6871777 0.2357442 -0.06444489 -0.2574789 -0.9641326 -0.2574787 -0.06444483 -0.9641327 -0.06506806 -0.065068 -0.9957572 -0.06256508 -0.4981265 -0.8648443 -0.2556869 -0.2556862 -0.9323351 -0.06111896 -0.705785 -0.7057846 -0.245477 -0.4908091 -0.8359711 -0.4981259 -0.06256556 -0.8648446 -0.490809 -0.2454772 -0.8359711 -0.4271836 -0.6393409 -0.6393414 -0.4602473 -0.4602493 -0.7591726 -0.7057846 -0.06111896 -0.705785 -0.6393415 -0.4271836 -0.6393409 -0.6871779 -0.2357439 -0.6871764 -0.5773503 -0.5773503 -0.5773503 -0.2574789 -0.9641326 -0.06444489 -0.06444483 -0.9641327 -0.2574787 -0.4981265 -0.8648444 -0.06256508 -0.2556862 -0.9323351 -0.255687 -0.705785 -0.7057847 -0.06111896 -0.490809 -0.8359711 -0.245477 -0.06256556 -0.8648446 -0.498126 -0.2454772 -0.8359711 -0.490809 -0.6393409 -0.6393414 -0.4271836 -0.4602493 -0.7591726 -0.4602473 -0.2357439 -0.6871764 -0.6871779 -0.9641325 -0.06444495 -0.2574789 -0.9641327 -0.2574787 -0.06444483 -0.8648444 -0.06256508 -0.4981265 -0.9323351 -0.2556869 -0.2556862 -0.8359711 -0.245477 -0.490809 -0.8648446 -0.498126 -0.06256556 -0.8359711 -0.490809 -0.2454772 -0.7591726 -0.4602473 -0.4602493 -0.6871764 -0.6871779 -0.2357439 0.06444489 -0.2574789 0.9641326 0.2574787 -0.06444483 0.9641327 0.06506806 -0.065068 0.9957572 0.06256508 -0.4981265 0.8648443 0.2556869 -0.2556862 0.9323351 0.06111896 -0.705785 0.7057846 0.245477 -0.4908091 0.8359711 0.4981259 -0.06256556 0.8648446 0.490809 -0.2454772 0.8359711 0.4271836 -0.6393409 0.6393414 0.4602473 -0.4602493 0.7591726 0.7057846 -0.06111896 0.705785 0.6393415 -0.4271836 0.6393409 0.6871779 -0.2357439 0.6871764 0.5773503 -0.5773503 0.5773503 0.2574789 -0.9641326 0.06444489 0.06444483 -0.9641327 0.2574787 0.4981265 -0.8648444 0.06256508 0.2556862 -0.9323351 0.255687 0.705785 -0.7057847 0.06111896 0.490809 -0.8359711 0.245477 0.06256556 -0.8648446 0.498126 0.2454772 -0.8359711 0.490809 0.6393409 -0.6393414 0.4271836 0.4602493 -0.7591726 0.4602473 0.2357439 -0.6871764 0.6871779 0.9641325 -0.06444495 0.2574789 0.9641327 -0.2574787 0.06444483 0.8648444 -0.06256508 0.4981265 0.9323351 -0.2556869 0.2556862 0.8359711 -0.245477 0.490809 0.8648446 -0.498126 0.06256556 0.8359711 -0.490809 0.2454772 0.7591726 -0.4602473 0.4602493 0.6871764 -0.6871779 0.2357439 0.2574787 -0.06444501 -0.9641326 0.06444483 -0.2574791 -0.9641325 0.06506806 -0.065068 -0.9957572 0.4981262 -0.0625655 -0.8648445 0.2556869 -0.2556869 -0.9323349 0.7057849 -0.06111896 -0.7057849 0.4908092 -0.245477 -0.8359709 0.06256538 -0.4981267 -0.8648442 0.2454771 -0.4908092 -0.8359709 0.639341 -0.4271832 -0.6393415 0.4602476 -0.460249 -0.7591726 0.06111896 -0.7057849 -0.7057848 0.4271833 -0.6393416 -0.639341 0.2357442 -0.6871765 -0.6871777 0.5773503 -0.5773503 -0.5773503 0.9641327 -0.2574787 -0.06444495 0.9641325 -0.06444478 -0.2574791 0.8648445 -0.4981262 -0.06256544 0.9323349 -0.2556869 -0.2556869 0.7057849 -0.7057849 -0.06111896 0.8359709 -0.4908092 -0.245477 0.8648443 -0.06256538 -0.4981267 0.8359709 -0.2454771 -0.4908092 0.6393416 -0.639341 -0.4271833 0.7591726 -0.4602476 -0.460249 0.6871777 -0.2357442 -0.6871765 0.06444495 -0.9641326 -0.2574787 0.2574791 -0.9641325 -0.06444478 0.06256544 -0.8648445 -0.4981262 0.2556869 -0.9323349 -0.2556869 0.245477 -0.8359709 -0.4908092 0.4981266 -0.8648442 -0.06256538 0.4908092 -0.8359709 -0.2454771 0.460249 -0.7591726 -0.4602476 0.6871765 -0.6871777 -0.2357442 0 0.9659253 0.2588213 0 0.8660256 0.4999997 0 0.7071067 0.7071069 0 0.4999986 0.8660263 0 0.2588214 0.9659253 -0.06540274 0.997859 0 -0.2588214 0.9659252 0 -0.7071067 0.7071069 0 -0.8660256 0.4999998 0 -0.9978591 0.06540143 0 -0.9659252 0 0.2588214 -0.7071069 0 0.7071067 -0.4999998 0 0.8660256 0 0.2588214 -0.9659252 0 0.4999986 -0.8660263 0 0.7071067 -0.7071069 0 0.8660256 -0.4999997 0 0.9659253 -0.2588213 -0.9659253 0.2588213 0 -0.4999986 0.8660263 0 -0.2588213 0 -0.9659253 -0.7071069 0 -0.7071067 -0.8660264 0 -0.4999986 0.9978591 0.06540143 0 0.9659252 0.2588213 0 0.7071067 0.7071069 0 0.4999986 0.8660264 0 0.06540274 0.997859 0 0.2588213 0 0.9659253 0.7071069 0 0.7071067 0.8660264 0 0.4999986 0.2588214 0.9659252 0 0.8660256 0.4999998 0 0.9659252 0 -0.2588214 0.7071069 0 -0.7071067 0.4999998 0 -0.8660256 0 -0.2588214 0.9659252 0 -0.4999986 0.8660263 0 -0.7071067 0.7071069 0 -0.8660256 0.4999997 0 -0.9659253 0.2588213 -0.9978591 -0.06540143 0 -0.9659252 -0.2588213 0 -0.7071067 -0.7071069 0 -0.4999986 -0.8660264 0 -0.06540274 -0.997859 0 -0.2588213 0 0.9659253 -0.8660263 0 0.4999986 0 -0.9659253 -0.2588213 0 -0.8660256 -0.4999997 0 -0.7071067 -0.7071069 0 -0.4999986 -0.8660263 0 -0.2588214 -0.9659253 -0.2588214 -0.9659252 0 -0.8660256 -0.4999998 0 -0.9659252 0 -0.2588214 -0.4999998 0 -0.8660256 0.06540274 -0.997859 0 0.2588214 -0.9659252 0 0.7071067 -0.7071069 0 0.8660256 -0.4999998 0 0.9978591 -0.06540143 0 0.9659252 0 0.2588214 0.4999998 0 0.8660256 0.9659253 -0.2588213 0 0.4999986 -0.8660263 0 0.2588213 0 -0.9659253 0.8660263 0 -0.4999986</float_array>
          <technique_common>
            <accessor source="#Cube_001-mesh-normals-array" count="386" stride="3">
              <param name="X" type="float"/>
              <param name="Y" type="float"/>
              <param name="Z" type="float"/>
            </accessor>
          </technique_common>
        </source>
        <source id="Cube_001-mesh-map-0">
          <float_array id="Cube_001-mesh-map-0-array" count="4608">0.360733 0.6946207 0.499996 0.8334594 0.3608925 0.8336668 0.6392651 0.6388846 0.5000023 0.5000458 0.6391058 0.4998385 0.8330612 0.639123 0.6942207 0.4997527 0.8333269 0.5000177 0.3607016 0.361205 0.5000023 0.5000458 0.3608987 0.5002732 0.5000023 0.5000458 0.3611739 0.6393192 0.3608987 0.5002732 0.5000023 0.5000458 0.6388683 0.3607704 0.6391058 0.4998385 0.3057736 0.4997527 0.1669332 0.6391231 0.1666674 0.5000177 0.9724332 0.5002827 0.8330612 0.639123 0.8333269 0.5000177 0.9721928 0.3059222 0.8333267 0.1666467 0.9724302 0.166854 0.8333267 0.1666467 0.6940261 0.3054876 0.6942232 0.1664195 0.1669332 0.6391231 0.02756112 0.5002828 0.1666674 0.5000177 0.6944983 0.02737349 0.8333267 0.1666467 0.6942232 0.1664195 0.6392967 0.9723001 0.499996 0.8334594 0.6390996 0.8332319 0.500002 0.1666508 0.3607013 0.3054916 0.3608984 0.1664234 0.6942207 0.4997527 0.8335927 0.3609123 0.8333269 0.5000177 0.499996 0.8334594 0.3611301 0.9727349 0.3608925 0.8336668 0.500002 0.1666508 0.6392649 0.02781212 0.6391055 0.1668582 0.1664016 0.3609123 0.3057736 0.4997527 0.1666674 0.5000177 0.8333267 0.1666467 0.9725896 0.02780789 0.9724302 0.166854 0.3611737 0.02737754 0.500002 0.1666508 0.3608984 0.1664234 0.8335927 0.3609123 0.9724332 0.5002827 0.8333269 0.5000177 0.638868 0.3059263 0.500002 0.1666508 0.6391055 0.1668582 0.02756112 0.5002828 0.1664016 0.3609123 0.1666674 0.5000177 0.6938886 0.6477338 0.6850801 0.6388918 0.6940034 0.6388108 0.6935939 0.6567322 0.6850459 0.6477345 0.6938886 0.6477338 0.6931985 0.6659321 0.684695 0.6565854 0.6935939 0.6567322 0.6850459 0.6477345 0.6760806 0.6391524 0.6850801 0.6388918 0.684695 0.6565854 0.6761937 0.6480518 0.6850459 0.6477345 0.684695 0.6565854 0.6759054 0.6637088 0.6762608 0.6564863 0.6761937 0.6480518 0.6668793 0.639513 0.6760806 0.6391524 0.6761937 0.6480518 0.669037 0.6568144 0.6675939 0.6487543 0.6762608 0.6564863 0.6704291 0.6622959 0.669037 0.6568144 0.6389074 0.6852635 0.6477464 0.6940733 0.6388242 0.6941861 0.6391702 0.676265 0.6477493 0.6852316 0.6389074 0.6852635 0.639533 0.6670646 0.6480688 0.6763802 0.6391702 0.676265 0.6477493 0.6852316 0.656744 0.693781 0.6477464 0.6940733 0.6480688 0.6763802 0.6565994 0.6848828 0.6477493 0.6852316 0.6480688 0.6763802 0.6568323 0.6692264 0.6565025 0.6764494 0.6565994 0.6848828 0.665943 0.6933879 0.656744 0.693781 0.6565994 0.6848828 0.6637243 0.6760959 0.6651958 0.68415 0.6565025 0.6764494 0.662313 0.6706197 0.6637243 0.6760959 0.6481876 0.6389694 0.6393762 0.6478068 0.6392651 0.6388846 0.657186 0.6392337 0.648218 0.6478111 0.6481876 0.6389694 0.6663861 0.639598 0.6570693 0.6481322 0.657186 0.6392337 0.648218 0.6478111 0.6396672 0.6568044 0.6393762 0.6478068 0.6570693 0.6481322 0.6485652 0.6566613 0.648218 0.6478111 0.6570693 0.6481322 0.6642215 0.6568968 0.6569987 0.6565658 0.6485652 0.6566613 0.6400586 0.6660036 0.6396672 0.6568044 0.6485652 0.6566613 0.6573511 0.6637877 0.6492968 0.6652578 0.6569987 0.6565658 0.6628273 0.6623772 0.6573511 0.6637877 0.3149143 0.6388918 0.3061057 0.6477338 0.3059909 0.6388108 0.3239137 0.6391524 0.3149484 0.6477345 0.3149143 0.6388918 0.333115 0.6395129 0.3238007 0.6480519 0.3239137 0.6391524 0.3149484 0.6477345 0.3064005 0.6567322 0.3061057 0.6477338 0.3238007 0.6480519 0.3152994 0.6565855 0.3149484 0.6477345 0.3238007 0.6480519 0.3309574 0.6568144 0.3237336 0.6564864 0.3152994 0.6565855 0.3067958 0.6659321 0.3064005 0.6567322 0.3152994 0.6565855 0.3240891 0.6637088 0.3160345 0.6651825 0.3237336 0.6564864 0.3295652 0.6622959 0.3240891 0.6637088 0.3610907 0.6482416 0.3522518 0.6394318 0.3611739 0.6393192 0.3608279 0.6572403 0.352249 0.6482737 0.3610907 0.6482416 0.3604652 0.6664406 0.3519294 0.657125 0.3608279 0.6572403 0.352249 0.6482737 0.3432543 0.6397243 0.3522518 0.6394318 0.3519294 0.657125 0.3433988 0.6486224 0.352249 0.6482737 0.3519294 0.657125 0.3431659 0.6642788 0.3434957 0.6570557 0.3433988 0.6486224 0.3340553 0.6401173 0.3432543 0.6397243 0.3433988 0.6486224 0.3362739 0.6574093 0.3348024 0.6493552 0.3434957 0.6570557 0.3376852 0.6628854 0.3362739 0.6574093 0.3518106 0.694536 0.360622 0.6856985 0.360733 0.6946207 0.3428122 0.6942717 0.3517802 0.6856942 0.3518106 0.694536 0.333612 0.6939074 0.342929 0.6853732 0.3428122 0.6942717 0.3517802 0.6856942 0.3603311 0.6767009 0.360622 0.6856985 0.342929 0.6853732 0.3514329 0.676844 0.3517802 0.6856942 0.342929 0.6853732 0.3357766 0.6766086 0.3429995 0.6769395 0.3514329 0.676844 0.3599396 0.6675017 0.3603311 0.6767009 0.3514329 0.676844 0.3426471 0.6697176 0.3507015 0.6682475 0.3429995 0.6769395 0.3371708 0.6711281 0.3426471 0.6697176 0.9810597 0.6394706 0.9722082 0.6482796 0.9721289 0.6393512 0.9900659 0.6397714 0.9810559 0.6483185 0.9810597 0.6394706 0.9992746 0.6401742 0.9899122 0.648676 0.9900659 0.6397714 0.9810559 0.6483185 0.9724661 0.6572823 0.9722082 0.6482796 0.9899122 0.648676 0.9813684 0.6571745 0.9810559 0.6483185 0.9899122 0.648676 0.9970319 0.6574763 0.9898064 0.657114 0.9813684 0.6571745 0.9728233 0.6664853 0.9724661 0.6572823 0.9813684 0.6571745 0.9901285 0.6643402 0.9820654 0.6657767 0.9898064 0.657114 0.9956131 0.662953 0.9901285 0.6643402 0.6939109 0.3144174 0.6850906 0.3055689 0.6940261 0.3054876 0.6936183 0.3234218 0.6850588 0.3144208 0.6939109 0.3144174 0.6932271 0.3326266 0.6847116 0.3232802 0.6936183 0.3234218 0.6850588 0.3144208 0.676078 0.3058311 0.6850906 0.3055689 0.6847116 0.3232802 0.6761953 0.3147424 0.6850588 0.3144208 0.6847116 0.3232802 0.6759183 0.3304172 0.6762681 0.3231868 0.6761953 0.3147424 0.6668612 0.306194 0.676078 0.3058311 0.6761953 0.3147424 0.6690354 0.323521 0.6675834 0.3154509 0.6762681 0.3231868 0.6704344 0.3290079 0.6690354 0.323521 0.6482321 0.9723813 0.6394119 0.9812299 0.6392967 0.9723001 0.6572448 0.9726436 0.6482641 0.9812332 0.6482321 0.9723813 0.6664616 0.9730064 0.6571274 0.9815548 0.6572448 0.9726436 0.6482641 0.9812332 0.6397045 0.9902343 0.6394119 0.9812299 0.6571274 0.9815548 0.6486112 0.9900926 0.6482641 0.9812332 0.6571274 0.9815548 0.6642875 0.9903334 0.6570547 0.9899992 0.6486112 0.9900926 0.6400957 0.999439 0.6397045 0.9902343 0.6486112 0.9900926 0.6574044 0.9972296 0.6493408 0.9986971 0.6570547 0.9899992 0.6628884 0.9958203 0.6574044 0.9972296 0.02778607 0.6482796 0.01893466 0.6394707 0.02786546 0.6393513 0.02752822 0.6572824 0.01893842 0.6483185 0.02778607 0.6482796 0.02717107 0.6664853 0.01862591 0.6571746 0.02752822 0.6572824 0.01893842 0.6483185 0.009928405 0.6397714 0.01893466 0.6394707 0.01862591 0.6571746 0.01008206 0.648676 0.01893842 0.6483185 0.01862591 0.6571746 0.00986588 0.6643403 0.01018792 0.657114 0.01008206 0.648676 7.19756e-4 0.6401743 0.009928405 0.6397714 0.01008206 0.648676 0.002962529 0.6574763 0.001479923 0.6494193 0.01018792 0.657114 0.004381239 0.6629531 0.002962529 0.6574763 0.3610427 0.981665 0.352195 0.9728441 0.3611301 0.9727349 0.3607783 0.9906703 0.3521907 0.981696 0.3610427 0.981665 0.3604159 0.9998763 0.3518713 0.9905565 0.3607783 0.9906703 0.3521907 0.981696 0.3431832 0.9731345 0.352195 0.9728441 0.3518713 0.9905565 0.3433283 0.9820454 0.3521907 0.981696 0.3518713 0.9905565 0.3431003 0.997721 0.3434275 0.9904896 0.3433283 0.9820454 0.3339675 0.9735261 0.3431832 0.9731345 0.3433283 0.9820454 0.3361958 0.9908464 0.3347185 0.9827808 0.3434275 0.9904896 0.3376119 0.9963288 0.3361958 0.9908464 0.9811279 0.3060314 0.9722801 0.3148523 0.9721928 0.3059222 0.9901396 0.3063217 0.9811322 0.3148833 0.9811279 0.3060314 0.9993553 0.3067134 0.9899945 0.3152326 0.9901396 0.3063217 0.9811322 0.3148833 0.9725445 0.3238575 0.9722801 0.3148523 0.9899945 0.3152326 0.9814516 0.3237437 0.9811322 0.3148833 0.9899945 0.3152326 0.997127 0.3240335 0.9898954 0.3236767 0.9814516 0.3237437 0.9729069 0.3330634 0.9725445 0.3238575 0.9814516 0.3237437 0.9902225 0.3309081 0.9821542 0.3323505 0.9898954 0.3236767 0.9957108 0.329516 0.9902225 0.3309081 0.6855942 0.3605647 0.6944456 0.3517558 0.694525 0.3606842 0.6765879 0.360264 0.685598 0.3517169 0.6855942 0.3605647 0.6673793 0.3598611 0.6767416 0.3513594 0.6765879 0.360264 0.685598 0.3517169 0.6941878 0.3427531 0.6944456 0.3517558 0.6767416 0.3513594 0.6852855 0.3428608 0.685598 0.3517169 0.6767416 0.3513594 0.669622 0.342559 0.6768475 0.3429214 0.6852855 0.3428608 0.6938306 0.3335501 0.6941878 0.3427531 0.6852855 0.3428608 0.6765254 0.3356951 0.6845884 0.3342586 0.6768475 0.3429214 0.6710408 0.3370823 0.6765254 0.3356951 0.6389556 0.3518403 0.6478034 0.3606612 0.6388683 0.3607704 0.63922 0.342835 0.6478077 0.3518092 0.6389556 0.3518403 0.6395824 0.333629 0.6481271 0.3429488 0.63922 0.342835 0.6478077 0.3518092 0.6568151 0.3603708 0.6478034 0.3606612 0.6481271 0.3429488 0.65667 0.35146 0.6478077 0.3518092 0.6481271 0.3429488 0.656898 0.3357843 0.6565709 0.3430158 0.65667 0.35146 0.6660308 0.3599792 0.6568151 0.3603708 0.65667 0.35146 0.6638025 0.342659 0.6652798 0.3507245 0.6565709 0.3430158 0.6623864 0.3371765 0.6638025 0.342659 0.6478031 0.3060355 0.6389553 0.3148564 0.638868 0.3059263 0.6568149 0.3063258 0.6478074 0.3148874 0.6478031 0.3060355 0.6660305 0.3067175 0.6566697 0.3152367 0.6568149 0.3063258 0.6478074 0.3148874 0.6392198 0.3238616 0.6389553 0.3148564 0.6566697 0.3152367 0.6481268 0.3237478 0.6478074 0.3148874 0.6566697 0.3152367 0.6638022 0.3240376 0.6565706 0.3236808 0.6481268 0.3237478 0.6395822 0.3330676 0.6392198 0.3238616 0.6481268 0.3237478 0.6568977 0.3309122 0.6488295 0.3323546 0.6565706 0.3236808 0.6623861 0.3295202 0.6568977 0.3309122 0.3055487 0.3517558 0.3144001 0.3605647 0.3054693 0.3606842 0.3058065 0.3427531 0.3143963 0.3517169 0.3055487 0.3517558 0.3061637 0.3335501 0.3147088 0.3428608 0.3058065 0.3427531 0.3143963 0.3517169 0.3234063 0.360264 0.3144001 0.3605647 0.3147088 0.3428608 0.3232527 0.3513594 0.3143963 0.3517169 0.3147088 0.3428608 0.3234689 0.3356951 0.3231468 0.3429214 0.3232527 0.3513594 0.332615 0.3598611 0.3234063 0.360264 0.3232527 0.3513594 0.3303722 0.3425591 0.3318548 0.3506161 0.3231468 0.3429214 0.3289535 0.3370823 0.3303722 0.3425591 0.3605862 0.3144214 0.3517659 0.3055729 0.3607013 0.3054916 0.3602936 0.3234258 0.351734 0.3144248 0.3605862 0.3144214 0.3599025 0.3326306 0.3513869 0.3232842 0.3602936 0.3234258 0.351734 0.3144248 0.3427532 0.3058351 0.3517659 0.3055729 0.3513869 0.3232842 0.3428705 0.3147464 0.351734 0.3144248 0.3513869 0.3232842 0.3425936 0.3304212 0.3429433 0.3231908 0.3428705 0.3147464 0.3335364 0.3061979 0.3427532 0.3058351 0.3428705 0.3147464 0.3357106 0.323525 0.3342586 0.3154549 0.3429433 0.3231908 0.3371096 0.3290119 0.3357106 0.323525 0.3517662 0.3611238 0.3605864 0.3522753 0.3607016 0.361205 0.3427535 0.3608615 0.3517342 0.3522719 0.3517662 0.3611238 0.3335368 0.3604987 0.3428709 0.3519503 0.3427535 0.3608615 0.3517342 0.3522719 0.3602938 0.3432709 0.3605864 0.3522753 0.3428709 0.3519503 0.3513872 0.3434126 0.3517342 0.3522719 0.3428709 0.3519503 0.3357109 0.3431717 0.3429436 0.343506 0.3513872 0.3434126 0.3599027 0.3340662 0.3602938 0.3432709 0.3513872 0.3434126 0.3425939 0.3362756 0.3506577 0.334808 0.3429436 0.343506 0.3371099 0.3376848 0.3425939 0.3362756 0.9727653 0.3523015 0.9815738 0.3611435 0.9726505 0.3612245 0.97306 0.3433032 0.981608 0.352301 0.9727653 0.3523015 0.9734554 0.3341032 0.9819589 0.3434499 0.97306 0.3433032 0.981608 0.352301 0.9905732 0.3608829 0.9815738 0.3611435 0.9819589 0.3434499 0.9904602 0.3519835 0.981608 0.352301 0.9819589 0.3434499 0.9907486 0.3363265 0.9903931 0.343549 0.9904602 0.3519835 0.9997745 0.3605225 0.9905732 0.3608829 0.9904602 0.3519835 0.9976168 0.343221 0.99906 0.351281 0.9903931 0.343549 0.9962248 0.3377394 0.9976168 0.343221 0.6393759 0.01888984 0.6481873 0.02772736 0.6392649 0.02781212 0.6396668 0.009892165 0.6482178 0.01888555 0.6393759 0.01888984 0.6400583 6.93023e-4 0.648565 0.01003527 0.6396668 0.009892165 0.6482178 0.01888555 0.6571857 0.02746295 0.6481873 0.02772736 0.648565 0.01003527 0.657069 0.01856452 0.6482178 0.01888555 0.648565 0.01003527 0.6573509 0.002908885 0.6569985 0.01013088 0.657069 0.01856452 0.666386 0.02709871 0.6571857 0.02746295 0.657069 0.01856452 0.6642214 0.009799838 0.6656677 0.01785856 0.6569985 0.01013088 0.6628272 0.00431931 0.6642214 0.009799838 0.6855762 0.02726078 0.6944152 0.01845091 0.6944983 0.02737349 0.6765787 0.02696841 0.6855733 0.01841908 0.6855762 0.02726078 0.6673797 0.02657538 0.6767233 0.01807028 0.6765787 0.02696841 0.6855733 0.01841908 0.6941523 0.009452462 0.6944152 0.01845091 0.6767233 0.01807028 0.6852537 0.009567677 0.6855733 0.01841908 0.6767233 0.01807028 0.6695983 0.009283363 0.6768202 0.009636938 0.6852537 0.009567677 0.6937896 2.52068e-4 0.6941523 0.009452462 0.6852537 0.009567677 0.6764903 0.002413988 0.6845492 9.68933e-4 0.6768202 0.009636938 0.6710096 0.003807306 0.6764903 0.002413988 0.01842045 0.3611436 0.02722901 0.3523016 0.0273438 0.3612246 0.00942105 0.360883 0.0183863 0.352301 0.01842045 0.3611436 2.19733e-4 0.3605225 0.00953406 0.3519836 0.00942105 0.360883 0.0183863 0.352301 0.02693432 0.3433032 0.02722901 0.3523016 0.00953406 0.3519836 0.01803535 0.34345 0.0183863 0.352301 0.00953406 0.3519836 0.00237739 0.343221 0.009601116 0.3435491 0.01803535 0.34345 0.0265389 0.3341033 0.02693432 0.3433032 0.01803535 0.34345 0.009245693 0.3363266 0.01730024 0.3348529 0.009601116 0.3435491 0.003769457 0.3377395 0.009245693 0.3363266 0.9727006 0.01888573 0.981512 0.02772319 0.9725896 0.02780789 0.9729915 0.009888052 0.9815424 0.01888138 0.9727006 0.01888573 0.973383 6.88851e-4 0.9818897 0.01003116 0.9729915 0.009888052 0.9815424 0.01888138 0.9905104 0.0274589 0.981512 0.02772319 0.9818897 0.01003116 0.9903936 0.01856034 0.9815424 0.01888138 0.9818897 0.01003116 0.9906755 0.002904772 0.9903231 0.0101267 0.9903936 0.01856034 0.9997106 0.02709454 0.9905104 0.0274589 0.9903936 0.01856034 0.997546 0.009795665 0.9989923 0.01785445 0.9903231 0.0101267 0.9961518 0.004315197 0.997546 0.009795665 0.3522516 0.02726483 0.3610905 0.01845496 0.3611737 0.02737754 0.343254 0.02697247 0.3522487 0.01842302 0.3522516 0.02726483 0.334055 0.02657938 0.3433986 0.01807433 0.343254 0.02697247 0.3522487 0.01842302 0.3608278 0.009456515 0.3610905 0.01845496 0.3433986 0.01807433 0.3519291 0.009571731 0.3522487 0.01842302 0.3433986 0.01807433 0.3362737 0.009287416 0.3434955 0.009640932 0.3519291 0.009571731 0.360465 2.56121e-4 0.3608278 0.009456515 0.3519291 0.009571731 0.3431657 0.002417922 0.3512246 9.72986e-4 0.3434955 0.009640932 0.337685 0.003811359 0.3431657 0.002417922 0.6390996 0.8332319 0.6477464 0.6940733 0.6482179 0.8332153 0.6477464 0.6940733 0.6573383 0.8331986 0.6482179 0.8332153 0.656744 0.693781 0.6664616 0.8331817 0.6573383 0.8331986 0.8330072 0.6664853 0.6935939 0.6567322 0.8330252 0.6573618 0.6935939 0.6567322 0.8330432 0.6482415 0.8330252 0.6573618 0.6938886 0.6477338 0.8330612 0.639123 0.8330432 0.6482415 0.4997786 0.6943661 0.6389074 0.6852635 0.6388242 0.6941861 0.4997643 0.6852486 0.6391702 0.676265 0.6389074 0.6852635 0.6391702 0.676265 0.4997358 0.6670069 0.639533 0.6670646 0.5002623 0.6664983 0.6396672 0.6568044 0.6400586 0.6660036 0.5002481 0.6573759 0.6393762 0.6478068 0.6396672 0.6568044 0.6393762 0.6478068 0.5002196 0.6391392 0.6392651 0.6388846 0.6391058 0.4998385 0.6481876 0.6389694 0.6392651 0.6388846 0.6482242 0.4998266 0.657186 0.6392337 0.6481876 0.6389694 0.657186 0.6392337 0.6664677 0.4998032 0.6663861 0.639598 0.6668559 0.4997032 0.6760806 0.6391524 0.6668793 0.639513 0.6759802 0.4997196 0.6850801 0.6388918 0.6760806 0.6391524 0.6850801 0.6388918 0.6942207 0.4997527 0.6940034 0.6388108 0.1669332 0.6391231 0.3061057 0.6477338 0.1669511 0.6482415 0.3061057 0.6477338 0.1669691 0.6573619 0.1669511 0.6482415 0.3064005 0.6567322 0.1669871 0.6664853 0.1669691 0.6573619 0.3335304 0.8337021 0.3428122 0.6942717 0.3426537 0.8336905 0.3428122 0.6942717 0.351774 0.8336787 0.3426537 0.8336905 0.3518106 0.694536 0.3608925 0.8336668 0.351774 0.8336787 0.5002196 0.6391392 0.3610907 0.6482416 0.3611739 0.6393192 0.5002338 0.6482566 0.3608279 0.6572403 0.3610907 0.6482416 0.3608279 0.6572403 0.5002623 0.6664983 0.3604652 0.6664406 0.4997358 0.6670069 0.3603311 0.6767009 0.3599396 0.6675017 0.4997501 0.6761294 0.360622 0.6856985 0.3603311 0.6767009 0.360622 0.6856985 0.4997786 0.6943661 0.360733 0.6946207 0.3057736 0.4997527 0.3149143 0.6388918 0.3059909 0.6388108 0.3148928 0.4997361 0.3239137 0.6391524 0.3149143 0.6388918 0.3239137 0.6391524 0.3331384 0.4997032 0.333115 0.6395129 0.3335367 0.5003235 0.3432543 0.6397243 0.3340553 0.6401173 0.34266 0.5003066 0.3522518 0.6394318 0.3432543 0.6397243 0.3522518 0.6394318 0.3608987 0.5002732 0.3611739 0.6393192 0.8330612 0.639123 0.9722082 0.6482796 0.8330432 0.6482415 0.9722082 0.6482796 0.8330252 0.6573618 0.8330432 0.6482415 0.9724661 0.6572823 0.8330072 0.6664853 0.8330252 0.6573618 0.6664616 0.8331817 0.6572448 0.9726436 0.6573383 0.8331986 0.6572448 0.9726436 0.6482179 0.8332153 0.6573383 0.8331986 0.6482321 0.9723813 0.6390996 0.8332319 0.6482179 0.8332153 0.8331094 0.3057601 0.6939109 0.3144174 0.6940261 0.3054876 0.8330951 0.3148801 0.6936183 0.3234218 0.6939109 0.3144174 0.6936183 0.3234218 0.8330666 0.3331274 0.6932271 0.3326266 0.5002563 0.99994 0.6397045 0.9902343 0.6400957 0.999439 0.500242 0.9908148 0.6394119 0.9812299 0.6397045 0.9902343 0.6394119 0.9812299 0.5002135 0.9725727 0.6392967 0.9723001 0.9724332 0.5002827 0.9810597 0.6394706 0.9721289 0.6393512 0.9815524 0.5002993 0.9900659 0.6397714 0.9810597 0.6394706 0.9900659 0.6397714 0.9997979 0.5003321 0.9992746 0.6401742 0.6668612 0.1663693 0.676078 0.3058311 0.6668612 0.306194 0.6759845 0.1663861 0.6850906 0.3055689 0.676078 0.3058311 0.6850906 0.3055689 0.6942232 0.1664195 0.6940261 0.3054876 0.3608925 0.8336668 0.352195 0.9728441 0.351774 0.8336787 0.352195 0.9728441 0.3426537 0.8336905 0.351774 0.8336787 0.3431832 0.9731345 0.3335304 0.8337021 0.3426537 0.8336905 0.1669871 0.6664853 0.02752822 0.6572824 0.1669691 0.6573619 0.02752822 0.6572824 0.1669511 0.6482415 0.1669691 0.6573619 0.02778607 0.6482796 0.1669332 0.6391231 0.1669511 0.6482415 0.5002135 0.9725727 0.3610427 0.981665 0.3611301 0.9727349 0.5002278 0.9816927 0.3607783 0.9906703 0.3610427 0.981665 0.3607783 0.9906703 0.5002563 0.99994 0.3604159 0.9998763 0.8330666 0.3331274 0.9725445 0.3238575 0.9729069 0.3330634 0.8330808 0.3240022 0.9722801 0.3148523 0.9725445 0.3238575 0.9722801 0.3148523 0.8331094 0.3057601 0.9721928 0.3059222 0.9724302 0.166854 0.9811279 0.3060314 0.9721928 0.3059222 0.9815486 0.1668659 0.9901396 0.3063217 0.9811279 0.3060314 0.9901396 0.3063217 0.9997922 0.1668893 0.9993553 0.3067134 1.96368e-4 0.5003322 0.009928405 0.6397714 7.19756e-4 0.6401743 0.009320616 0.5003158 0.01893466 0.6394707 0.009928405 0.6397714 0.01893466 0.6394707 0.02756112 0.5002828 0.02786546 0.6393513 0.8335927 0.3609123 0.6944456 0.3517558 0.8336107 0.3517938 0.6944456 0.3517558 0.8336287 0.3426735 0.8336107 0.3517938 0.6941878 0.3427531 0.8336467 0.3335501 0.8336287 0.3426735 0.6664676 0.1668934 0.6568149 0.3063258 0.6573443 0.1668818 0.6568149 0.3063258 0.6482239 0.16687 0.6573443 0.1668818 0.6478031 0.3060355 0.6391055 0.1668582 0.6482239 0.16687 0.4997848 0.3609325 0.6389556 0.3518403 0.6388683 0.3607704 0.4997706 0.3518125 0.63922 0.342835 0.6389556 0.3518403 0.63922 0.342835 0.4997421 0.3335652 0.6395824 0.333629 0.4997418 0.3331314 0.6392198 0.3238616 0.6395822 0.3330676 0.499756 0.3240062 0.6389553 0.3148564 0.6392198 0.3238616 0.6389553 0.3148564 0.4997846 0.3057641 0.638868 0.3059263 0.6942207 0.4997527 0.6855942 0.3605647 0.694525 0.3606842 0.6851015 0.4997361 0.6765879 0.360264 0.6855942 0.3605647 0.6765879 0.360264 0.6668559 0.4997032 0.6673793 0.3598611 0.6664677 0.4998032 0.6568151 0.3603708 0.6660308 0.3599792 0.6573445 0.4998149 0.6478034 0.3606612 0.6568151 0.3603708 0.6478034 0.3606612 0.6391058 0.4998385 0.6388683 0.3607704 0.3608984 0.1664234 0.3517659 0.3055729 0.3517801 0.1664068 0.3517659 0.3055729 0.3426597 0.1663901 0.3517801 0.1664068 0.3427532 0.3058351 0.3335364 0.1663732 0.3426597 0.1663901 0.1663476 0.3335501 0.3058065 0.3427531 0.1663656 0.3426735 0.3058065 0.3427531 0.1663836 0.3517939 0.1663656 0.3426735 0.3055487 0.3517558 0.1664016 0.3609123 0.1663836 0.3517939 0.4997846 0.3057641 0.3605862 0.3144214 0.3607013 0.3054916 0.4997704 0.3148842 0.3602936 0.3234258 0.3605862 0.3144214 0.3602936 0.3234258 0.4997418 0.3331314 0.3599025 0.3326306 0.4997421 0.3335652 0.3602938 0.3432709 0.3599027 0.3340662 0.4997563 0.3426904 0.3605864 0.3522753 0.3602938 0.3432709 0.3605864 0.3522753 0.4997848 0.3609325 0.3607016 0.361205 0.3608987 0.5002732 0.3517662 0.3611238 0.3607016 0.361205 0.3517803 0.5002899 0.3427535 0.3608615 0.3517662 0.3611238 0.3427535 0.3608615 0.3335367 0.5003235 0.3335368 0.3604987 0.3331384 0.4997032 0.3234063 0.360264 0.332615 0.3598611 0.3240141 0.4997196 0.3144001 0.3605647 0.3234063 0.360264 0.3144001 0.3605647 0.3057736 0.4997527 0.3054693 0.3606842 0.6391055 0.1668582 0.6481873 0.02772736 0.6482239 0.16687 0.6481873 0.02772736 0.6573443 0.1668818 0.6482239 0.16687 0.6571857 0.02746295 0.6664676 0.1668934 0.6573443 0.1668818 0.8336467 0.3335501 0.97306 0.3433032 0.8336287 0.3426735 0.97306 0.3433032 0.8336107 0.3517938 0.8336287 0.3426735 0.9727653 0.3523015 0.8335927 0.3609123 0.8336107 0.3517938 0.5002194 0.02755749 0.6393759 0.01888984 0.6392649 0.02781212 0.5002336 0.01844018 0.6396668 0.009892165 0.6393759 0.01888984 0.6396668 0.009892165 0.5002621 1.98364e-4 0.6400583 6.93023e-4 0.8335867 1.94252e-4 0.6941523 0.009452462 0.6937896 2.52068e-4 0.8335725 0.009316623 0.6944152 0.01845091 0.6941523 0.009452462 0.6944152 0.01845091 0.833544 0.02755337 0.6944983 0.02737349 0.6942232 0.1664195 0.6855762 0.02726078 0.6944983 0.02737349 0.6851047 0.1664028 0.6765787 0.02696841 0.6855762 0.02726078 0.6765787 0.02696841 0.6668612 0.1663693 0.6673797 0.02657538 0.9997979 0.5003321 0.9905732 0.3608829 0.9997745 0.3605225 0.9906737 0.5003157 0.9815738 0.3611435 0.9905732 0.3608829 0.9815738 0.3611435 0.9724332 0.5002827 0.9726505 0.3612245 0.1664016 0.3609123 0.02722901 0.3523016 0.1663836 0.3517939 0.02722901 0.3523016 0.1663656 0.3426735 0.1663836 0.3517939 0.02693432 0.3433032 0.1663476 0.3335501 0.1663656 0.3426735 0.3335364 0.1663732 0.343254 0.02697247 0.3426597 0.1663901 0.343254 0.02697247 0.3517801 0.1664068 0.3426597 0.1663901 0.3522516 0.02726483 0.3608984 0.1664234 0.3517801 0.1664068 0.833544 0.02755337 0.9727006 0.01888573 0.9725896 0.02780789 0.8335582 0.01843601 0.9729915 0.009888052 0.9727006 0.01888573 0.9729915 0.009888052 0.8335867 1.94252e-4 0.973383 6.88851e-4 0.5002621 1.98364e-4 0.3608278 0.009456515 0.360465 2.56121e-4 0.5002478 0.009320735 0.3610905 0.01845496 0.3608278 0.009456515 0.3610905 0.01845496 0.5002194 0.02755749 0.3611737 0.02737754 0.02756112 0.5002828 0.01842045 0.3611436 0.0273438 0.3612246 0.01844191 0.5002993 0.00942105 0.360883 0.01842045 0.3611436 0.00942105 0.360883 1.96368e-4 0.5003322 2.19733e-4 0.3605225 0.9997922 0.1668893 0.9905104 0.0274589 0.9997106 0.02709454 0.990669 0.1668776 0.981512 0.02772319 0.9905104 0.0274589 0.981512 0.02772319 0.9724302 0.166854 0.9725896 0.02780789 0.499996 0.8334594 0.6388242 0.6941861 0.6390996 0.8332319 0.360733 0.6946207 0.4997786 0.6943661 0.499996 0.8334594 0.6392651 0.6388846 0.5002196 0.6391392 0.5000023 0.5000458 0.8330612 0.639123 0.6940034 0.6388108 0.6942207 0.4997527 0.3607016 0.361205 0.4997848 0.3609325 0.5000023 0.5000458 0.5000023 0.5000458 0.5002196 0.6391392 0.3611739 0.6393192 0.5000023 0.5000458 0.4997848 0.3609325 0.6388683 0.3607704 0.3057736 0.4997527 0.3059909 0.6388108 0.1669332 0.6391231 0.9724332 0.5002827 0.9721289 0.6393512 0.8330612 0.639123 0.9721928 0.3059222 0.8331094 0.3057601 0.8333267 0.1666467 0.8333267 0.1666467 0.8331094 0.3057601 0.6940261 0.3054876 0.1669332 0.6391231 0.02786546 0.6393513 0.02756112 0.5002828 0.6944983 0.02737349 0.833544 0.02755337 0.8333267 0.1666467 0.6392967 0.9723001 0.5002135 0.9725727 0.499996 0.8334594 0.500002 0.1666508 0.4997846 0.3057641 0.3607013 0.3054916 0.6942207 0.4997527 0.694525 0.3606842 0.8335927 0.3609123 0.499996 0.8334594 0.5002135 0.9725727 0.3611301 0.9727349 0.500002 0.1666508 0.5002194 0.02755749 0.6392649 0.02781212 0.1664016 0.3609123 0.3054693 0.3606842 0.3057736 0.4997527 0.8333267 0.1666467 0.833544 0.02755337 0.9725896 0.02780789 0.3611737 0.02737754 0.5002194 0.02755749 0.500002 0.1666508 0.8335927 0.3609123 0.9726505 0.3612245 0.9724332 0.5002827 0.638868 0.3059263 0.4997846 0.3057641 0.500002 0.1666508 0.02756112 0.5002828 0.0273438 0.3612246 0.1664016 0.3609123 0.6938886 0.6477338 0.6850459 0.6477345 0.6850801 0.6388918 0.6935939 0.6567322 0.684695 0.6565854 0.6850459 0.6477345 0.6931985 0.6659321 0.6839599 0.6651824 0.684695 0.6565854 0.6850459 0.6477345 0.6761937 0.6480518 0.6760806 0.6391524 0.684695 0.6565854 0.6762608 0.6564863 0.6761937 0.6480518 0.684695 0.6565854 0.6839599 0.6651824 0.6759054 0.6637088 0.6761937 0.6480518 0.6675939 0.6487543 0.6668793 0.639513 0.6761937 0.6480518 0.6762608 0.6564863 0.669037 0.6568144 0.6762608 0.6564863 0.6759054 0.6637088 0.6704291 0.6622959 0.6389074 0.6852635 0.6477493 0.6852316 0.6477464 0.6940733 0.6391702 0.676265 0.6480688 0.6763802 0.6477493 0.6852316 0.639533 0.6670646 0.6487734 0.6677814 0.6480688 0.6763802 0.6477493 0.6852316 0.6565994 0.6848828 0.656744 0.693781 0.6480688 0.6763802 0.6565025 0.6764494 0.6565994 0.6848828 0.6480688 0.6763802 0.6487734 0.6677814 0.6568323 0.6692264 0.6565994 0.6848828 0.6651958 0.68415 0.665943 0.6933879 0.6565994 0.6848828 0.6565025 0.6764494 0.6637243 0.6760959 0.6565025 0.6764494 0.6568323 0.6692264 0.662313 0.6706197 0.6481876 0.6389694 0.648218 0.6478111 0.6393762 0.6478068 0.657186 0.6392337 0.6570693 0.6481322 0.648218 0.6478111 0.6663861 0.639598 0.6656678 0.6488381 0.6570693 0.6481322 0.648218 0.6478111 0.6485652 0.6566613 0.6396672 0.6568044 0.6570693 0.6481322 0.6569987 0.6565658 0.6485652 0.6566613 0.6570693 0.6481322 0.6656678 0.6488381 0.6642215 0.6568968 0.6485652 0.6566613 0.6492968 0.6652578 0.6400586 0.6660036 0.6485652 0.6566613 0.6569987 0.6565658 0.6573511 0.6637877 0.6569987 0.6565658 0.6642215 0.6568968 0.6628273 0.6623772 0.3149143 0.6388918 0.3149484 0.6477345 0.3061057 0.6477338 0.3239137 0.6391524 0.3238007 0.6480519 0.3149484 0.6477345 0.333115 0.6395129 0.3324005 0.6487544 0.3238007 0.6480519 0.3149484 0.6477345 0.3152994 0.6565855 0.3064005 0.6567322 0.3238007 0.6480519 0.3237336 0.6564864 0.3152994 0.6565855 0.3238007 0.6480519 0.3324005 0.6487544 0.3309574 0.6568144 0.3152994 0.6565855 0.3160345 0.6651825 0.3067958 0.6659321 0.3152994 0.6565855 0.3237336 0.6564864 0.3240891 0.6637088 0.3237336 0.6564864 0.3309574 0.6568144 0.3295652 0.6622959 0.3610907 0.6482416 0.352249 0.6482737 0.3522518 0.6394318 0.3608279 0.6572403 0.3519294 0.657125 0.352249 0.6482737 0.3604652 0.6664406 0.3512248 0.6657238 0.3519294 0.657125 0.352249 0.6482737 0.3433988 0.6486224 0.3432543 0.6397243 0.3519294 0.657125 0.3434957 0.6570557 0.3433988 0.6486224 0.3519294 0.657125 0.3512248 0.6657238 0.3431659 0.6642788 0.3433988 0.6486224 0.3348024 0.6493552 0.3340553 0.6401173 0.3433988 0.6486224 0.3434957 0.6570557 0.3362739 0.6574093 0.3434957 0.6570557 0.3431659 0.6642788 0.3376852 0.6628854 0.3518106 0.694536 0.3517802 0.6856942 0.360622 0.6856985 0.3428122 0.6942717 0.342929 0.6853732 0.3517802 0.6856942 0.333612 0.6939074 0.3343303 0.6846672 0.342929 0.6853732 0.3517802 0.6856942 0.3514329 0.676844 0.3603311 0.6767009 0.342929 0.6853732 0.3429995 0.6769395 0.3514329 0.676844 0.342929 0.6853732 0.3343303 0.6846672 0.3357766 0.6766086 0.3514329 0.676844 0.3507015 0.6682475 0.3599396 0.6675017 0.3514329 0.676844 0.3429995 0.6769395 0.3426471 0.6697176 0.3429995 0.6769395 0.3357766 0.6766086 0.3371708 0.6711281 0.9810597 0.6394706 0.9810559 0.6483185 0.9722082 0.6482796 0.9900659 0.6397714 0.9899122 0.648676 0.9810559 0.6483185 0.9992746 0.6401742 0.9985144 0.6494193 0.9899122 0.648676 0.9810559 0.6483185 0.9813684 0.6571745 0.9724661 0.6572823 0.9899122 0.648676 0.9898064 0.657114 0.9813684 0.6571745 0.9899122 0.648676 0.9985144 0.6494193 0.9970319 0.6574763 0.9813684 0.6571745 0.9820654 0.6657767 0.9728233 0.6664853 0.9813684 0.6571745 0.9898064 0.657114 0.9901285 0.6643402 0.9898064 0.657114 0.9970319 0.6574763 0.9956131 0.662953 0.6939109 0.3144174 0.6850588 0.3144208 0.6850906 0.3055689 0.6936183 0.3234218 0.6847116 0.3232802 0.6850588 0.3144208 0.6932271 0.3326266 0.6839821 0.3318848 0.6847116 0.3232802 0.6850588 0.3144208 0.6761953 0.3147424 0.676078 0.3058311 0.6847116 0.3232802 0.6762681 0.3231868 0.6761953 0.3147424 0.6847116 0.3232802 0.6839821 0.3318848 0.6759183 0.3304172 0.6761953 0.3147424 0.6675834 0.3154509 0.6668612 0.306194 0.6761953 0.3147424 0.6762681 0.3231868 0.6690354 0.323521 0.6762681 0.3231868 0.6759183 0.3304172 0.6704344 0.3290079 0.6482321 0.9723813 0.6482641 0.9812332 0.6394119 0.9812299 0.6572448 0.9726436 0.6571274 0.9815548 0.6482641 0.9812332 0.6664616 0.9730064 0.6657394 0.9822633 0.6571274 0.9815548 0.6482641 0.9812332 0.6486112 0.9900926 0.6397045 0.9902343 0.6571274 0.9815548 0.6570547 0.9899992 0.6486112 0.9900926 0.6571274 0.9815548 0.6657394 0.9822633 0.6642875 0.9903334 0.6486112 0.9900926 0.6493408 0.9986971 0.6400957 0.999439 0.6486112 0.9900926 0.6570547 0.9899992 0.6574044 0.9972296 0.6570547 0.9899992 0.6642875 0.9903334 0.6628884 0.9958203 0.02778607 0.6482796 0.01893842 0.6483185 0.01893466 0.6394707 0.02752822 0.6572824 0.01862591 0.6571746 0.01893842 0.6483185 0.02717107 0.6664853 0.01792889 0.6657769 0.01862591 0.6571746 0.01893842 0.6483185 0.01008206 0.648676 0.009928405 0.6397714 0.01862591 0.6571746 0.01018792 0.657114 0.01008206 0.648676 0.01862591 0.6571746 0.01792889 0.6657769 0.00986588 0.6643403 0.01008206 0.648676 0.001479923 0.6494193 7.19756e-4 0.6401743 0.01008206 0.648676 0.01018792 0.657114 0.002962529 0.6574763 0.01018792 0.657114 0.00986588 0.6643403 0.004381239 0.6629531 0.3610427 0.981665 0.3521907 0.981696 0.352195 0.9728441 0.3607783 0.9906703 0.3518713 0.9905565 0.3521907 0.981696 0.3604159 0.9998763 0.3511686 0.9991633 0.3518713 0.9905565 0.3521907 0.981696 0.3433283 0.9820454 0.3431832 0.9731345 0.3518713 0.9905565 0.3434275 0.9904896 0.3433283 0.9820454 0.3518713 0.9905565 0.3511686 0.9991633 0.3431003 0.997721 0.3433283 0.9820454 0.3347185 0.9827808 0.3339675 0.9735261 0.3433283 0.9820454 0.3434275 0.9904896 0.3361958 0.9908464 0.3434275 0.9904896 0.3431003 0.997721 0.3376119 0.9963288 0.9811279 0.3060314 0.9811322 0.3148833 0.9722801 0.3148523 0.9901396 0.3063217 0.9899945 0.3152326 0.9811322 0.3148833 0.9993553 0.3067134 0.9986042 0.315968 0.9899945 0.3152326 0.9811322 0.3148833 0.9814516 0.3237437 0.9725445 0.3238575 0.9899945 0.3152326 0.9898954 0.3236767 0.9814516 0.3237437 0.9899945 0.3152326 0.9986042 0.315968 0.997127 0.3240335 0.9814516 0.3237437 0.9821542 0.3323505 0.9729069 0.3330634 0.9814516 0.3237437 0.9898954 0.3236767 0.9902225 0.3309081 0.9898954 0.3236767 0.997127 0.3240335 0.9957108 0.329516 0.6855942 0.3605647 0.685598 0.3517169 0.6944456 0.3517558 0.6765879 0.360264 0.6767416 0.3513594 0.685598 0.3517169 0.6673793 0.3598611 0.6681395 0.3506161 0.6767416 0.3513594 0.685598 0.3517169 0.6852855 0.3428608 0.6941878 0.3427531 0.6767416 0.3513594 0.6768475 0.3429214 0.6852855 0.3428608 0.6767416 0.3513594 0.6681395 0.3506161 0.669622 0.342559 0.6852855 0.3428608 0.6845884 0.3342586 0.6938306 0.3335501 0.6852855 0.3428608 0.6768475 0.3429214 0.6765254 0.3356951 0.6768475 0.3429214 0.669622 0.342559 0.6710408 0.3370823 0.6389556 0.3518403 0.6478077 0.3518092 0.6478034 0.3606612 0.63922 0.342835 0.6481271 0.3429488 0.6478077 0.3518092 0.6395824 0.333629 0.6488298 0.334342 0.6481271 0.3429488 0.6478077 0.3518092 0.65667 0.35146 0.6568151 0.3603708 0.6481271 0.3429488 0.6565709 0.3430158 0.65667 0.35146 0.6481271 0.3429488 0.6488298 0.334342 0.656898 0.3357843 0.65667 0.35146 0.6652798 0.3507245 0.6660308 0.3599792 0.65667 0.35146 0.6565709 0.3430158 0.6638025 0.342659 0.6565709 0.3430158 0.656898 0.3357843 0.6623864 0.3371765 0.6478031 0.3060355 0.6478074 0.3148874 0.6389553 0.3148564 0.6568149 0.3063258 0.6566697 0.3152367 0.6478074 0.3148874 0.6660305 0.3067175 0.6652795 0.3159722 0.6566697 0.3152367 0.6478074 0.3148874 0.6481268 0.3237478 0.6392198 0.3238616 0.6566697 0.3152367 0.6565706 0.3236808 0.6481268 0.3237478 0.6566697 0.3152367 0.6652795 0.3159722 0.6638022 0.3240376 0.6481268 0.3237478 0.6488295 0.3323546 0.6395822 0.3330676 0.6481268 0.3237478 0.6565706 0.3236808 0.6568977 0.3309122 0.6565706 0.3236808 0.6638022 0.3240376 0.6623861 0.3295202 0.3055487 0.3517558 0.3143963 0.3517169 0.3144001 0.3605647 0.3058065 0.3427531 0.3147088 0.3428608 0.3143963 0.3517169 0.3061637 0.3335501 0.3154059 0.3342586 0.3147088 0.3428608 0.3143963 0.3517169 0.3232527 0.3513594 0.3234063 0.360264 0.3147088 0.3428608 0.3231468 0.3429214 0.3232527 0.3513594 0.3147088 0.3428608 0.3154059 0.3342586 0.3234689 0.3356951 0.3232527 0.3513594 0.3318548 0.3506161 0.332615 0.3598611 0.3232527 0.3513594 0.3231468 0.3429214 0.3303722 0.3425591 0.3231468 0.3429214 0.3234689 0.3356951 0.3289535 0.3370823 0.3605862 0.3144214 0.351734 0.3144248 0.3517659 0.3055729 0.3602936 0.3234258 0.3513869 0.3232842 0.351734 0.3144248 0.3599025 0.3326306 0.3506574 0.3318887 0.3513869 0.3232842 0.351734 0.3144248 0.3428705 0.3147464 0.3427532 0.3058351 0.3513869 0.3232842 0.3429433 0.3231908 0.3428705 0.3147464 0.3513869 0.3232842 0.3506574 0.3318887 0.3425936 0.3304212 0.3428705 0.3147464 0.3342586 0.3154549 0.3335364 0.3061979 0.3428705 0.3147464 0.3429433 0.3231908 0.3357106 0.323525 0.3429433 0.3231908 0.3425936 0.3304212 0.3371096 0.3290119 0.3517662 0.3611238 0.3517342 0.3522719 0.3605864 0.3522753 0.3427535 0.3608615 0.3428709 0.3519503 0.3517342 0.3522719 0.3335368 0.3604987 0.3342589 0.3512418 0.3428709 0.3519503 0.3517342 0.3522719 0.3513872 0.3434126 0.3602938 0.3432709 0.3428709 0.3519503 0.3429436 0.343506 0.3513872 0.3434126 0.3428709 0.3519503 0.3342589 0.3512418 0.3357109 0.3431717 0.3513872 0.3434126 0.3506577 0.334808 0.3599027 0.3340662 0.3513872 0.3434126 0.3429436 0.343506 0.3425939 0.3362756 0.3429436 0.343506 0.3357109 0.3431717 0.3371099 0.3376848 0.9727653 0.3523015 0.981608 0.352301 0.9815738 0.3611435 0.97306 0.3433032 0.9819589 0.3434499 0.981608 0.352301 0.9734554 0.3341032 0.982694 0.3348529 0.9819589 0.3434499 0.981608 0.352301 0.9904602 0.3519835 0.9905732 0.3608829 0.9819589 0.3434499 0.9903931 0.343549 0.9904602 0.3519835 0.9819589 0.3434499 0.982694 0.3348529 0.9907486 0.3363265 0.9904602 0.3519835 0.99906 0.351281 0.9997745 0.3605225 0.9904602 0.3519835 0.9903931 0.343549 0.9976168 0.343221 0.9903931 0.343549 0.9907486 0.3363265 0.9962248 0.3377394 0.6393759 0.01888984 0.6482178 0.01888555 0.6481873 0.02772736 0.6396668 0.009892165 0.648565 0.01003527 0.6482178 0.01888555 0.6400583 6.93023e-4 0.6492965 0.001438736 0.648565 0.01003527 0.6482178 0.01888555 0.657069 0.01856452 0.6571857 0.02746295 0.648565 0.01003527 0.6569985 0.01013088 0.657069 0.01856452 0.648565 0.01003527 0.6492965 0.001438736 0.6573509 0.002908885 0.657069 0.01856452 0.6656677 0.01785856 0.666386 0.02709871 0.657069 0.01856452 0.6569985 0.01013088 0.6642214 0.009799838 0.6569985 0.01013088 0.6573509 0.002908885 0.6628272 0.00431931 0.6855762 0.02726078 0.6855733 0.01841908 0.6944152 0.01845091 0.6765787 0.02696841 0.6767233 0.01807028 0.6855733 0.01841908 0.6673797 0.02657538 0.6681269 0.0173375 0.6767233 0.01807028 0.6855733 0.01841908 0.6852537 0.009567677 0.6941523 0.009452462 0.6767233 0.01807028 0.6768202 0.009636938 0.6852537 0.009567677 0.6767233 0.01807028 0.6681269 0.0173375 0.6695983 0.009283363 0.6852537 0.009567677 0.6845492 9.68933e-4 0.6937896 2.52068e-4 0.6852537 0.009567677 0.6768202 0.009636938 0.6764903 0.002413988 0.6768202 0.009636938 0.6695983 0.009283363 0.6710096 0.003807306 0.01842045 0.3611436 0.0183863 0.352301 0.02722901 0.3523016 0.00942105 0.360883 0.00953406 0.3519836 0.0183863 0.352301 2.19733e-4 0.3605225 9.34333e-4 0.3512811 0.00953406 0.3519836 0.0183863 0.352301 0.01803535 0.34345 0.02693432 0.3433032 0.00953406 0.3519836 0.009601116 0.3435491 0.01803535 0.34345 0.00953406 0.3519836 9.34333e-4 0.3512811 0.00237739 0.343221 0.01803535 0.34345 0.01730024 0.3348529 0.0265389 0.3341033 0.01803535 0.34345 0.009601116 0.3435491 0.009245693 0.3363266 0.009601116 0.3435491 0.00237739 0.343221 0.003769457 0.3377395 0.9727006 0.01888573 0.9815424 0.01888138 0.981512 0.02772319 0.9729915 0.009888052 0.9818897 0.01003116 0.9815424 0.01888138 0.973383 6.88851e-4 0.9826211 0.001434564 0.9818897 0.01003116 0.9815424 0.01888138 0.9903936 0.01856034 0.9905104 0.0274589 0.9818897 0.01003116 0.9903231 0.0101267 0.9903936 0.01856034 0.9818897 0.01003116 0.9826211 0.001434564 0.9906755 0.002904772 0.9903936 0.01856034 0.9989923 0.01785445 0.9997106 0.02709454 0.9903936 0.01856034 0.9903231 0.0101267 0.997546 0.009795665 0.9903231 0.0101267 0.9906755 0.002904772 0.9961518 0.004315197 0.3522516 0.02726483 0.3522487 0.01842302 0.3610905 0.01845496 0.343254 0.02697247 0.3433986 0.01807433 0.3522487 0.01842302 0.334055 0.02657938 0.3348022 0.01734143 0.3433986 0.01807433 0.3522487 0.01842302 0.3519291 0.009571731 0.3608278 0.009456515 0.3433986 0.01807433 0.3434955 0.009640932 0.3519291 0.009571731 0.3433986 0.01807433 0.3348022 0.01734143 0.3362737 0.009287416 0.3519291 0.009571731 0.3512246 9.72986e-4 0.360465 2.56121e-4 0.3519291 0.009571731 0.3434955 0.009640932 0.3431657 0.002417922 0.3434955 0.009640932 0.3362737 0.009287416 0.337685 0.003811359 0.6390996 0.8332319 0.6388242 0.6941861 0.6477464 0.6940733 0.6477464 0.6940733 0.656744 0.693781 0.6573383 0.8331986 0.656744 0.693781 0.665943 0.6933879 0.6664616 0.8331817 0.8330072 0.6664853 0.6931985 0.6659321 0.6935939 0.6567322 0.6935939 0.6567322 0.6938886 0.6477338 0.8330432 0.6482415 0.6938886 0.6477338 0.6940034 0.6388108 0.8330612 0.639123 0.4997786 0.6943661 0.4997643 0.6852486 0.6389074 0.6852635 0.4997643 0.6852486 0.4997501 0.6761294 0.6391702 0.676265 0.6391702 0.676265 0.4997501 0.6761294 0.4997358 0.6670069 0.5002623 0.6664983 0.5002481 0.6573759 0.6396672 0.6568044 0.5002481 0.6573759 0.5002338 0.6482566 0.6393762 0.6478068 0.6393762 0.6478068 0.5002338 0.6482566 0.5002196 0.6391392 0.6391058 0.4998385 0.6482242 0.4998266 0.6481876 0.6389694 0.6482242 0.4998266 0.6573445 0.4998149 0.657186 0.6392337 0.657186 0.6392337 0.6573445 0.4998149 0.6664677 0.4998032 0.6668559 0.4997032 0.6759802 0.4997196 0.6760806 0.6391524 0.6759802 0.4997196 0.6851015 0.4997361 0.6850801 0.6388918 0.6850801 0.6388918 0.6851015 0.4997361 0.6942207 0.4997527 0.1669332 0.6391231 0.3059909 0.6388108 0.3061057 0.6477338 0.3061057 0.6477338 0.3064005 0.6567322 0.1669691 0.6573619 0.3064005 0.6567322 0.3067958 0.6659321 0.1669871 0.6664853 0.3335304 0.8337021 0.333612 0.6939074 0.3428122 0.6942717 0.3428122 0.6942717 0.3518106 0.694536 0.351774 0.8336787 0.3518106 0.694536 0.360733 0.6946207 0.3608925 0.8336668 0.5002196 0.6391392 0.5002338 0.6482566 0.3610907 0.6482416 0.5002338 0.6482566 0.5002481 0.6573759 0.3608279 0.6572403 0.3608279 0.6572403 0.5002481 0.6573759 0.5002623 0.6664983 0.4997358 0.6670069 0.4997501 0.6761294 0.3603311 0.6767009 0.4997501 0.6761294 0.4997643 0.6852486 0.360622 0.6856985 0.360622 0.6856985 0.4997643 0.6852486 0.4997786 0.6943661 0.3057736 0.4997527 0.3148928 0.4997361 0.3149143 0.6388918 0.3148928 0.4997361 0.3240141 0.4997196 0.3239137 0.6391524 0.3239137 0.6391524 0.3240141 0.4997196 0.3331384 0.4997032 0.3335367 0.5003235 0.34266 0.5003066 0.3432543 0.6397243 0.34266 0.5003066 0.3517803 0.5002899 0.3522518 0.6394318 0.3522518 0.6394318 0.3517803 0.5002899 0.3608987 0.5002732 0.8330612 0.639123 0.9721289 0.6393512 0.9722082 0.6482796 0.9722082 0.6482796 0.9724661 0.6572823 0.8330252 0.6573618 0.9724661 0.6572823 0.9728233 0.6664853 0.8330072 0.6664853 0.6664616 0.8331817 0.6664616 0.9730064 0.6572448 0.9726436 0.6572448 0.9726436 0.6482321 0.9723813 0.6482179 0.8332153 0.6482321 0.9723813 0.6392967 0.9723001 0.6390996 0.8332319 0.8331094 0.3057601 0.8330951 0.3148801 0.6939109 0.3144174 0.8330951 0.3148801 0.8330808 0.3240022 0.6936183 0.3234218 0.6936183 0.3234218 0.8330808 0.3240022 0.8330666 0.3331274 0.5002563 0.99994 0.500242 0.9908148 0.6397045 0.9902343 0.500242 0.9908148 0.5002278 0.9816927 0.6394119 0.9812299 0.6394119 0.9812299 0.5002278 0.9816927 0.5002135 0.9725727 0.9724332 0.5002827 0.9815524 0.5002993 0.9810597 0.6394706 0.9815524 0.5002993 0.9906737 0.5003157 0.9900659 0.6397714 0.9900659 0.6397714 0.9906737 0.5003157 0.9997979 0.5003321 0.6668612 0.1663693 0.6759845 0.1663861 0.676078 0.3058311 0.6759845 0.1663861 0.6851047 0.1664028 0.6850906 0.3055689 0.6850906 0.3055689 0.6851047 0.1664028 0.6942232 0.1664195 0.3608925 0.8336668 0.3611301 0.9727349 0.352195 0.9728441 0.352195 0.9728441 0.3431832 0.9731345 0.3426537 0.8336905 0.3431832 0.9731345 0.3339675 0.9735261 0.3335304 0.8337021 0.1669871 0.6664853 0.02717107 0.6664853 0.02752822 0.6572824 0.02752822 0.6572824 0.02778607 0.6482796 0.1669511 0.6482415 0.02778607 0.6482796 0.02786546 0.6393513 0.1669332 0.6391231 0.5002135 0.9725727 0.5002278 0.9816927 0.3610427 0.981665 0.5002278 0.9816927 0.500242 0.9908148 0.3607783 0.9906703 0.3607783 0.9906703 0.500242 0.9908148 0.5002563 0.99994 0.8330666 0.3331274 0.8330808 0.3240022 0.9725445 0.3238575 0.8330808 0.3240022 0.8330951 0.3148801 0.9722801 0.3148523 0.9722801 0.3148523 0.8330951 0.3148801 0.8331094 0.3057601 0.9724302 0.166854 0.9815486 0.1668659 0.9811279 0.3060314 0.9815486 0.1668659 0.990669 0.1668776 0.9901396 0.3063217 0.9901396 0.3063217 0.990669 0.1668776 0.9997922 0.1668893 1.96368e-4 0.5003322 0.009320616 0.5003158 0.009928405 0.6397714 0.009320616 0.5003158 0.01844191 0.5002993 0.01893466 0.6394707 0.01893466 0.6394707 0.01844191 0.5002993 0.02756112 0.5002828 0.8335927 0.3609123 0.694525 0.3606842 0.6944456 0.3517558 0.6944456 0.3517558 0.6941878 0.3427531 0.8336287 0.3426735 0.6941878 0.3427531 0.6938306 0.3335501 0.8336467 0.3335501 0.6664676 0.1668934 0.6660305 0.3067175 0.6568149 0.3063258 0.6568149 0.3063258 0.6478031 0.3060355 0.6482239 0.16687 0.6478031 0.3060355 0.638868 0.3059263 0.6391055 0.1668582 0.4997848 0.3609325 0.4997706 0.3518125 0.6389556 0.3518403 0.4997706 0.3518125 0.4997563 0.3426904 0.63922 0.342835 0.63922 0.342835 0.4997563 0.3426904 0.4997421 0.3335652 0.4997418 0.3331314 0.499756 0.3240062 0.6392198 0.3238616 0.499756 0.3240062 0.4997704 0.3148842 0.6389553 0.3148564 0.6389553 0.3148564 0.4997704 0.3148842 0.4997846 0.3057641 0.6942207 0.4997527 0.6851015 0.4997361 0.6855942 0.3605647 0.6851015 0.4997361 0.6759802 0.4997196 0.6765879 0.360264 0.6765879 0.360264 0.6759802 0.4997196 0.6668559 0.4997032 0.6664677 0.4998032 0.6573445 0.4998149 0.6568151 0.3603708 0.6573445 0.4998149 0.6482242 0.4998266 0.6478034 0.3606612 0.6478034 0.3606612 0.6482242 0.4998266 0.6391058 0.4998385 0.3608984 0.1664234 0.3607013 0.3054916 0.3517659 0.3055729 0.3517659 0.3055729 0.3427532 0.3058351 0.3426597 0.1663901 0.3427532 0.3058351 0.3335364 0.3061979 0.3335364 0.1663732 0.1663476 0.3335501 0.3061637 0.3335501 0.3058065 0.3427531 0.3058065 0.3427531 0.3055487 0.3517558 0.1663836 0.3517939 0.3055487 0.3517558 0.3054693 0.3606842 0.1664016 0.3609123 0.4997846 0.3057641 0.4997704 0.3148842 0.3605862 0.3144214 0.4997704 0.3148842 0.499756 0.3240062 0.3602936 0.3234258 0.3602936 0.3234258 0.499756 0.3240062 0.4997418 0.3331314 0.4997421 0.3335652 0.4997563 0.3426904 0.3602938 0.3432709 0.4997563 0.3426904 0.4997706 0.3518125 0.3605864 0.3522753 0.3605864 0.3522753 0.4997706 0.3518125 0.4997848 0.3609325 0.3608987 0.5002732 0.3517803 0.5002899 0.3517662 0.3611238 0.3517803 0.5002899 0.34266 0.5003066 0.3427535 0.3608615 0.3427535 0.3608615 0.34266 0.5003066 0.3335367 0.5003235 0.3331384 0.4997032 0.3240141 0.4997196 0.3234063 0.360264 0.3240141 0.4997196 0.3148928 0.4997361 0.3144001 0.3605647 0.3144001 0.3605647 0.3148928 0.4997361 0.3057736 0.4997527 0.6391055 0.1668582 0.6392649 0.02781212 0.6481873 0.02772736 0.6481873 0.02772736 0.6571857 0.02746295 0.6573443 0.1668818 0.6571857 0.02746295 0.666386 0.02709871 0.6664676 0.1668934 0.8336467 0.3335501 0.9734554 0.3341032 0.97306 0.3433032 0.97306 0.3433032 0.9727653 0.3523015 0.8336107 0.3517938 0.9727653 0.3523015 0.9726505 0.3612245 0.8335927 0.3609123 0.5002194 0.02755749 0.5002336 0.01844018 0.6393759 0.01888984 0.5002336 0.01844018 0.5002478 0.009320735 0.6396668 0.009892165 0.6396668 0.009892165 0.5002478 0.009320735 0.5002621 1.98364e-4 0.8335867 1.94252e-4 0.8335725 0.009316623 0.6941523 0.009452462 0.8335725 0.009316623 0.8335582 0.01843601 0.6944152 0.01845091 0.6944152 0.01845091 0.8335582 0.01843601 0.833544 0.02755337 0.6942232 0.1664195 0.6851047 0.1664028 0.6855762 0.02726078 0.6851047 0.1664028 0.6759845 0.1663861 0.6765787 0.02696841 0.6765787 0.02696841 0.6759845 0.1663861 0.6668612 0.1663693 0.9997979 0.5003321 0.9906737 0.5003157 0.9905732 0.3608829 0.9906737 0.5003157 0.9815524 0.5002993 0.9815738 0.3611435 0.9815738 0.3611435 0.9815524 0.5002993 0.9724332 0.5002827 0.1664016 0.3609123 0.0273438 0.3612246 0.02722901 0.3523016 0.02722901 0.3523016 0.02693432 0.3433032 0.1663656 0.3426735 0.02693432 0.3433032 0.0265389 0.3341033 0.1663476 0.3335501 0.3335364 0.1663732 0.334055 0.02657938 0.343254 0.02697247 0.343254 0.02697247 0.3522516 0.02726483 0.3517801 0.1664068 0.3522516 0.02726483 0.3611737 0.02737754 0.3608984 0.1664234 0.833544 0.02755337 0.8335582 0.01843601 0.9727006 0.01888573 0.8335582 0.01843601 0.8335725 0.009316623 0.9729915 0.009888052 0.9729915 0.009888052 0.8335725 0.009316623 0.8335867 1.94252e-4 0.5002621 1.98364e-4 0.5002478 0.009320735 0.3608278 0.009456515 0.5002478 0.009320735 0.5002336 0.01844018 0.3610905 0.01845496 0.3610905 0.01845496 0.5002336 0.01844018 0.5002194 0.02755749 0.02756112 0.5002828 0.01844191 0.5002993 0.01842045 0.3611436 0.01844191 0.5002993 0.009320616 0.5003158 0.00942105 0.360883 0.00942105 0.360883 0.009320616 0.5003158 1.96368e-4 0.5003322 0.9997922 0.1668893 0.990669 0.1668776 0.9905104 0.0274589 0.990669 0.1668776 0.9815486 0.1668659 0.981512 0.02772319 0.981512 0.02772319 0.9815486 0.1668659 0.9724302 0.166854 0.499996 0.8334594 0.4997786 0.6943661 0.6388242 0.6941861</float_array>
          <technique_common>
            <accessor source="#Cube_001-mesh-map-0-array" count="2304" stride="2">
              <param name="S" type="float"/>
              <param name="T" type="float"/>
            </accessor>
          </technique_common>
        </source>
        <vertices id="Cube_001-mesh-vertices">
          <input semantic="POSITION" source="#Cube_001-mesh-positions"/>
        </vertices>
        <triangles material="default_mat-material" count="768">
          <input semantic="VERTEX" source="#Cube_001-mesh-vertices" offset="0"/>
          <input semantic="NORMAL" source="#Cube_001-mesh-normals" offset="1"/>
          <input semantic="TEXCOORD" source="#Cube_001-mesh-map-0" offset="2" set="0"/>
          <p>66 0 0 1 1 1 108 2 2 8 3 3 0 4 4 50 5 5 57 6 6 51 7 7 2 8 8 263 9 9 0 4 10 102 10 11 0 4 12 65 11 13 102 10 14 0 4 15 211 12 16 50 5 17 101 13 18 109 14 19 3 15 20 159 16 21 57 6 22 2 8 23 168 17 24 4 18 25 203 19 26 4 18 27 116 20 28 160 21 29 109 14 30 204 22 31 3 15 32 307 23 33 4 18 34 160 21 35 117 24 36 1 1 37 58 25 38 5 26 39 262 27 40 299 28 41 51 7 42 255 29 43 2 8 44 1 1 45 167 30 46 108 2 47 5 26 48 306 31 49 254 32 50 298 33 51 101 13 52 3 15 53 4 18 54 350 34 55 203 19 56 351 35 57 5 26 58 299 28 59 255 29 60 159 16 61 2 8 62 212 36 63 5 26 64 254 32 65 204 22 66 298 33 67 3 15 68 9 37 69 12 38 70 6 39 71 10 40 72 13 41 73 9 37 74 11 42 75 14 43 76 10 40 77 13 41 78 16 44 79 12 38 80 14 43 81 17 45 82 13 41 83 14 43 84 19 46 85 18 47 86 17 45 87 34 48 88 16 44 89 17 45 90 42 49 91 38 50 92 18 47 93 20 51 94 42 49 95 21 52 96 24 53 97 7 54 98 22 55 99 25 56 100 21 52 101 23 57 102 26 58 103 22 55 104 25 56 105 28 59 106 24 53 107 26 58 108 29 60 109 25 56 110 26 58 111 31 61 112 30 62 113 29 60 114 11 42 115 28 59 116 29 60 117 19 46 118 15 63 119 30 62 120 20 51 121 19 46 122 32 64 123 35 65 124 8 3 125 33 66 126 36 67 127 32 64 128 34 48 129 37 68 130 33 66 131 36 67 132 39 69 133 35 65 134 37 68 135 40 70 136 36 67 137 37 68 138 42 49 139 41 71 140 40 70 141 23 57 142 39 69 143 40 70 144 31 61 145 27 72 146 41 71 147 20 51 148 31 61 149 67 73 150 70 74 151 64 75 152 68 76 153 71 77 154 67 73 155 69 78 156 72 79 157 68 76 158 71 77 159 74 80 160 70 74 161 72 79 162 75 81 163 71 77 164 72 79 165 77 82 166 76 83 167 75 81 168 92 84 169 74 80 170 75 81 171 100 85 172 96 86 173 76 83 174 78 87 175 100 85 176 79 88 177 82 89 178 65 11 179 80 90 180 83 91 181 79 88 182 81 92 183 84 93 184 80 90 185 83 91 186 86 94 187 82 89 188 84 93 189 87 95 190 83 91 191 84 93 192 89 96 193 88 97 194 87 95 195 69 78 196 86 94 197 87 95 198 77 82 199 73 98 200 88 97 201 78 87 202 77 82 203 90 99 204 93 100 205 66 0 206 91 101 207 94 102 208 90 99 209 92 84 210 95 103 211 91 101 212 94 102 213 97 104 214 93 100 215 95 103 216 98 105 217 94 102 218 95 103 219 100 85 220 99 106 221 98 105 222 81 92 223 97 104 224 98 105 225 89 96 226 85 107 227 99 106 228 78 87 229 89 96 230 118 108 231 121 109 232 115 110 233 119 111 234 122 112 235 118 108 236 120 113 237 123 114 238 119 111 239 122 112 240 125 115 241 121 109 242 123 114 243 126 116 244 122 112 245 123 114 246 128 117 247 127 118 248 126 116 249 143 119 250 125 115 251 126 116 252 151 120 253 147 121 254 127 118 255 129 122 256 151 120 257 130 123 258 133 124 259 116 20 260 131 125 261 134 126 262 130 123 263 132 127 264 135 128 265 131 125 266 134 126 267 137 129 268 133 124 269 135 128 270 138 130 271 134 126 272 135 128 273 140 131 274 139 132 275 138 130 276 120 113 277 137 129 278 138 130 279 128 117 280 124 133 281 139 132 282 129 122 283 128 117 284 141 134 285 144 135 286 117 24 287 142 136 288 145 137 289 141 134 290 143 119 291 146 138 292 142 136 293 145 137 294 148 139 295 144 135 296 146 138 297 149 140 298 145 137 299 146 138 300 151 120 301 150 141 302 149 140 303 132 127 304 148 139 305 149 140 306 140 131 307 136 142 308 150 141 309 129 122 310 140 131 311 169 143 312 172 144 313 166 145 314 170 146 315 173 147 316 169 143 317 171 148 318 174 149 319 170 146 320 173 147 321 176 150 322 172 144 323 174 149 324 177 151 325 173 147 326 174 149 327 179 152 328 178 153 329 177 151 330 194 154 331 176 150 332 177 151 333 202 155 334 198 156 335 178 153 336 180 157 337 202 155 338 181 158 339 184 159 340 167 30 341 182 160 342 185 161 343 181 158 344 183 162 345 186 163 346 182 160 347 185 161 348 188 164 349 184 159 350 186 163 351 189 165 352 185 161 353 186 163 354 191 166 355 190 167 356 189 165 357 171 148 358 188 164 359 189 165 360 179 152 361 175 168 362 190 167 363 180 157 364 179 152 365 192 169 366 195 170 367 168 17 368 193 171 369 196 172 370 192 169 371 194 154 372 197 173 373 193 171 374 196 172 375 199 174 376 195 170 377 197 173 378 200 175 379 196 172 380 197 173 381 202 155 382 201 176 383 200 175 384 183 162 385 199 174 386 200 175 387 191 166 388 187 177 389 201 176 390 180 157 391 191 166 392 213 178 393 216 179 394 210 180 395 214 181 396 217 182 397 213 178 398 215 183 399 218 184 400 214 181 401 217 182 402 220 185 403 216 179 404 218 184 405 221 186 406 217 182 407 218 184 408 223 187 409 222 188 410 221 186 411 238 189 412 220 185 413 221 186 414 246 190 415 242 191 416 222 188 417 224 192 418 246 190 419 225 193 420 228 194 421 211 12 422 226 195 423 229 196 424 225 193 425 227 197 426 230 198 427 226 195 428 229 196 429 232 199 430 228 194 431 230 198 432 233 200 433 229 196 434 230 198 435 235 201 436 234 202 437 233 200 438 215 183 439 232 199 440 233 200 441 223 187 442 219 203 443 234 202 444 224 192 445 223 187 446 236 204 447 239 205 448 212 36 449 237 206 450 240 207 451 236 204 452 238 189 453 241 208 454 237 206 455 240 207 456 243 209 457 239 205 458 241 208 459 244 210 460 240 207 461 241 208 462 246 190 463 245 211 464 244 210 465 227 197 466 243 209 467 244 210 468 235 201 469 231 212 470 245 211 471 224 192 472 235 201 473 264 213 474 267 214 475 261 215 476 265 216 477 268 217 478 264 213 479 266 218 480 269 219 481 265 216 482 268 217 483 271 220 484 267 214 485 269 219 486 272 221 487 268 217 488 269 219 489 274 222 490 273 223 491 272 221 492 289 224 493 271 220 494 272 221 495 297 225 496 293 226 497 273 223 498 275 227 499 297 225 500 276 228 501 279 229 502 262 27 503 277 230 504 280 231 505 276 228 506 278 232 507 281 233 508 277 230 509 280 231 510 283 234 511 279 229 512 281 233 513 284 235 514 280 231 515 281 233 516 286 236 517 285 237 518 284 235 519 266 218 520 283 234 521 284 235 522 274 222 523 270 238 524 285 237 525 275 227 526 274 222 527 287 239 528 290 240 529 263 9 530 288 241 531 291 242 532 287 239 533 289 224 534 292 243 535 288 241 536 291 242 537 294 244 538 290 240 539 292 243 540 295 245 541 291 242 542 292 243 543 297 225 544 296 246 545 295 245 546 278 232 547 294 244 548 295 245 549 286 236 550 282 247 551 296 246 552 275 227 553 286 236 554 308 248 555 311 249 556 305 250 557 309 251 558 312 252 559 308 248 560 310 253 561 313 254 562 309 251 563 312 252 564 315 255 565 311 249 566 313 254 567 316 256 568 312 252 569 313 254 570 318 257 571 317 258 572 316 256 573 333 259 574 315 255 575 316 256 576 341 260 577 337 261 578 317 258 579 319 262 580 341 260 581 320 263 582 323 264 583 306 31 584 321 265 585 324 266 586 320 263 587 322 267 588 325 268 589 321 265 590 324 266 591 327 269 592 323 264 593 325 268 594 328 270 595 324 266 596 325 268 597 330 271 598 329 272 599 328 270 600 310 253 601 327 269 602 328 270 603 318 257 604 314 273 605 329 272 606 319 262 607 318 257 608 331 274 609 334 275 610 307 23 611 332 276 612 335 277 613 331 274 614 333 259 615 336 278 616 332 276 617 335 277 618 338 279 619 334 275 620 336 278 621 339 280 622 335 277 623 336 278 624 341 260 625 340 281 626 339 280 627 322 267 628 338 279 629 339 280 630 330 271 631 326 282 632 340 281 633 319 262 634 330 271 635 352 283 636 355 284 637 349 285 638 353 286 639 356 287 640 352 283 641 354 288 642 357 289 643 353 286 644 356 287 645 359 290 646 355 284 647 357 289 648 360 291 649 356 287 650 357 289 651 362 292 652 361 293 653 360 291 654 377 294 655 359 290 656 360 291 657 385 295 658 381 296 659 361 293 660 363 297 661 385 295 662 364 298 663 367 299 664 350 34 665 365 300 666 368 301 667 364 298 668 366 302 669 369 303 670 365 300 671 368 301 672 371 304 673 367 299 674 369 303 675 372 305 676 368 301 677 369 303 678 374 306 679 373 307 680 372 305 681 354 288 682 371 304 683 372 305 684 362 292 685 358 308 686 373 307 687 363 297 688 362 292 689 375 309 690 378 310 691 351 35 692 376 311 693 379 312 694 375 309 695 377 294 696 380 313 697 376 311 698 379 312 699 382 314 700 378 310 701 380 313 702 383 315 703 379 312 704 380 313 705 385 295 706 384 316 707 383 315 708 366 302 709 382 314 710 383 315 711 374 306 712 370 317 713 384 316 714 363 297 715 374 306 716 58 25 717 24 53 718 63 318 719 24 53 720 62 319 721 63 318 722 28 59 723 61 320 724 62 319 725 61 320 726 10 40 727 60 321 728 10 40 729 59 322 730 60 321 731 9 37 732 57 6 733 59 322 734 43 323 735 21 52 736 7 54 737 45 324 738 22 55 739 21 52 740 22 55 741 47 325 742 23 57 743 47 325 744 39 69 745 23 57 746 48 326 747 35 65 748 39 69 749 35 65 750 44 327 751 8 3 752 50 5 753 32 64 754 8 3 755 52 328 756 33 66 757 32 64 758 33 66 759 54 329 760 34 48 761 54 329 762 16 44 763 34 48 764 55 330 765 12 38 766 16 44 767 12 38 768 51 7 769 6 39 770 109 14 771 70 74 772 114 331 773 70 74 774 113 332 775 114 331 776 74 80 777 112 333 778 113 332 779 112 333 780 91 101 781 111 334 782 91 101 783 110 335 784 111 334 785 90 99 786 108 2 787 110 335 788 44 327 789 79 88 790 65 11 791 49 336 792 80 90 793 79 88 794 80 90 795 47 325 796 81 92 797 47 325 798 97 104 799 81 92 800 46 337 801 93 100 802 97 104 803 93 100 804 43 323 805 66 0 806 101 13 807 67 73 808 64 75 809 103 338 810 68 76 811 67 73 812 68 76 813 105 339 814 69 78 815 105 339 816 86 94 817 69 78 818 106 340 819 82 89 820 86 94 821 82 89 822 102 10 823 65 11 824 57 6 825 121 109 826 59 322 827 121 109 828 60 321 829 59 322 830 125 115 831 61 320 832 60 321 833 61 320 834 142 136 835 62 319 836 142 136 837 63 318 838 62 319 839 141 134 840 58 25 841 63 318 842 152 341 843 130 123 844 116 20 845 154 342 846 131 125 847 130 123 848 131 125 849 156 343 850 132 127 851 156 343 852 148 139 853 132 127 854 157 344 855 144 135 856 148 139 857 144 135 858 153 345 859 117 24 860 159 16 861 118 108 862 115 110 863 161 346 864 119 111 865 118 108 866 119 111 867 163 347 868 120 113 869 163 347 870 137 129 871 120 113 872 164 348 873 133 124 874 137 129 875 133 124 876 160 21 877 116 20 878 108 2 879 184 159 880 110 335 881 184 159 882 111 334 883 110 335 884 188 164 885 112 333 886 111 334 887 112 333 888 170 146 889 113 332 890 170 146 891 114 331 892 113 332 893 169 143 894 109 14 895 114 331 896 153 345 897 181 158 898 167 30 899 158 349 900 182 160 901 181 158 902 182 160 903 156 343 904 183 162 905 156 343 906 199 174 907 183 162 908 155 350 909 195 170 910 199 174 911 195 170 912 152 341 913 168 17 914 203 19 915 192 169 916 168 17 917 205 351 918 193 171 919 192 169 920 193 171 921 207 352 922 194 154 923 207 352 924 176 150 925 194 154 926 208 353 927 172 144 928 176 150 929 172 144 930 204 22 931 166 145 932 255 29 933 216 179 934 260 354 935 216 179 936 259 355 937 260 354 938 220 185 939 258 356 940 259 355 941 258 356 942 237 206 943 257 357 944 237 206 945 256 358 946 257 357 947 236 204 948 254 32 949 256 358 950 247 359 951 225 193 952 211 12 953 249 360 954 226 195 955 225 193 956 226 195 957 251 361 958 227 197 959 251 361 960 243 209 961 227 197 962 252 362 963 239 205 964 243 209 965 239 205 966 248 363 967 212 36 968 51 7 969 213 178 970 210 180 971 56 364 972 214 181 973 213 178 974 214 181 975 54 329 976 215 183 977 54 329 978 232 199 979 215 183 980 53 365 981 228 194 982 232 199 983 228 194 984 50 5 985 211 12 986 299 28 987 279 229 988 304 366 989 279 229 990 303 367 991 304 366 992 283 234 993 302 368 994 303 367 995 302 368 996 265 216 997 301 369 998 265 216 999 300 370 1000 301 369 1001 264 213 1002 298 33 1003 300 370 1004 248 363 1005 276 228 1006 262 27 1007 253 371 1008 277 230 1009 276 228 1010 277 230 1011 251 361 1012 278 232 1013 251 361 1014 294 244 1015 278 232 1016 250 372 1017 290 240 1018 294 244 1019 290 240 1020 247 359 1021 263 9 1022 102 10 1023 287 239 1024 263 9 1025 107 373 1026 288 241 1027 287 239 1028 288 241 1029 105 339 1030 289 224 1031 105 339 1032 271 220 1033 289 224 1034 104 374 1035 267 214 1036 271 220 1037 267 214 1038 101 13 1039 261 215 1040 254 32 1041 323 264 1042 256 358 1043 323 264 1044 257 357 1045 256 358 1046 327 269 1047 258 356 1048 257 357 1049 258 356 1050 309 251 1051 259 355 1052 309 251 1053 260 354 1054 259 355 1055 308 248 1056 255 29 1057 260 354 1058 342 375 1059 320 263 1060 306 31 1061 344 376 1062 321 265 1063 320 263 1064 321 265 1065 346 377 1066 322 267 1067 346 377 1068 338 279 1069 322 267 1070 347 378 1071 334 275 1072 338 279 1073 334 275 1074 343 379 1075 307 23 1076 160 21 1077 331 274 1078 307 23 1079 165 380 1080 332 276 1081 331 274 1082 332 276 1083 163 347 1084 333 259 1085 163 347 1086 315 255 1087 333 259 1088 162 381 1089 311 249 1090 315 255 1091 311 249 1092 159 16 1093 305 250 1094 298 33 1095 355 284 1096 300 370 1097 355 284 1098 301 369 1099 300 370 1100 359 290 1101 302 368 1102 301 369 1103 302 368 1104 376 311 1105 303 367 1106 376 311 1107 304 366 1108 303 367 1109 375 309 1110 299 28 1111 304 366 1112 343 379 1113 364 298 1114 350 34 1115 348 382 1116 365 300 1117 364 298 1118 365 300 1119 346 377 1120 366 302 1121 346 377 1122 382 314 1123 366 302 1124 345 383 1125 378 310 1126 382 314 1127 378 310 1128 342 375 1129 351 35 1130 204 22 1131 352 283 1132 349 285 1133 209 384 1134 353 286 1135 352 283 1136 353 286 1137 207 352 1138 354 288 1139 207 352 1140 371 304 1141 354 288 1142 206 385 1143 367 299 1144 371 304 1145 367 299 1146 203 19 1147 350 34 1148 1 1 1149 7 54 1150 58 25 1151 66 0 1152 43 323 1153 1 1 1154 8 3 1155 44 327 1156 0 4 1157 57 6 1158 6 39 1159 51 7 1160 263 9 1161 247 359 1162 0 4 1163 0 4 1164 44 327 1165 65 11 1166 0 4 1167 247 359 1168 211 12 1169 101 13 1170 64 75 1171 109 14 1172 159 16 1173 115 110 1174 57 6 1175 168 17 1176 152 341 1177 4 18 1178 4 18 1179 152 341 1180 116 20 1181 109 14 1182 166 145 1183 204 22 1184 307 23 1185 343 379 1186 4 18 1187 117 24 1188 153 345 1189 1 1 1190 5 26 1191 248 363 1192 262 27 1193 51 7 1194 210 180 1195 255 29 1196 1 1 1197 153 345 1198 167 30 1199 5 26 1200 342 375 1201 306 31 1202 298 33 1203 261 215 1204 101 13 1205 4 18 1206 343 379 1207 350 34 1208 351 35 1209 342 375 1210 5 26 1211 255 29 1212 305 250 1213 159 16 1214 212 36 1215 248 363 1216 5 26 1217 204 22 1218 349 285 1219 298 33 1220 9 37 1221 13 41 1222 12 38 1223 10 40 1224 14 43 1225 13 41 1226 11 42 1227 15 63 1228 14 43 1229 13 41 1230 17 45 1231 16 44 1232 14 43 1233 18 47 1234 17 45 1235 14 43 1236 15 63 1237 19 46 1238 17 45 1239 38 50 1240 34 48 1241 17 45 1242 18 47 1243 42 49 1244 18 47 1245 19 46 1246 20 51 1247 21 52 1248 25 56 1249 24 53 1250 22 55 1251 26 58 1252 25 56 1253 23 57 1254 27 72 1255 26 58 1256 25 56 1257 29 60 1258 28 59 1259 26 58 1260 30 62 1261 29 60 1262 26 58 1263 27 72 1264 31 61 1265 29 60 1266 15 63 1267 11 42 1268 29 60 1269 30 62 1270 19 46 1271 30 62 1272 31 61 1273 20 51 1274 32 64 1275 36 67 1276 35 65 1277 33 66 1278 37 68 1279 36 67 1280 34 48 1281 38 50 1282 37 68 1283 36 67 1284 40 70 1285 39 69 1286 37 68 1287 41 71 1288 40 70 1289 37 68 1290 38 50 1291 42 49 1292 40 70 1293 27 72 1294 23 57 1295 40 70 1296 41 71 1297 31 61 1298 41 71 1299 42 49 1300 20 51 1301 67 73 1302 71 77 1303 70 74 1304 68 76 1305 72 79 1306 71 77 1307 69 78 1308 73 98 1309 72 79 1310 71 77 1311 75 81 1312 74 80 1313 72 79 1314 76 83 1315 75 81 1316 72 79 1317 73 98 1318 77 82 1319 75 81 1320 96 86 1321 92 84 1322 75 81 1323 76 83 1324 100 85 1325 76 83 1326 77 82 1327 78 87 1328 79 88 1329 83 91 1330 82 89 1331 80 90 1332 84 93 1333 83 91 1334 81 92 1335 85 107 1336 84 93 1337 83 91 1338 87 95 1339 86 94 1340 84 93 1341 88 97 1342 87 95 1343 84 93 1344 85 107 1345 89 96 1346 87 95 1347 73 98 1348 69 78 1349 87 95 1350 88 97 1351 77 82 1352 88 97 1353 89 96 1354 78 87 1355 90 99 1356 94 102 1357 93 100 1358 91 101 1359 95 103 1360 94 102 1361 92 84 1362 96 86 1363 95 103 1364 94 102 1365 98 105 1366 97 104 1367 95 103 1368 99 106 1369 98 105 1370 95 103 1371 96 86 1372 100 85 1373 98 105 1374 85 107 1375 81 92 1376 98 105 1377 99 106 1378 89 96 1379 99 106 1380 100 85 1381 78 87 1382 118 108 1383 122 112 1384 121 109 1385 119 111 1386 123 114 1387 122 112 1388 120 113 1389 124 133 1390 123 114 1391 122 112 1392 126 116 1393 125 115 1394 123 114 1395 127 118 1396 126 116 1397 123 114 1398 124 133 1399 128 117 1400 126 116 1401 147 121 1402 143 119 1403 126 116 1404 127 118 1405 151 120 1406 127 118 1407 128 117 1408 129 122 1409 130 123 1410 134 126 1411 133 124 1412 131 125 1413 135 128 1414 134 126 1415 132 127 1416 136 142 1417 135 128 1418 134 126 1419 138 130 1420 137 129 1421 135 128 1422 139 132 1423 138 130 1424 135 128 1425 136 142 1426 140 131 1427 138 130 1428 124 133 1429 120 113 1430 138 130 1431 139 132 1432 128 117 1433 139 132 1434 140 131 1435 129 122 1436 141 134 1437 145 137 1438 144 135 1439 142 136 1440 146 138 1441 145 137 1442 143 119 1443 147 121 1444 146 138 1445 145 137 1446 149 140 1447 148 139 1448 146 138 1449 150 141 1450 149 140 1451 146 138 1452 147 121 1453 151 120 1454 149 140 1455 136 142 1456 132 127 1457 149 140 1458 150 141 1459 140 131 1460 150 141 1461 151 120 1462 129 122 1463 169 143 1464 173 147 1465 172 144 1466 170 146 1467 174 149 1468 173 147 1469 171 148 1470 175 168 1471 174 149 1472 173 147 1473 177 151 1474 176 150 1475 174 149 1476 178 153 1477 177 151 1478 174 149 1479 175 168 1480 179 152 1481 177 151 1482 198 156 1483 194 154 1484 177 151 1485 178 153 1486 202 155 1487 178 153 1488 179 152 1489 180 157 1490 181 158 1491 185 161 1492 184 159 1493 182 160 1494 186 163 1495 185 161 1496 183 162 1497 187 177 1498 186 163 1499 185 161 1500 189 165 1501 188 164 1502 186 163 1503 190 167 1504 189 165 1505 186 163 1506 187 177 1507 191 166 1508 189 165 1509 175 168 1510 171 148 1511 189 165 1512 190 167 1513 179 152 1514 190 167 1515 191 166 1516 180 157 1517 192 169 1518 196 172 1519 195 170 1520 193 171 1521 197 173 1522 196 172 1523 194 154 1524 198 156 1525 197 173 1526 196 172 1527 200 175 1528 199 174 1529 197 173 1530 201 176 1531 200 175 1532 197 173 1533 198 156 1534 202 155 1535 200 175 1536 187 177 1537 183 162 1538 200 175 1539 201 176 1540 191 166 1541 201 176 1542 202 155 1543 180 157 1544 213 178 1545 217 182 1546 216 179 1547 214 181 1548 218 184 1549 217 182 1550 215 183 1551 219 203 1552 218 184 1553 217 182 1554 221 186 1555 220 185 1556 218 184 1557 222 188 1558 221 186 1559 218 184 1560 219 203 1561 223 187 1562 221 186 1563 242 191 1564 238 189 1565 221 186 1566 222 188 1567 246 190 1568 222 188 1569 223 187 1570 224 192 1571 225 193 1572 229 196 1573 228 194 1574 226 195 1575 230 198 1576 229 196 1577 227 197 1578 231 212 1579 230 198 1580 229 196 1581 233 200 1582 232 199 1583 230 198 1584 234 202 1585 233 200 1586 230 198 1587 231 212 1588 235 201 1589 233 200 1590 219 203 1591 215 183 1592 233 200 1593 234 202 1594 223 187 1595 234 202 1596 235 201 1597 224 192 1598 236 204 1599 240 207 1600 239 205 1601 237 206 1602 241 208 1603 240 207 1604 238 189 1605 242 191 1606 241 208 1607 240 207 1608 244 210 1609 243 209 1610 241 208 1611 245 211 1612 244 210 1613 241 208 1614 242 191 1615 246 190 1616 244 210 1617 231 212 1618 227 197 1619 244 210 1620 245 211 1621 235 201 1622 245 211 1623 246 190 1624 224 192 1625 264 213 1626 268 217 1627 267 214 1628 265 216 1629 269 219 1630 268 217 1631 266 218 1632 270 238 1633 269 219 1634 268 217 1635 272 221 1636 271 220 1637 269 219 1638 273 223 1639 272 221 1640 269 219 1641 270 238 1642 274 222 1643 272 221 1644 293 226 1645 289 224 1646 272 221 1647 273 223 1648 297 225 1649 273 223 1650 274 222 1651 275 227 1652 276 228 1653 280 231 1654 279 229 1655 277 230 1656 281 233 1657 280 231 1658 278 232 1659 282 247 1660 281 233 1661 280 231 1662 284 235 1663 283 234 1664 281 233 1665 285 237 1666 284 235 1667 281 233 1668 282 247 1669 286 236 1670 284 235 1671 270 238 1672 266 218 1673 284 235 1674 285 237 1675 274 222 1676 285 237 1677 286 236 1678 275 227 1679 287 239 1680 291 242 1681 290 240 1682 288 241 1683 292 243 1684 291 242 1685 289 224 1686 293 226 1687 292 243 1688 291 242 1689 295 245 1690 294 244 1691 292 243 1692 296 246 1693 295 245 1694 292 243 1695 293 226 1696 297 225 1697 295 245 1698 282 247 1699 278 232 1700 295 245 1701 296 246 1702 286 236 1703 296 246 1704 297 225 1705 275 227 1706 308 248 1707 312 252 1708 311 249 1709 309 251 1710 313 254 1711 312 252 1712 310 253 1713 314 273 1714 313 254 1715 312 252 1716 316 256 1717 315 255 1718 313 254 1719 317 258 1720 316 256 1721 313 254 1722 314 273 1723 318 257 1724 316 256 1725 337 261 1726 333 259 1727 316 256 1728 317 258 1729 341 260 1730 317 258 1731 318 257 1732 319 262 1733 320 263 1734 324 266 1735 323 264 1736 321 265 1737 325 268 1738 324 266 1739 322 267 1740 326 282 1741 325 268 1742 324 266 1743 328 270 1744 327 269 1745 325 268 1746 329 272 1747 328 270 1748 325 268 1749 326 282 1750 330 271 1751 328 270 1752 314 273 1753 310 253 1754 328 270 1755 329 272 1756 318 257 1757 329 272 1758 330 271 1759 319 262 1760 331 274 1761 335 277 1762 334 275 1763 332 276 1764 336 278 1765 335 277 1766 333 259 1767 337 261 1768 336 278 1769 335 277 1770 339 280 1771 338 279 1772 336 278 1773 340 281 1774 339 280 1775 336 278 1776 337 261 1777 341 260 1778 339 280 1779 326 282 1780 322 267 1781 339 280 1782 340 281 1783 330 271 1784 340 281 1785 341 260 1786 319 262 1787 352 283 1788 356 287 1789 355 284 1790 353 286 1791 357 289 1792 356 287 1793 354 288 1794 358 308 1795 357 289 1796 356 287 1797 360 291 1798 359 290 1799 357 289 1800 361 293 1801 360 291 1802 357 289 1803 358 308 1804 362 292 1805 360 291 1806 381 296 1807 377 294 1808 360 291 1809 361 293 1810 385 295 1811 361 293 1812 362 292 1813 363 297 1814 364 298 1815 368 301 1816 367 299 1817 365 300 1818 369 303 1819 368 301 1820 366 302 1821 370 317 1822 369 303 1823 368 301 1824 372 305 1825 371 304 1826 369 303 1827 373 307 1828 372 305 1829 369 303 1830 370 317 1831 374 306 1832 372 305 1833 358 308 1834 354 288 1835 372 305 1836 373 307 1837 362 292 1838 373 307 1839 374 306 1840 363 297 1841 375 309 1842 379 312 1843 378 310 1844 376 311 1845 380 313 1846 379 312 1847 377 294 1848 381 296 1849 380 313 1850 379 312 1851 383 315 1852 382 314 1853 380 313 1854 384 316 1855 383 315 1856 380 313 1857 381 296 1858 385 295 1859 383 315 1860 370 317 1861 366 302 1862 383 315 1863 384 316 1864 374 306 1865 384 316 1866 385 295 1867 363 297 1868 58 25 1869 7 54 1870 24 53 1871 24 53 1872 28 59 1873 62 319 1874 28 59 1875 11 42 1876 61 320 1877 61 320 1878 11 42 1879 10 40 1880 10 40 1881 9 37 1882 59 322 1883 9 37 1884 6 39 1885 57 6 1886 43 323 1887 45 324 1888 21 52 1889 45 324 1890 46 337 1891 22 55 1892 22 55 1893 46 337 1894 47 325 1895 47 325 1896 48 326 1897 39 69 1898 48 326 1899 49 336 1900 35 65 1901 35 65 1902 49 336 1903 44 327 1904 50 5 1905 52 328 1906 32 64 1907 52 328 1908 53 365 1909 33 66 1910 33 66 1911 53 365 1912 54 329 1913 54 329 1914 55 330 1915 16 44 1916 55 330 1917 56 364 1918 12 38 1919 12 38 1920 56 364 1921 51 7 1922 109 14 1923 64 75 1924 70 74 1925 70 74 1926 74 80 1927 113 332 1928 74 80 1929 92 84 1930 112 333 1931 112 333 1932 92 84 1933 91 101 1934 91 101 1935 90 99 1936 110 335 1937 90 99 1938 66 0 1939 108 2 1940 44 327 1941 49 336 1942 79 88 1943 49 336 1944 48 326 1945 80 90 1946 80 90 1947 48 326 1948 47 325 1949 47 325 1950 46 337 1951 97 104 1952 46 337 1953 45 324 1954 93 100 1955 93 100 1956 45 324 1957 43 323 1958 101 13 1959 103 338 1960 67 73 1961 103 338 1962 104 374 1963 68 76 1964 68 76 1965 104 374 1966 105 339 1967 105 339 1968 106 340 1969 86 94 1970 106 340 1971 107 373 1972 82 89 1973 82 89 1974 107 373 1975 102 10 1976 57 6 1977 115 110 1978 121 109 1979 121 109 1980 125 115 1981 60 321 1982 125 115 1983 143 119 1984 61 320 1985 61 320 1986 143 119 1987 142 136 1988 142 136 1989 141 134 1990 63 318 1991 141 134 1992 117 24 1993 58 25 1994 152 341 1995 154 342 1996 130 123 1997 154 342 1998 155 350 1999 131 125 2000 131 125 2001 155 350 2002 156 343 2003 156 343 2004 157 344 2005 148 139 2006 157 344 2007 158 349 2008 144 135 2009 144 135 2010 158 349 2011 153 345 2012 159 16 2013 161 346 2014 118 108 2015 161 346 2016 162 381 2017 119 111 2018 119 111 2019 162 381 2020 163 347 2021 163 347 2022 164 348 2023 137 129 2024 164 348 2025 165 380 2026 133 124 2027 133 124 2028 165 380 2029 160 21 2030 108 2 2031 167 30 2032 184 159 2033 184 159 2034 188 164 2035 111 334 2036 188 164 2037 171 148 2038 112 333 2039 112 333 2040 171 148 2041 170 146 2042 170 146 2043 169 143 2044 114 331 2045 169 143 2046 166 145 2047 109 14 2048 153 345 2049 158 349 2050 181 158 2051 158 349 2052 157 344 2053 182 160 2054 182 160 2055 157 344 2056 156 343 2057 156 343 2058 155 350 2059 199 174 2060 155 350 2061 154 342 2062 195 170 2063 195 170 2064 154 342 2065 152 341 2066 203 19 2067 205 351 2068 192 169 2069 205 351 2070 206 385 2071 193 171 2072 193 171 2073 206 385 2074 207 352 2075 207 352 2076 208 353 2077 176 150 2078 208 353 2079 209 384 2080 172 144 2081 172 144 2082 209 384 2083 204 22 2084 255 29 2085 210 180 2086 216 179 2087 216 179 2088 220 185 2089 259 355 2090 220 185 2091 238 189 2092 258 356 2093 258 356 2094 238 189 2095 237 206 2096 237 206 2097 236 204 2098 256 358 2099 236 204 2100 212 36 2101 254 32 2102 247 359 2103 249 360 2104 225 193 2105 249 360 2106 250 372 2107 226 195 2108 226 195 2109 250 372 2110 251 361 2111 251 361 2112 252 362 2113 243 209 2114 252 362 2115 253 371 2116 239 205 2117 239 205 2118 253 371 2119 248 363 2120 51 7 2121 56 364 2122 213 178 2123 56 364 2124 55 330 2125 214 181 2126 214 181 2127 55 330 2128 54 329 2129 54 329 2130 53 365 2131 232 199 2132 53 365 2133 52 328 2134 228 194 2135 228 194 2136 52 328 2137 50 5 2138 299 28 2139 262 27 2140 279 229 2141 279 229 2142 283 234 2143 303 367 2144 283 234 2145 266 218 2146 302 368 2147 302 368 2148 266 218 2149 265 216 2150 265 216 2151 264 213 2152 300 370 2153 264 213 2154 261 215 2155 298 33 2156 248 363 2157 253 371 2158 276 228 2159 253 371 2160 252 362 2161 277 230 2162 277 230 2163 252 362 2164 251 361 2165 251 361 2166 250 372 2167 294 244 2168 250 372 2169 249 360 2170 290 240 2171 290 240 2172 249 360 2173 247 359 2174 102 10 2175 107 373 2176 287 239 2177 107 373 2178 106 340 2179 288 241 2180 288 241 2181 106 340 2182 105 339 2183 105 339 2184 104 374 2185 271 220 2186 104 374 2187 103 338 2188 267 214 2189 267 214 2190 103 338 2191 101 13 2192 254 32 2193 306 31 2194 323 264 2195 323 264 2196 327 269 2197 257 357 2198 327 269 2199 310 253 2200 258 356 2201 258 356 2202 310 253 2203 309 251 2204 309 251 2205 308 248 2206 260 354 2207 308 248 2208 305 250 2209 255 29 2210 342 375 2211 344 376 2212 320 263 2213 344 376 2214 345 383 2215 321 265 2216 321 265 2217 345 383 2218 346 377 2219 346 377 2220 347 378 2221 338 279 2222 347 378 2223 348 382 2224 334 275 2225 334 275 2226 348 382 2227 343 379 2228 160 21 2229 165 380 2230 331 274 2231 165 380 2232 164 348 2233 332 276 2234 332 276 2235 164 348 2236 163 347 2237 163 347 2238 162 381 2239 315 255 2240 162 381 2241 161 346 2242 311 249 2243 311 249 2244 161 346 2245 159 16 2246 298 33 2247 349 285 2248 355 284 2249 355 284 2250 359 290 2251 301 369 2252 359 290 2253 377 294 2254 302 368 2255 302 368 2256 377 294 2257 376 311 2258 376 311 2259 375 309 2260 304 366 2261 375 309 2262 351 35 2263 299 28 2264 343 379 2265 348 382 2266 364 298 2267 348 382 2268 347 378 2269 365 300 2270 365 300 2271 347 378 2272 346 377 2273 346 377 2274 345 383 2275 382 314 2276 345 383 2277 344 376 2278 378 310 2279 378 310 2280 344 376 2281 342 375 2282 204 22 2283 209 384 2284 352 283 2285 209 384 2286 208 353 2287 353 286 2288 353 286 2289 208 353 2290 207 352 2291 207 352 2292 206 385 2293 371 304 2294 206 385 2295 205 351 2296 367 299 2297 367 299 2298 205 351 2299 203 19 2300 1 1 2301 43 323 2302 7 54 2303</p>
        </triangles>
      </mesh>
    </geometry>
  </library_geometries>
  <library_visual_scenes>
    <visual_scene id="Scene" name="Scene">
      <node id="Cube" name="Cube" type="NODE">
        <matrix sid="transform">1 0 0 0 0 1 0 0 0 0 1 0 0 0 0 1</matrix>
        <instance_geometry url="#Cube_001-mesh" name="Cube">
          <bind_material>
            <technique_common>
              <instance_material symbol="default_mat-material" target="#default_mat-material">
                <bind_vertex_input semantic="UVMap" input_semantic="TEXCOORD" input_set="0"/>
              </instance_material>
            </technique_common>
          </bind_material>
        </instance_geometry>
      </node>
    </visual_scene>
  </library_visual_scenes>
  <scene>
    <instance_visual_scene url="#Scene"/>
  </scene>
</COLLADA>