<?xml version="1.0" encoding="utf-8"?>
<COLLADA xmlns="http://www.collada.org/2005/11/COLLADASchema" version="1.4.1" xmlns:xsi="http://www.w3.org/2001/XMLSchema-instance">
  <asset>
    <contributor>
      <author>Blender User</author>
      <authoring_tool>Blender 3.2.0 commit date:2022-06-08, commit time:10:22, hash:e05e1e369187</authoring_tool>
    </contributor>
    <created>2024-04-21T21:14:35</created>
    <modified>2024-04-21T21:14:35</modified>
    <unit name="meter" meter="1"/>
    <up_axis>Z_UP</up_axis>
  </asset>
  <library_images/>
  <library_geometries>
    <geometry id="Cube_001-mesh" name="Cube.001">
      <mesh>
        <source id="Cube_001-mesh-positions">
          <float_array id="Cube_001-mesh-positions-array" count="852">6 6 15 4 4 3.5 7.5 6 13.5 6 7.5 13.5 4 -7.5 3.5 6.388092 6 14.94892 6.750121 6 14.79897 7.060659 6 14.56066 6 6.388092 14.94892 6.387053 6.387054 14.89656 6.742818 6.378432 14.747 7.027758 6.370708 14.52776 6 6.750122 14.79897 6.378432 6.742817 14.747 6.708514 6.708515 14.61625 6.946766 6.676214 14.44677 6.866025 6.866025 14.36602 7.448925 6.388092 13.5 7.298967 6.750122 13.5 7.060659 7.060659 13.5 7.448925 6 13.88809 7.396559 6.387054 13.88705 7.247 6.742819 13.87843 7.027758 7.027758 13.87071 7.298967 6 14.25012 7.247 6.378432 14.24282 7.116249 6.708515 14.20851 6.946766 6.946766 14.17621 6 7.448925 13.88809 6 7.298967 14.25012 6 7.060659 14.56066 6.388092 7.448925 13.5 6.387053 7.396559 13.88705 6.378432 7.247 14.24282 6.370708 7.027758 14.52776 6.750121 7.298967 13.5 6.742816 7.247 13.87843 6.708514 7.116249 14.20851 6.676213 6.946766 14.44677 6 6 0 6 7.5 1.5 7.5 6 1.5 6 6.388092 0.05107498 6 6.750122 0.2010326 6 7.060659 0.4393406 6.388092 6 0.05107498 6.387053 6.387054 0.1034412 6.378432 6.742819 0.2530003 6.370708 7.027758 0.4722424 6.750121 6 0.2010326 6.742816 6.378432 0.2530003 6.708514 6.708515 0.3837509 6.676213 6.946766 0.5532341 6.866025 6.866025 0.633975 6.388092 7.448925 1.5 6.750121 7.298967 1.5 7.060659 7.060659 1.5 6 7.448925 1.111908 6.387053 7.396559 1.112946 6.742818 7.247 1.121568 7.027758 7.027758 1.129292 6 7.298967 0.7498784 6.378432 7.247 0.7571836 6.708514 7.116249 0.7914853 6.946766 6.946766 0.8237863 7.448925 6 1.111908 7.298967 6 0.7498784 7.060659 6 0.4393406 7.448925 6.388092 1.5 7.396559 6.387054 1.112946 7.247 6.378432 0.7571817 7.027758 6.370708 0.4722424 7.298967 6.750122 1.5 7.247 6.742817 1.121568 7.116249 6.708515 0.7914853 6.946766 6.676214 0.5532341 6 -6 15 6 -7.5 13.5 7.5 -6 13.5 6 -6.388092 14.94892 6 -6.750122 14.79897 6 -7.060659 14.56066 6.388092 -6 14.94892 6.387053 -6.387054 14.89656 6.378432 -6.742819 14.747 6.370708 -7.027758 14.52776 6.750121 -6 14.79897 6.742816 -6.378432 14.747 6.708514 -6.708515 14.61625 6.676213 -6.946766 14.44677 6.866025 -6.866025 14.36602 6.388092 -7.448925 13.5 6.750121 -7.298967 13.5 7.060659 -7.060659 13.5 6 -7.448925 13.88809 6.387053 -7.396559 13.88705 6.742818 -7.247 13.87843 7.027758 -7.027758 13.87071 6 -7.298967 14.25012 6.378432 -7.247 14.24282 6.708514 -7.116249 14.20851 6.946766 -6.946766 14.17621 7.448925 -6 13.88809 7.298967 -6 14.25012 7.060659 -6 14.56066 7.448925 -6.388092 13.5 7.396559 -6.387054 13.88705 7.247 -6.378432 14.24282 7.027758 -6.370708 14.52776 7.298967 -6.750122 13.5 7.247 -6.742817 13.87843 7.116249 -6.708515 14.20851 6.946766 -6.676214 14.44677 6 -6 0 7.5 -6 1.5 6 -7.5 1.5 6.388092 -6 0.05107498 6.750121 -6 0.2010326 7.060659 -6 0.4393406 6 -6.388092 0.05107498 6.387053 -6.387054 0.1034412 6.742818 -6.378432 0.2530003 7.027758 -6.370708 0.4722424 6 -6.750122 0.2010326 6.378432 -6.742817 0.2530003 6.708514 -6.708515 0.3837509 6.946766 -6.676214 0.5532341 6.866025 -6.866025 0.633975 7.448925 -6.388092 1.5 7.298967 -6.750122 1.5 7.060659 -7.060659 1.5 7.448925 -6 1.111908 7.396559 -6.387054 1.112946 7.247 -6.742819 1.121568 7.027758 -7.027758 1.129292 7.298967 -6 0.7498784 7.247 -6.378432 0.7571836 7.116249 -6.708515 0.7914853 6.946766 -6.946766 0.8237863 6 -7.448925 1.111908 6 -7.298967 0.7498784 6 -7.060659 0.4393406 6.388092 -7.448925 1.5 6.387053 -7.396559 1.112946 6.378432 -7.247 0.7571817 6.370708 -7.027758 0.4722424 6.750121 -7.298967 1.5 6.742816 -7.247 1.121568 6.708514 -7.116249 0.7914853 6.676213 -6.946766 0.5532341 -6 6 15 -6 7.5 13.5 -7.5 6 13.5 -6 6.388092 14.94892 -6 6.750122 14.79897 -6 7.060659 14.56066 -6.388092 6 14.94892 -6.387054 6.387054 14.89656 -6.378432 6.742819 14.747 -6.370708 7.027758 14.52776 -6.750122 6 14.79897 -6.742816 6.378432 14.747 -6.708515 6.708515 14.61625 -6.676214 6.946766 14.44677 -6.866025 6.866025 14.36602 -6.388092 7.448925 13.5 -6.750122 7.298967 13.5 -7.060659 7.060659 13.5 -6 7.448925 13.88809 -6.387054 7.396559 13.88705 -6.742818 7.247 13.87843 -7.027758 7.027758 13.87071 -6 7.298967 14.25012 -6.378432 7.247 14.24282 -6.708515 7.116249 14.20851 -6.946766 6.946766 14.17621 -7.448925 6 13.88809 -7.298967 6 14.25012 -7.060659 6 14.56066 -7.448925 6.388092 13.5 -7.396558 6.387054 13.88705 -7.247 6.378432 14.24282 -7.027758 6.370708 14.52776 -7.298967 6.750122 13.5 -7.247 6.742817 13.87843 -7.116249 6.708515 14.20851 -6.946766 6.676214 14.44677 -6 6 0 -7.5 6 1.5 -6 7.5 1.5 -6.388092 6 0.05107498 -6.750122 6 0.2010326 -7.060659 6 0.4393406 -6 6.388092 0.05107498 -6.387054 6.387054 0.1034412 -6.742818 6.378432 0.2530003 -7.027758 6.370708 0.4722424 -6 6.750122 0.2010326 -6.378432 6.742817 0.2530003 -6.708515 6.708515 0.3837509 -6.946766 6.676214 0.5532341 -6.866025 6.866025 0.633975 -7.448925 6.388092 1.5 -7.298967 6.750122 1.5 -7.060659 7.060659 1.5 -7.448925 6 1.111908 -7.396558 6.387054 1.112946 -7.247 6.742819 1.121568 -7.027758 7.027758 1.129292 -7.298967 6 0.7498784 -7.247 6.378432 0.7571836 -7.116249 6.708515 0.7914853 -6.946766 6.946766 0.8237863 -6 7.448925 1.111908 -6 7.298967 0.7498784 -6 7.060659 0.4393406 -6.388092 7.448925 1.5 -6.387054 7.396559 1.112946 -6.378432 7.247 0.7571817 -6.370708 7.027758 0.4722424 -6.750122 7.298967 1.5 -6.742816 7.247 1.121568 -6.708515 7.116249 0.7914853 -6.676214 6.946766 0.5532341 -6 -6 0 -6 -7.5 1.5 -7.5 -6 1.5 -6 -6.388092 0.05107498 -6 -6.750122 0.2010326 -6 -7.060659 0.4393406 -6.388092 -6 0.05107498 -6.387054 -6.387054 0.1034412 -6.378432 -6.742819 0.2530003 -6.370708 -7.027758 0.4722424 -6.750122 -6 0.2010326 -6.742816 -6.378432 0.2530003 -6.708515 -6.708515 0.3837509 -6.676214 -6.946766 0.5532341 -6.866025 -6.866025 0.633975 -6.388092 -7.448925 1.5 -6.750122 -7.298967 1.5 -7.060659 -7.060659 1.5 -6 -7.448925 1.111908 -6.387054 -7.396559 1.112946 -6.742818 -7.247 1.121568 -7.027758 -7.027758 1.129292 -6 -7.298967 0.7498784 -6.378432 -7.247 0.7571836 -6.708515 -7.116249 0.7914853 -6.946766 -6.946766 0.8237863 -7.448925 -6 1.111908 -7.298967 -6 0.7498784 -7.060659 -6 0.4393406 -7.448925 -6.388092 1.5 -7.396558 -6.387054 1.112946 -7.247 -6.378432 0.7571817 -7.027758 -6.370708 0.4722424 -7.298967 -6.750122 1.5 -7.247 -6.742817 1.121568 -7.116249 -6.708515 0.7914853 -6.946766 -6.676214 0.5532341 4 -6.750122 14.79897 4 -6.388092 14.94892 4 -7.298967 14.25012 4 -7.5 13.5 4 -7.448925 13.88809 4 -6 15 4 -7.060659 14.56066 4 4 15 -7.5 4 3.5 -6.750122 4 14.79897 -6.388092 4 14.94892 -7.448925 4 13.88809 -7.298967 4 14.25012 -7.5 4 13.5 -6 4 15 -7.060659 4 14.56066 -6.750122 -7.298967 3.5 -6.388092 -7.448925 3.5 -7.448925 -6.388092 3.5 -7.298967 -6.750122 3.5 -7.5 -6 3.5 -6 -7.5 3.5 -7.060659 -7.060659 3.5</float_array>
          <technique_common>
            <accessor source="#Cube_001-mesh-positions-array" count="284" stride="3">
              <param name="X" type="float"/>
              <param name="Y" type="float"/>
              <param name="Z" type="float"/>
            </accessor>
          </technique_common>
        </source>
        <source id="Cube_001-mesh-normals">
          <float_array id="Cube_001-mesh-normals-array" count="855">-1 0 0 0 -1 0 0 0 1 -0.0644434 0.2574792 0.9641326 0.06256484 0.4981271 0.864844 -0.06256341 0.4981277 0.8648438 0.06444454 0.2574791 -0.9641325 -0.06256538 0.4981272 -0.864844 0.06256455 0.4981276 -0.8648437 0.06506729 0.9957572 0.06506782 -0.06444412 0.9641325 0.2574793 0.0644446 0.9641326 0.2574786 -0.9641322 0.2574802 -0.06444501 -0.9957572 0.06506776 0.06506723 -0.9641323 0.25748 0.06444489 -0.9641321 -0.06444555 -0.25748 -0.8648439 0.06256526 -0.4981271 -0.864844 -0.06256401 -0.4981271 0.25748 0.06444466 0.9641323 0.0644437 0.257479 0.9641326 0.06506711 0.06506735 0.9957573 0.4981263 0.06256443 0.8648445 0.255687 0.2556878 0.9323347 0.7057848 0.06111907 0.7057849 0.4908087 0.2454771 0.8359712 0.2454771 0.4908105 0.8359701 0.6393405 0.4271829 0.6393423 0.4602486 0.4602497 0.7591716 0.06111836 0.7057844 0.7057854 0.4271842 0.6393409 0.6393411 0.2357428 0.6871759 0.6871789 0.5773493 0.5773506 0.5773509 0.9641326 0.2574787 0.06444472 0.9641324 0.06444519 0.2574791 0.9957572 0.06506776 0.06506723 0.8648445 0.4981263 0.06256431 0.9323348 0.2556869 0.2556877 0.7057843 0.7057855 0.06111854 0.8359704 0.4908107 0.2454764 0.8648432 0.06256538 0.4981284 0.8359704 0.2454769 0.4908103 0.6393402 0.6393426 0.427183 0.7591719 0.4602487 0.4602494 0.6871784 0.2357438 0.687176 0.2574795 0.9641324 0.06444436 0.06256538 0.8648443 0.4981264 0.2556873 0.9323351 0.2556864 0.2454775 0.8359698 0.4908111 0.4981278 0.8648436 0.06256484 0.4908099 0.8359705 0.245477 0.4602508 0.7591711 0.4602482 0.6871737 0.6871805 0.2357442 0.2574797 0.06444472 -0.9641323 0.06506735 0.06506735 -0.9957574 0.2556876 0.2556869 -0.9323347 0.06111901 0.7057857 -0.705784 0.2454776 0.4908105 -0.8359701 0.4981271 0.06256508 -0.864844 0.4908096 0.2454767 -0.8359708 0.427182 0.6393426 -0.6393408 0.4602491 0.4602485 -0.759172 0.7057843 0.06111884 -0.7057855 0.6393406 0.4271825 -0.6393424 0.6871759 0.2357434 -0.6871785 0.5773491 0.5773512 -0.5773506 0.2574797 0.9641323 -0.06444483 0.06444472 0.9641324 -0.2574792 0.06506729 0.9957572 -0.06506788 0.4981263 0.8648445 -0.06256395 0.2556871 0.932335 -0.2556868 0.7057843 0.7057854 -0.06111842 0.4908102 0.8359704 -0.245477 0.06256556 0.8648443 -0.4981266 0.2454774 0.8359702 -0.4908103 0.6393411 0.6393417 -0.4271828 0.4602481 0.7591719 -0.4602499 0.2357441 0.687178 -0.6871762 0.9641324 0.06444483 -0.2574795 0.9641324 0.2574794 -0.06444483 0.9957572 0.06506776 -0.06506729 0.8648441 0.06256401 -0.4981272 0.9323348 0.2556873 -0.2556873 0.8359704 0.2454766 -0.4908105 0.8648437 0.4981273 -0.0625655 0.8359702 0.4908106 -0.2454769 0.7591717 0.46025 -0.4602481 0.6871777 0.6871767 -0.2357437 0.06444346 -0.2574791 0.9641326 0.2574799 -0.06444472 0.9641323 0.06506556 -0.06506735 0.9957574 0.06256341 -0.4981274 0.8648439 0.2556877 -0.255687 0.9323347 0.06111937 -0.7057852 0.7057844 0.2454779 -0.4908105 0.8359699 0.4981282 -0.06256508 0.8648434 0.4908095 -0.2454767 0.8359708 0.4271836 -0.6393417 0.6393406 0.4602494 -0.4602484 0.7591719 0.7057846 -0.06111878 0.7057852 0.6393402 -0.4271827 0.6393427 0.6871761 -0.2357431 0.6871784 0.5773494 -0.5773505 0.5773509 0.2574796 -0.9641323 0.06444483 0.06444424 -0.9641326 0.257479 0.06506723 -0.9957572 0.06506782 0.498127 -0.8648442 0.06256389 0.2556868 -0.9323351 0.2556868 0.7057844 -0.7057853 0.06111842 0.4908106 -0.8359703 0.2454767 0.06256562 -0.8648441 0.4981269 0.2454774 -0.8359701 0.4908105 0.6393405 -0.639342 0.4271833 0.460249 -0.7591713 0.4602497 0.2357459 -0.6871774 0.6871763 0.9641325 -0.06444489 0.2574792 0.9641324 -0.2574793 0.06444478 0.9957572 -0.06506776 0.06506723 0.8648438 -0.06256484 0.4981276 0.9323346 -0.2556872 0.2556878 0.8359701 -0.245477 0.4908108 0.8648441 -0.4981269 0.06256538 0.8359702 -0.4908106 0.2454769 0.7591717 -0.4602503 0.4602478 0.6871764 -0.6871778 0.2357441 0.2574797 -0.06444472 -0.9641323 0.06444454 -0.2574791 -0.9641325 0.06506735 -0.06506735 -0.9957574 0.4981267 -0.06256437 -0.8648442 0.2556872 -0.2556877 -0.9323346 0.7057849 -0.06111901 -0.7057849 0.4908097 -0.245477 -0.8359708 0.06256544 -0.4981271 -0.864844 0.2454777 -0.4908104 -0.8359701 0.6393414 -0.4271825 -0.6393417 0.4602478 -0.46025 -0.759172 0.06111901 -0.7057847 -0.705785 0.4271821 -0.6393419 -0.6393415 0.235744 -0.6871759 -0.6871783 0.5773491 -0.5773512 -0.5773506 0.9641326 -0.2574788 -0.06444472 0.9641324 -0.06444531 -0.2574794 0.9957572 -0.06506776 -0.06506729 0.8648445 -0.4981263 -0.06256437 0.9323347 -0.2556869 -0.2556876 0.7057842 -0.7057856 -0.0611186 0.8359702 -0.4908105 -0.2454767 0.8648439 -0.06256526 -0.4981273 0.8359705 -0.2454765 -0.49081 0.6393406 -0.6393423 -0.4271826 0.759172 -0.4602481 -0.4602495 0.687178 -0.2357438 -0.6871764 0.2574797 -0.9641323 -0.06444436 0.06506735 -0.9957572 -0.06506782 0.06444472 -0.9641324 -0.2574796 0.06256455 -0.864844 -0.4981271 0.2556875 -0.932335 -0.2556862 0.2454773 -0.8359699 -0.4908109 0.4981274 -0.8648438 -0.0625649 0.4908099 -0.8359704 -0.2454772 0.4602497 -0.7591717 -0.4602485 0.6871751 -0.6871793 -0.2357437 -0.25748 0.06444483 0.9641323 -0.06506627 0.06506741 0.9957574 -0.2556877 0.2556872 0.9323347 -0.06111937 0.7057853 0.7057844 -0.2454777 0.4908105 0.8359701 -0.4981278 0.06256526 0.8648436 -0.4908099 0.2454767 0.8359706 -0.4271842 0.6393411 0.6393408 -0.4602498 0.4602481 0.7591718 -0.7057848 0.06111824 0.705785 -0.6393402 0.4271832 0.6393424 -0.6871764 0.2357432 0.6871783 -0.57735 0.5773502 0.5773506 -0.2574792 0.9641324 0.06444489 -0.06506723 0.9957572 0.06506782 -0.4981276 0.8648438 0.06256479 -0.2556867 0.9323349 0.2556871 -0.7057849 0.7057849 0.06111818 -0.4908109 0.8359702 0.2454766 -0.06256556 0.8648439 0.4981271 -0.245477 0.8359703 0.4908103 -0.639341 0.6393412 0.4271837 -0.4602488 0.7591716 0.4602495 -0.2357459 0.6871773 0.6871764 -0.9641323 0.06444567 0.2574797 -0.864844 0.06256413 0.4981272 -0.9323347 0.2556873 0.2556878 -0.8359706 0.2454758 0.4908103 -0.864844 0.498127 0.0625649 -0.8359706 0.49081 0.2454764 -0.7591717 0.4602503 0.4602478 -0.6871771 0.6871774 0.2357434 -0.2574796 0.06444472 -0.9641324 -0.06444454 0.2574792 -0.9641325 -0.06506729 0.06506735 -0.9957574 -0.4981271 0.06256437 -0.864844 -0.2556872 0.255688 -0.9323346 -0.7057855 0.06111901 -0.7057843 -0.4908101 0.245477 -0.8359704 -0.2454774 0.4908104 -0.8359701 -0.6393414 0.4271829 -0.6393414 -0.460248 0.4602501 -0.7591717 -0.06111901 0.7057846 -0.7057851 -0.4271827 0.6393413 -0.6393415 -0.235744 0.6871759 -0.6871783 -0.5773497 0.5773512 -0.57735 -0.9641322 0.06444609 -0.25748 -0.9957572 0.06506776 -0.06506735 -0.8648442 0.498127 -0.06256431 -0.9323347 0.255687 -0.2556876 -0.7057844 0.7057853 -0.06111824 -0.8359708 0.4908099 -0.2454763 -0.8359712 0.2454758 -0.4908096 -0.6393405 0.6393424 -0.4271827 -0.759172 0.4602481 -0.4602495 -0.6871783 0.2357439 -0.687176 -0.06444466 0.9641323 -0.2574798 -0.2574796 0.9641323 -0.06444537 -0.06506735 0.9957572 -0.06506782 -0.06256455 0.8648442 -0.4981269 -0.2556877 0.9323347 -0.255687 -0.2454772 0.8359702 -0.4908103 -0.4981279 0.8648436 -0.06256538 -0.4908102 0.8359704 -0.245477 -0.4602493 0.7591724 -0.4602476 -0.6871755 0.6871787 -0.2357441 -0.06444454 -0.2574791 -0.9641325 -0.2574796 -0.06444489 -0.9641324 -0.06506729 -0.06506741 -0.9957574 -0.06256449 -0.4981276 -0.8648438 -0.2556875 -0.2556872 -0.9323347 -0.06111907 -0.7057857 -0.705784 -0.2454773 -0.4908105 -0.8359701 -0.4981275 -0.06256526 -0.8648438 -0.49081 -0.2454767 -0.8359706 -0.4271827 -0.639342 -0.639341 -0.4602496 -0.4602482 -0.759172 -0.7057847 -0.06111866 -0.705785 -0.6393406 -0.4271829 -0.6393421 -0.6871761 -0.2357435 -0.6871784 -0.5773497 -0.5773512 -0.57735 -0.06506729 -0.9957572 -0.06506788 -0.2574796 -0.9641323 -0.06444495 -0.06444472 -0.9641324 -0.2574791 -0.4981272 -0.8648439 -0.06256484 -0.2556871 -0.9323348 -0.2556872 -0.705785 -0.7057847 -0.06111824 -0.4908105 -0.8359702 -0.2454769 -0.0625655 -0.8648442 -0.4981266 -0.245477 -0.8359704 -0.4908101 -0.6393413 -0.6393415 -0.4271829 -0.4602478 -0.7591723 -0.4602495 -0.2357441 -0.687178 -0.6871762 -0.9641322 -0.2574802 -0.06444495 -0.9957572 -0.06506776 -0.06506729 -0.9323347 -0.2556874 -0.2556873 -0.8359708 -0.2454758 -0.49081 -0.8648437 -0.4981275 -0.06256502 -0.8359706 -0.4908099 -0.2454764 -0.7591717 -0.46025 -0.4602481 -0.6871783 -0.6871763 -0.2357429 -0.7092441 -0.1900237 0.6788695 -0.7196989 -0.04715478 0.6926832 -0.6926831 -0.719699 0.04715478 -0.5191896 -0.6788846 0.5191896 -0.3671453 -0.6788694 0.635878 -0.3671451 -0.635878 0.6788694 -0.1900236 -0.7092441 0.6788696 -0.6788696 -0.7092441 0.1900236 -0.6358779 -0.6788694 0.3671455 -0.6358779 -0.3671451 0.6788694 -0.6788845 -0.5191897 0.5191897 -0.3015114 -0.3015114 0.9045341 -0.6788694 -0.6358781 0.3671452 -0.5191897 -0.5191897 0.6788846 -0.6926826 -0.04715478 0.7196995 -0.6788697 -0.1900236 0.709244 -0.9045341 -0.3015114 0.3015114 -0.7196992 -0.6926829 0.04715478 -0.7092439 -0.6788697 0.190024 -0.1900238 -0.6788697 0.709244 -0.6788692 -0.3671452 0.6358782 -0.04715478 -0.6926831 0.719699 -0.04715478 -0.719699 0.6926831</float_array>
          <technique_common>
            <accessor source="#Cube_001-mesh-normals-array" count="285" stride="3">
              <param name="X" type="float"/>
              <param name="Y" type="float"/>
              <param name="Z" type="float"/>
            </accessor>
          </technique_common>
        </source>
        <source id="Cube_001-mesh-map-0">
          <float_array id="Cube_001-mesh-map-0-array" count="3384">0.5803571 0.21875 0.375 0 0.5535715 0.25 0.5725117 0.8024882 0.5605016 0.7955549 0.5794451 0.8144984 0.3035714 0.5 0.125 0.75 0.3303571 0.53125 0.375 0.25 0.5612658 0.25 0.5535715 0.25 0.3112658 0.5 0.125 0.5 0.3035714 0.5 0 0 0 0 0 0 0 0 0 0 0 0 0 0 0 0 0 0 0 0 0 0 0 0 0 0 0 0 0 0 0 0 0 0 0 0 0 0 0 0 0 0 0 0 0 0 0 0 0 0 0 0 0 0 0 0 0 0 0 0 0 0 0 0 0 0 0 0 0 0 0 0 0 0 0 0 0 0 0 0 0 0 0 0 0 0 0 0 0 0 0 0 0 0 0 0 0 0 0 0 0 0 0 0 0 0 0 0 0 0 0 0 0 0 0 0 0 0 0 0 0 0 0 0 0 0 0 0 0 0 0 0 0 0 0 0 0 0 0 0 0 0 0 0 0 0 0 0 0 0 0 0 0 0 0 0 0 0 0 0 0 0 0 0 0 0 0 0 0 0 0 0 0 0 0 0 0 0 0 0 0 0 0 0 0 0 0 0 0 0 0 0 0 0 0 0 0 0 0 0 0 0 0 0 0 0 0 0 0 0 0 0 0 0 0 0 0 0 0 0 0 0 0 0 0 0 0 0 0 0 0 0 0 0 0 0 0 0 0 0 0 0 0 0 0 0 0 0 0 0 0 0 0 0 0 0 0 0 0 0 0 0 0 0 0 0 0 0 0 0 0 0 0 0 0 0 0 0 0 0 0 0 0 0 0 0 0 0 0 0 0 0 0 0 0 0 0 0 0 0 0 0 0 0 0 0 0 0 0 0 0 0 0 0 0 0 0 0 0 0 0 0 0 0 0 0 0 0 0 0 0 0 0 0 0 0 0 0 0 0 0 0 0 0 0 0 0 0 0 0 0 0 0 0 0 0 0 0 0 0 0 0 0 0 0 0 0 0 0 0 0 0 0 0 0 0 0 0 0 0 0 0 0 0 0 0 0 0 0 0 0 0 0 0 0 0 0 0 0 0 0 0 0 0 0 0 0 0 0 0 0 0 0 0 0 0 0 0 0 0 0 0 0 0 0 0 0 0 0 0 0 0 0 0 0 0 0 0 0 0 0 0 0 0 0 0 0 0 0 0 0 0 0 0 0 0 0 0 0 0 0 0 0 0 0 0 0 0 0 0 0 0 0 0 0 0 0 0 0 0 0 0 0 0 0 0 0 0 0 0 0 0 0 0 0 0 0 0 0 0 0 0 0 0 0 0 0 0 0 0 0 0 0 0 0 0 0 0 0 0 0 0 0 0 0 0 0 0 0 0 0 0 0 0 0 0 0 0 0 0 0 0 0 0 0 0 0 0 0 0 0 0 0 0 0 0 0 0 0 0 0 0 0 0 0 0 0 0 0 0 0 0 0 0 0 0 0 0 0 0 0 0 0 0 0 0 0 0 0 0 0 0 0 0 0 0 0 0 0 0 0 0 0 0 0 0 0 0 0 0 0 0 0 0 0 0 0 0 0 0 0 0 0 0 0 0 0 0 0 0 0 0 0 0 0 0 0 0 0 0 0 0 0 0 0 0 0 0 0 0 0 0 0 0 0 0 0 0 0 0 0 0 0 0 0 0 0 0 0 0 0 0 0 0 0 0 0 0 0 0 0 0 0 0 0 0 0 0 0 0 0 0 0 0 0 0 0 0 0 0 0 0 0 0 0 0 0 0 0 0 0 0 0 0 0 0 0 0 0 0 0 0 0 0 0 0 0 0 0 0 0 0 0 0 0 0 0 0 0 0 0 0 0 0 0 0 0 0 0 0 0 0 0 0 0 0 0 0 0 0 0 0 0 0 0 0 0 0 0 0 0 0 0 0 0 0 0 0 0 0 0 0 0 0 0 0 0 0 0 0 0 0 0 0 0 0 0 0 0 0 0 0 0 0 0 0 0 0 0 0 0 0 0 0 0 0 0 0 0 0 0 0 0 0 0 0 0 0 0 0 0 0 0 0 0 0 0 0 0 0 0 0 0 0 0 0 0 0 0 0 0 0 0 0 0 0 0 0 0 0 0 0 0 0 0 0 0 0 0 0 0 0 0 0 0 0 0 0 0 0 0 0 0 0 0 0 0 0 0 0 0 0 0 0 0 0 0 0 0 0 0 0 0 0 0 0 0 0 0 0 0 0 0 0 0 0 0 0 0 0 0 0 0 0 0 0 0 0 0 0 0 0 0 0 0 0 0 0 0 0 0 0 0 0 0 0 0 0 0 0 0 0 0 0 0 0 0 0 0 0 0 0 0 0 0 0 0 0 0 0 0 0 0 0 0 0 0 0 0 0 0 0 0 0 0 0 0 0 0 0 0 0 0 0 0 0 0 0 0 0 0 0 0 0 0 0 0 0 0 0 0 0 0 0 0 0 0 0 0 0 0 0 0 0 0 0 0 0 0 0 0 0 0 0 0 0 0 0 0 0 0 0 0 0 0 0 0 0 0 0 0 0 0 0 0 0 0 0 0 0 0 0 0 0 0 0 0 0 0 0 0 0 0 0 0 0 0 0 0 0 0 0 0 0 0 0 0 0 0 0 0 0 0 0 0 0 0 0 0 0 0 0 0 0 0 0 0 0 0 0 0 0 0 0 0 0 0 0 0 0 0 0 0 0 0 0 0 0 0 0 0 0 0 0 0 0 0 0 0 0 0 0 0 0 0 0 0 0 0 0 0 0 0 0 0 0 0 0 0 0 0 0 0 0 0 0 0 0 0 0 0 0 0 0 0 0 0 0 0 0 0 0 0 0 0 0 0 0 0 0 0 0 0 0 0 0 0 0 0 0 0 0 0 0 0 0 0 0 0 0 0 0 0 0 0 0 0 0 0 0 0 0 0 0 0 0 0 0 0 0 0 0 0 0 0 0 0 0 0 0 0 0 0 0 0 0 0 0 0 0 0 0 0 0 0 0 0 0 0 0 0 0 0 0 0 0 0 0 0 0 0 0 0 0 0 0 0 0 0 0 0 0 0 0 0 0 0 0 0 0 0 0 0 0 0 0 0 0 0 0 0 0 0 0 0 0 0 0 0 0 0 0 0 0 0 0 0 0 0 0 0 0 0 0 0 0 0 0 0 0 0 0 0 0 0 0 0 0 0 0 0 0 0 0 0 0 0 0 0 0 0 0 0 0 0 0 0 0 0 0 0 0 0 0 0 0 0 0 0 0 0 0 0 0 0 0 0 0 0 0 0 0 0 0 0 0 0 0 0 0 0 0 0 0 0 0 0 0 0 0 0 0 0 0 0 0 0 0 0 0 0 0 0 0 0 0 0 0 0 0 0 0 0 0 0 0 0 0 0 0 0 0 0 0 0 0 0 0 0 0 0 0 0 0 0 0 0 0 0 0 0 0 0 0 0 0 0 0 0 0 0 0 0 0 0 0 0 0 0 0 0 0 0 0 0 0 0 0 0 0 0 0 0 0 0 0 0 0 0 0 0 0 0 0 0 0 0 0 0 0 0 0 0 0 0 0 0 0 0 0 0 0 0 0 0 0 0 0 0 0 0 0 0 0 0 0 0 0 0 0 0 0 0 0 0 0 0 0 0 0 0 0 0 0 0 0 0 0 0 0 0 0 0 0 0 0 0 0 0 0 0 0 0 0 0 0 0 0 0 0 0 0 0 0 0 0 0 0 0 0 0 0 0 0 0 0 0 0 0 0 0 0 0 0 0 0 0 0 0 0 0 0 0 0 0 0 0 0 0 0 0 0 0 0 0 0 0 0 0 0 0 0 0 0 0 0 0 0 0 0 0 0 0 0 0 0 0 0 0 0 0 0 0 0 0 0 0 0 0 0 0 0 0 0 0 0 0 0 0 0 0 0 0 0 0 0 0 0 0 0 0 0 0 0 0 0 0 0 0 0 0 0 0 0 0 0 0 0 0 0 0 0 0 0 0 0 0 0 0 0 0 0 0 0 0 0 0 0 0 0 0 0 0 0 0 0 0 0 0 0 0 0 0 0 0 0 0 0 0 0 0 0 0 0 0 0 0 0 0 0 0 0 0 0 0 0 0 0 0 0 0 0 0 0 0 0 0 0 0 0 0 0 0 0 0 0 0 0 0 0 0 0 0 0 0 0 0 0 0 0 0 0 0 0 0 0 0 0 0 0 0 0 0 0 0 0 0 0 0 0 0 0 0 0 0 0 0 0 0 0 0 0 0 0 0 0 0 0 0 0 0 0 0 0 0 0 0 0 0 0 0 0 0 0 0 0 0 0 0 0 0 0 0 0 0 0 0 0 0 0 0 0 0 0 0 0 0 0 0 0 0 0 0 0 0 0 0 0 0 0 0 0 0 0 0 0 0 0 0 0 0 0 0 0 0 0 0 0 0 0 0 0 0 0 0 0 0 0 0 0 0 0 0 0 0 0 0 0 0 0 0 0 0 0 0 0 0 0 0 0 0 0 0 0 0 0 0 0 0 0 0 0 0 0 0 0 0 0 0 0 0 0 0 0 0 0 0 0 0 0 0 0 0 0 0 0 0 0 0 0 0 0 0 0 0 0 0 0 0 0 0 0 0 0 0 0 0 0 0 0 0 0 0 0 0 0 0 0 0 0 0 0 0 0 0 0 0 0 0 0 0 0 0 0 0 0 0 0 0 0 0 0 0 0 0 0 0 0 0 0 0 0 0 0 0 0 0 0 0 0 0 0 0 0 0 0 0 0 0 0 0 0 0 0 0 0 0 0 0 0 0 0 0 0 0 0 0 0 0 0 0 0 0 0 0 0 0 0 0 0 0 0 0 0 0 0 0 0 0 0 0 0 0 0 0 0 0 0 0 0 0 0 0 0 0 0 0 0 0 0 0 0 0 0 0 0 0 0 0 0 0 0 0 0 0 0 0 0 0 0 0 0 0 0 0 0 0 0 0 0 0 0 0 0 0 0 0 0 0 0 0 0 0 0 0 0 0 0 0 0 0 0 0 0 0 0 0 0 0 0 0 0 0 0 0 0 0 0 0 0 0 0 0 0 0 0 0 0 0 0 0 0 0 0 0 0 0 0 0 0 0 0 0 0 0 0 0 0 0 0 0 0 0 0 0 0 0 0 0 0 0 0 0 0 0 0 0 0 0 0 0 0 0 0 0 0 0 0 0 0 0 0 0 0 0 0 0 0 0 0 0 0 0 0 0 0 0 0 0 0 0 0 0 0 0 0 0 0 0 0 0 0 0 0 0 0 0 0 0 0 0 0 0 0 0 0 0 0 0 0 0 0 0 0 0 0 0 0 0 0 0 0 0 0 0 0 0 0 0 0 0 0 0 0 0 0 0 0 0 0 0 0 0 0 0 0 0 0 0 0 0 0 0 0 0 0 0 0 0 0 0 0 0 0 0 0 0 0 0 0 0 0 0 0 0 0 0 0 0 0 0 0 0 0 0 0 0 0 0 0 0 0 0 0 0 0 0 0 0 0 0 0 0 0 0 0 0 0 0 0 0 0 0 0 0 0 0 0 0 0 0 0 0 0 0 0 0 0 0 0 0 0 0 0 0 0 0 0 0 0 0 0 0 0 0 0 0 0 0 0 0 0 0 0 0 0 0 0 0 0 0 0 0 0 0 0 0 0 0 0 0 0 0 0 0 0 0 0 0 0 0 0 0 0 0 0 0 0 0 0 0 0 0 0 0 0 0 0 0 0 0 0 0 0 0 0 0 0 0 0 0 0 0 0 0 0 0 0 0 0 0 0 0 0 0 0 0 0 0 0 0 0 0 0 0 0 0 0 0 0 0 0 0 0 0 0 0 0 0 0 0 0 0 0 0 0 0 0 0 0 0 0 0 0 0 0 0 0 0 0 0 0 0 0 0 0 0 0 0 0 0 0 0 0 0 0 0 0 0 0 0 0 0 0 0 0 0 0 0 0 0 0 0 0 0 0 0 0 0 0 0 0 0 0 0 0 0 0 0 0 0 0 0 0 0 0 0 0 0 0 0 0 0 0 0 0 0 0 0 0 0 0 0 0 0 0 0 0 0 0 0 0 0 0 0 0 0 0 0 0 0 0 0 0 0 0 0 0 0 0 0 0 0 0 0 0 0 0 0 0 0 0 0 0 0 0 0 0 0 0 0 0 0 0 0 0 0 0 0 0 0 0 0 0 0 0 0 0 0 0 0 0 0 0 0 0 0 0 0 0 0 0 0 0 0 0 0 0 0 0 0 0 0 0 0 0 0 0 0 0 0 0 0 0 0 0 0 0 0 0 0 0 0 0 0 0 0 0 0 0 0.5669664 0.2458118 0.5725118 0.240847 0.5803571 0.21875 0.5725118 0.240847 0.5767673 0.2343775 0.5803571 0.21875 0.5767673 0.2343775 0.5794451 0.2268352 0.5803571 0.21875 0.5803571 0.21875 0.5803571 0 0.375 0 0.375 0 0.375 0.25 0.5535715 0.25 0.5535715 0.25 0.5605016 0.2489359 0.5803571 0.21875 0.5605016 0.2489359 0.5669664 0.2458118 0.5803571 0.21875 0.5725117 0.8024882 0.5669665 0.7982328 0.5605016 0.7955549 0.5605016 0.7955549 0.5535715 0.7946428 0.5794451 0.8144984 0.5535715 0.7946428 0.375 0.7946428 0.375 1 0.5794451 0.8144984 0.5535715 0.7946428 0.5803571 0.8214285 0.375 1 0.5803571 1 0.5803571 0.8214285 0.375 1 0.5803571 0.8214285 0.5535715 0.7946428 0.5794451 0.8144984 0.5767673 0.8080335 0.5725117 0.8024882 0.3303571 0.53125 0.3294451 0.5231648 0.3267673 0.5156225 0.3267673 0.5156225 0.3225118 0.509153 0.3303571 0.53125 0.3225118 0.509153 0.3169665 0.5041882 0.3303571 0.53125 0.3169665 0.5041882 0.3105016 0.5010641 0.3035714 0.5 0.3035714 0.5 0.125 0.5 0.125 0.75 0.125 0.75 0.3303571 0.75 0.3303571 0.53125 0.3169665 0.5041882 0.3035714 0.5 0.3303571 0.53125 0.375 0.25 0.375 0.25 0.5612658 0.25 0.3112658 0.5 0.125 0.5 0.125 0.5 0 0 0 0 0 0 0 0 0 0 0 0 0 0 0 0 0 0 0 0 0 0 0 0 0 0 0 0 0 0 0 0 0 0 0 0 0 0 0 0 0 0 0 0 0 0 0 0 0 0 0 0 0 0 0 0 0 0 0 0 0 0 0 0 0 0 0 0 0 0 0 0 0 0 0 0 0 0 0 0 0 0 0 0 0 0 0 0 0 0 0 0 0 0 0 0 0 0 0 0 0 0 0 0 0 0 0 0 0 0 0 0 0 0 0 0 0 0 0 0 0 0 0 0 0 0 0 0 0 0 0 0 0 0 0 0 0 0 0 0 0 0 0 0 0 0 0 0 0 0 0 0 0 0 0 0 0 0 0 0 0 0 0 0 0 0 0 0 0 0 0 0 0 0 0 0 0 0 0 0 0 0 0 0 0 0 0 0 0 0 0 0 0 0 0 0 0 0 0 0 0 0 0 0 0 0 0 0 0 0 0 0 0 0 0 0 0 0 0 0 0 0 0 0 0 0 0 0 0 0 0 0 0 0 0 0 0 0 0 0 0 0 0 0 0 0 0 0 0 0 0 0 0 0 0 0 0 0 0 0 0 0 0 0 0 0 0 0 0 0 0 0 0 0 0 0 0 0 0 0 0 0 0 0 0 0 0 0 0 0 0 0 0 0 0 0 0 0 0 0 0 0 0 0 0 0 0 0 0 0 0 0 0 0 0 0 0 0 0 0 0 0 0 0 0 0 0 0 0 0 0 0 0 0 0 0 0 0 0 0 0 0 0 0 0 0 0 0 0 0 0 0 0 0 0 0 0 0 0 0 0 0 0 0 0 0 0 0 0 0 0 0 0 0 0 0 0 0 0 0 0 0 0 0 0 0 0 0 0 0 0 0 0 0 0 0 0 0 0 0 0 0 0 0 0 0 0 0 0 0 0 0 0 0 0 0 0 0 0 0 0 0 0 0 0 0 0 0 0 0 0 0 0 0 0 0 0 0 0 0 0 0 0 0 0 0 0 0 0 0 0 0 0 0 0 0 0 0 0 0 0 0 0 0 0 0 0 0 0 0 0 0 0 0 0 0 0 0 0 0 0 0 0 0 0 0</float_array>
          <technique_common>
            <accessor source="#Cube_001-mesh-map-0-array" count="1692" stride="2">
              <param name="S" type="float"/>
              <param name="T" type="float"/>
            </accessor>
          </technique_common>
        </source>
        <source id="Cube_001-mesh-map-1">
          <float_array id="Cube_001-mesh-map-1-array" count="3384">0 0 0 0 0 0 0 0 0 0 0 0 0 0 0 0 0 0 0 0 0 0 0 0 0 0 0 0 0 0 0.6855942 0.3605647 0.6760806 0.6391524 0.6765879 0.360264 0.3149143 0.6388918 0.3234063 0.360264 0.3239137 0.6391524 0.6392651 0.6388846 0.6478034 0.3606612 0.6481876 0.6389694 0.3605862 0.3144214 0.638868 0.3059263 0.638868 0.3059263 0.3522516 0.02726483 0.3427532 0.3058351 0.343254 0.02697247 0.6938886 0.6477338 0.6850801 0.6388918 0.6940034 0.6388108 0.6935939 0.6567322 0.6850459 0.6477345 0.6938886 0.6477338 0.6931985 0.6659321 0.684695 0.6565854 0.6935939 0.6567322 0.6850459 0.6477345 0.6760806 0.6391524 0.6850801 0.6388918 0.684695 0.6565854 0.6761937 0.6480518 0.6850459 0.6477345 0.684695 0.6565854 0.6759054 0.6637088 0.6762608 0.6564863 0.6761937 0.6480518 0.6668793 0.639513 0.6760806 0.6391524 0.6761937 0.6480518 0.669037 0.6568144 0.6675939 0.6487543 0.6762608 0.6564863 0.6704291 0.6622959 0.669037 0.6568144 0.6389074 0.6852635 0.6477464 0.6940733 0.6388242 0.6941861 0.6391702 0.676265 0.6477493 0.6852316 0.6389074 0.6852635 0.639533 0.6670646 0.6480688 0.6763802 0.6391702 0.676265 0.6477493 0.6852316 0.656744 0.693781 0.6477464 0.6940733 0.6480688 0.6763802 0.6565994 0.6848828 0.6477493 0.6852316 0.6480688 0.6763802 0.6568323 0.6692264 0.6565025 0.6764494 0.6565994 0.6848828 0.665943 0.6933879 0.656744 0.693781 0.6565994 0.6848828 0.6637243 0.6760959 0.6651958 0.68415 0.6565025 0.6764494 0.662313 0.6706197 0.6637243 0.6760959 0.6481876 0.6389694 0.6393762 0.6478068 0.6392651 0.6388846 0.657186 0.6392337 0.648218 0.6478111 0.6481876 0.6389694 0.6663861 0.639598 0.6570693 0.6481322 0.657186 0.6392337 0.648218 0.6478111 0.6396672 0.6568044 0.6393762 0.6478068 0.6570693 0.6481322 0.6485652 0.6566613 0.648218 0.6478111 0.6570693 0.6481322 0.6642215 0.6568968 0.6569987 0.6565658 0.6485652 0.6566613 0.6400586 0.6660036 0.6396672 0.6568044 0.6485652 0.6566613 0.6573511 0.6637877 0.6492968 0.6652578 0.6569987 0.6565658 0.6628273 0.6623772 0.6573511 0.6637877 0.3149143 0.6388918 0.3061057 0.6477338 0.3059909 0.6388108 0.3239137 0.6391524 0.3149484 0.6477345 0.3149143 0.6388918 0.333115 0.6395129 0.3238007 0.6480519 0.3239137 0.6391524 0.3149484 0.6477345 0.3064005 0.6567322 0.3061057 0.6477338 0.3238007 0.6480519 0.3152994 0.6565855 0.3149484 0.6477345 0.3238007 0.6480519 0.3309574 0.6568144 0.3237336 0.6564864 0.3152994 0.6565855 0.3067958 0.6659321 0.3064005 0.6567322 0.3152994 0.6565855 0.3240891 0.6637088 0.3160345 0.6651825 0.3237336 0.6564864 0.3295652 0.6622959 0.3240891 0.6637088 0.3610907 0.6482416 0.3522518 0.6394318 0.3611739 0.6393192 0.3608279 0.6572403 0.352249 0.6482737 0.3610907 0.6482416 0.3604652 0.6664406 0.3519294 0.657125 0.3608279 0.6572403 0.352249 0.6482737 0.3432543 0.6397243 0.3522518 0.6394318 0.3519294 0.657125 0.3433988 0.6486224 0.352249 0.6482737 0.3519294 0.657125 0.3431659 0.6642788 0.3434957 0.6570557 0.3433988 0.6486224 0.3340553 0.6401173 0.3432543 0.6397243 0.3433988 0.6486224 0.3362739 0.6574093 0.3348024 0.6493552 0.3434957 0.6570557 0.3376852 0.6628854 0.3362739 0.6574093 0.3518106 0.694536 0.360622 0.6856985 0.360733 0.6946207 0.3428122 0.6942717 0.3517802 0.6856942 0.3518106 0.694536 0.333612 0.6939074 0.342929 0.6853732 0.3428122 0.6942717 0.3517802 0.6856942 0.3603311 0.6767009 0.360622 0.6856985 0.342929 0.6853732 0.3514329 0.676844 0.3517802 0.6856942 0.342929 0.6853732 0.3357766 0.6766086 0.3429995 0.6769395 0.3514329 0.676844 0.3599396 0.6675017 0.3603311 0.6767009 0.3514329 0.676844 0.3426471 0.6697176 0.3507015 0.6682475 0.3429995 0.6769395 0.3371708 0.6711281 0.3426471 0.6697176 0.9810597 0.6394706 0.9722082 0.6482796 0.9721289 0.6393512 0.9900659 0.6397714 0.9810559 0.6483185 0.9810597 0.6394706 0.9992746 0.6401742 0.9899122 0.648676 0.9900659 0.6397714 0.9810559 0.6483185 0.9724661 0.6572823 0.9722082 0.6482796 0.9899122 0.648676 0.9813684 0.6571745 0.9810559 0.6483185 0.9899122 0.648676 0.9970319 0.6574763 0.9898064 0.657114 0.9813684 0.6571745 0.9728233 0.6664853 0.9724661 0.6572823 0.9813684 0.6571745 0.9901285 0.6643402 0.9820654 0.6657767 0.9898064 0.657114 0.9956131 0.662953 0.9901285 0.6643402 0.6939109 0.3144174 0.6850906 0.3055689 0.6940261 0.3054876 0.6936183 0.3234218 0.6850588 0.3144208 0.6939109 0.3144174 0.6932271 0.3326266 0.6847116 0.3232802 0.6936183 0.3234218 0.6850588 0.3144208 0.676078 0.3058311 0.6850906 0.3055689 0.6847116 0.3232802 0.6761953 0.3147424 0.6850588 0.3144208 0.6847116 0.3232802 0.6759183 0.3304172 0.6762681 0.3231868 0.6761953 0.3147424 0.6668612 0.306194 0.676078 0.3058311 0.6761953 0.3147424 0.6690354 0.323521 0.6675834 0.3154509 0.6762681 0.3231868 0.6704344 0.3290079 0.6690354 0.323521 0.6482321 0.9723813 0.6394119 0.9812299 0.6392967 0.9723001 0.6572448 0.9726436 0.6482641 0.9812332 0.6482321 0.9723813 0.6664616 0.9730064 0.6571274 0.9815548 0.6572448 0.9726436 0.6482641 0.9812332 0.6397045 0.9902343 0.6394119 0.9812299 0.6571274 0.9815548 0.6486112 0.9900926 0.6482641 0.9812332 0.6571274 0.9815548 0.6642875 0.9903334 0.6570547 0.9899992 0.6486112 0.9900926 0.6400957 0.999439 0.6397045 0.9902343 0.6486112 0.9900926 0.6574044 0.9972296 0.6493408 0.9986971 0.6570547 0.9899992 0.6628884 0.9958203 0.6574044 0.9972296 0.02778607 0.6482796 0.0189346 0.6394707 0.0278654 0.6393513 0.02752816 0.6572824 0.01893842 0.6483185 0.02778607 0.6482796 0.02717107 0.6664853 0.01862591 0.6571746 0.02752816 0.6572824 0.01893842 0.6483185 0.009928405 0.6397714 0.0189346 0.6394707 0.01862591 0.6571746 0.010082 0.648676 0.01893842 0.6483185 0.01862591 0.6571746 0.00986588 0.6643403 0.01018792 0.657114 0.010082 0.648676 7.19756e-4 0.6401743 0.009928405 0.6397714 0.010082 0.648676 0.00296247 0.6574763 0.001479864 0.6494193 0.01018792 0.657114 0.004381239 0.6629531 0.00296247 0.6574763 0.3610427 0.981665 0.352195 0.9728441 0.3611301 0.9727349 0.3607783 0.9906703 0.3521907 0.981696 0.3610427 0.981665 0.3604159 0.9998763 0.3518713 0.9905565 0.3607783 0.9906703 0.3521907 0.981696 0.3431832 0.9731345 0.352195 0.9728441 0.3518713 0.9905565 0.3433283 0.9820454 0.3521907 0.981696 0.3518713 0.9905565 0.3431003 0.997721 0.3434275 0.9904896 0.3433283 0.9820454 0.3339675 0.9735261 0.3431832 0.9731345 0.3433283 0.9820454 0.3361958 0.9908464 0.3347185 0.9827808 0.3434275 0.9904896 0.3376119 0.9963288 0.3361958 0.9908464 0.9722801 0.3148523 0.9721928 0.3059222 0.9811279 0.3060314 0.9901396 0.3063217 0.9811322 0.3148833 0.9811279 0.3060314 0.9993553 0.3067134 0.9899945 0.3152326 0.9901396 0.3063217 0.9811322 0.3148833 0.9725445 0.3238575 0.9722801 0.3148523 0.9899945 0.3152326 0.9814516 0.3237437 0.9811322 0.3148833 0.9899945 0.3152326 0.997127 0.3240335 0.9898954 0.3236767 0.9814516 0.3237437 0.9729069 0.3330634 0.9725445 0.3238575 0.9814516 0.3237437 0.9902225 0.3309081 0.9821542 0.3323505 0.9898954 0.3236767 0.9957108 0.329516 0.9902225 0.3309081 0.6855942 0.3605647 0.6944456 0.3517558 0.694525 0.3606842 0.6765879 0.360264 0.685598 0.3517169 0.6855942 0.3605647 0.6673793 0.3598611 0.6767416 0.3513594 0.6765879 0.360264 0.685598 0.3517169 0.6941878 0.3427531 0.6944456 0.3517558 0.6767416 0.3513594 0.6852855 0.3428608 0.685598 0.3517169 0.6767416 0.3513594 0.669622 0.342559 0.6768475 0.3429214 0.6852855 0.3428608 0.6938306 0.3335501 0.6941878 0.3427531 0.6852855 0.3428608 0.6765254 0.3356951 0.6845884 0.3342586 0.6768475 0.3429214 0.6710408 0.3370823 0.6765254 0.3356951 0.6389556 0.3518403 0.6478034 0.3606612 0.6388683 0.3607704 0.63922 0.342835 0.6478077 0.3518092 0.6389556 0.3518403 0.6395824 0.333629 0.6481271 0.3429488 0.63922 0.342835 0.6478077 0.3518092 0.6568151 0.3603708 0.6478034 0.3606612 0.6481271 0.3429488 0.65667 0.35146 0.6478077 0.3518092 0.6481271 0.3429488 0.656898 0.3357843 0.6565709 0.3430158 0.65667 0.35146 0.6660308 0.3599792 0.6568151 0.3603708 0.65667 0.35146 0.6638025 0.342659 0.6652798 0.3507245 0.6565709 0.3430158 0.6623864 0.3371765 0.6638025 0.342659 0.6478031 0.3060355 0.6389553 0.3148564 0.638868 0.3059263 0.6568149 0.3063258 0.6478074 0.3148874 0.6478031 0.3060355 0.6660305 0.3067175 0.6566697 0.3152367 0.6568149 0.3063258 0.6478074 0.3148874 0.6392198 0.3238616 0.6389553 0.3148564 0.6566697 0.3152367 0.6481268 0.3237478 0.6478074 0.3148874 0.6566697 0.3152367 0.6638022 0.3240376 0.6565706 0.3236808 0.6481268 0.3237478 0.6395822 0.3330676 0.6392198 0.3238616 0.6481268 0.3237478 0.6568977 0.3309122 0.6488295 0.3323546 0.6565706 0.3236808 0.6623861 0.3295202 0.6568977 0.3309122 0.3055487 0.3517558 0.3144001 0.3605647 0.3054693 0.3606842 0.3058065 0.3427531 0.3143963 0.3517169 0.3055487 0.3517558 0.3061637 0.3335501 0.3147088 0.3428608 0.3058065 0.3427531 0.3143963 0.3517169 0.3234063 0.360264 0.3144001 0.3605647 0.3147088 0.3428608 0.3232527 0.3513594 0.3143963 0.3517169 0.3147088 0.3428608 0.3234689 0.3356951 0.3231468 0.3429214 0.3232527 0.3513594 0.332615 0.3598611 0.3234063 0.360264 0.3232527 0.3513594 0.3303722 0.3425591 0.3318548 0.3506161 0.3231468 0.3429214 0.3289535 0.3370823 0.3303722 0.3425591 0.3605862 0.3144214 0.3517659 0.3055729 0.3607013 0.3054916 0.3602936 0.3234258 0.351734 0.3144248 0.3605862 0.3144214 0.3599025 0.3326306 0.3513869 0.3232842 0.3602936 0.3234258 0.351734 0.3144248 0.3427532 0.3058351 0.3517659 0.3055729 0.3513869 0.3232842 0.3428705 0.3147464 0.351734 0.3144248 0.3513869 0.3232842 0.3425936 0.3304212 0.3429433 0.3231908 0.3428705 0.3147464 0.3335364 0.3061979 0.3427532 0.3058351 0.3428705 0.3147464 0.3357106 0.323525 0.3342586 0.3154549 0.3429433 0.3231908 0.3371096 0.3290119 0.3357106 0.323525 0.3517662 0.3611238 0.3605864 0.3522753 0.3607016 0.361205 0.3427535 0.3608615 0.3517342 0.3522719 0.3517662 0.3611238 0.3335368 0.3604987 0.3428709 0.3519503 0.3427535 0.3608615 0.3517342 0.3522719 0.3602938 0.3432709 0.3605864 0.3522753 0.3428709 0.3519503 0.3513872 0.3434126 0.3517342 0.3522719 0.3428709 0.3519503 0.3357109 0.3431717 0.3429436 0.343506 0.3513872 0.3434126 0.3599027 0.3340662 0.3602938 0.3432709 0.3513872 0.3434126 0.3425939 0.3362756 0.3506577 0.334808 0.3429436 0.343506 0.3371099 0.3376848 0.3425939 0.3362756 0.01842039 0.3611436 0.02722901 0.3523016 0.02734375 0.3612246 0.00942105 0.360883 0.0183863 0.352301 0.01842039 0.3611436 2.19733e-4 0.3605225 0.00953406 0.3519836 0.00942105 0.360883 0.0183863 0.352301 0.02693432 0.3433032 0.02722901 0.3523016 0.00953406 0.3519836 0.01803535 0.34345 0.0183863 0.352301 0.00953406 0.3519836 0.002377331 0.343221 0.009601116 0.3435491 0.01803535 0.34345 0.02653884 0.3341033 0.02693432 0.3433032 0.01803535 0.34345 0.009245693 0.3363266 0.01730018 0.3348529 0.009601116 0.3435491 0.003769457 0.3377395 0.009245693 0.3363266 0.9725896 0.02780789 0.9727006 0.01888573 0.981512 0.02772319 0.9729915 0.009888052 0.9815424 0.01888138 0.9727006 0.01888573 0.973383 6.88851e-4 0.9818897 0.01003116 0.9729915 0.009888052 0.9815424 0.01888138 0.9905104 0.0274589 0.981512 0.02772319 0.9818897 0.01003116 0.9903936 0.01856029 0.9815424 0.01888138 0.9818897 0.01003116 0.9906755 0.002904713 0.9903231 0.01012665 0.9903936 0.01856029 0.9997106 0.02709454 0.9905104 0.0274589 0.9903936 0.01856029 0.997546 0.009795665 0.9989923 0.01785445 0.9903231 0.01012665 0.9961518 0.004315197 0.997546 0.009795665 0.3522516 0.02726483 0.3610905 0.0184549 0.3611737 0.02737754 0.343254 0.02697247 0.3522487 0.01842302 0.3522516 0.02726483 0.334055 0.02657938 0.3433986 0.01807433 0.343254 0.02697247 0.3522487 0.01842302 0.3608278 0.009456515 0.3610905 0.0184549 0.3433986 0.01807433 0.3519291 0.009571731 0.3522487 0.01842302 0.3433986 0.01807433 0.3362737 0.009287416 0.3434955 0.009640932 0.3519291 0.009571731 0.360465 2.56121e-4 0.3608278 0.009456515 0.3519291 0.009571731 0.3431657 0.002417922 0.3512246 9.72986e-4 0.3434955 0.009640932 0.337685 0.003811359 0.3431657 0.002417922 0.6938886 0.6477338 0.9724661 0.6572823 0.6935939 0.6567322 0.3149143 0.6388918 0.3054693 0.3606842 0.3144001 0.3605647 0.360733 0.6946207 0.352195 0.9728441 0.3518106 0.694536 0.3611737 0.02737754 0.4074714 0.01852738 0.4074714 0.01852738 0.6389556 0.3518403 0.3607016 0.361205 0.3607016 0.361205 0.3427535 0.3608615 0.3522518 0.6394318 0.3432543 0.6397243 0.6397045 0.9902343 0.3604159 0.9998763 0.3604159 0.9998763 0.6389553 0.3148564 0.3602936 0.3234258 0.3602936 0.3234258 0.6850906 0.3055689 0.6941048 0.2591353 0.6940261 0.3054876 0.6388683 0.3607704 0.3607016 0.361205 0.6388683 0.3607704 0.6941878 0.3427531 0.7287837 0.3336192 0.7290468 0.3428218 0.981512 0.02772319 0.9901396 0.3063217 0.9811279 0.3060314 0.6396672 0.6568044 0.3604652 0.6664406 0.3604652 0.6664406 0.9729915 0.009888052 0.9263197 0.01881325 0.9729915 0.009888052 0.6760806 0.6391524 0.6673793 0.3598611 0.6765879 0.360264 0.3605864 0.3522753 0.63922 0.342835 0.63922 0.342835 0.02734375 0.3612246 0.3059909 0.6388108 0.0278654 0.6393513 0.6388242 0.6941861 0.360733 0.6946207 0.6388242 0.6941861 0.6481876 0.6389694 0.6568151 0.3603708 0.657186 0.6392337 0.9727006 0.01888573 0.9263197 0.01881325 0.9727006 0.01888573 0.6394119 0.9812299 0.3610427 0.981665 0.6394119 0.9812299 0.02752816 0.6572824 0.3067958 0.6659321 0.02717107 0.6664853 0.3234063 0.360264 0.333115 0.6395129 0.3239137 0.6391524 0.02734375 0.3612246 0.0189346 0.6394707 0.01842039 0.3611436 0.676078 0.3058311 0.6851715 0.2591842 0.6850906 0.3055689 0.6389074 0.6852635 0.360733 0.6946207 0.360733 0.6946207 0.02778607 0.6482796 0.3064005 0.6567322 0.02752816 0.6572824 0.3610907 0.6482416 0.6392651 0.6388846 0.6392651 0.6388846 0.9728233 0.6664853 0.6935939 0.6567322 0.9724661 0.6572823 0.6660305 0.3067175 0.6568613 0.2714679 0.6660749 0.2717652 0.665943 0.6933879 0.6572448 0.9726436 0.656744 0.693781 0.360622 0.6856985 0.6389074 0.6852635 0.360622 0.6856985 0.6568151 0.3603708 0.6663861 0.639598 0.657186 0.6392337 0.3608278 0.009456515 0.407301 0.009529113 0.407301 0.009529113 0.9725445 0.3238575 0.6932271 0.3326266 0.6932271 0.3326266 0.6938886 0.6477338 0.9721289 0.6393512 0.9722082 0.6482796 0.9900659 0.6397714 0.9993579 0.5935657 0.9992746 0.6401742 0.3339675 0.9735261 0.3428122 0.6942717 0.3431832 0.9731345 0.728856 0.5925239 0.9721289 0.6393512 0.6940034 0.6388108 0.6392198 0.3238616 0.3602936 0.3234258 0.6392198 0.3238616 0.3340553 0.6401173 0.3427535 0.3608615 0.3432543 0.6397243 0.3603311 0.6767009 0.639533 0.6670646 0.639533 0.6670646 0.9811279 0.3060314 0.9725896 0.02780789 0.981512 0.02772319 0.6482321 0.9723813 0.656744 0.693781 0.6572448 0.9726436 0.676078 0.3058311 0.6669477 0.2595909 0.6761615 0.2593539 0.3522516 0.02726483 0.3607013 0.3054916 0.3517659 0.3055729 0.009928405 0.6397714 2.19733e-4 0.3605225 0.00942105 0.360883 0.973383 6.88851e-4 0.9265183 0.009815454 0.973383 6.88851e-4 0.3608278 0.009456515 0.407301 0.009529113 0.407301 0.009529113 0.3602938 0.3432709 0.6395824 0.333629 0.6395824 0.333629 0.694525 0.3606842 0.6850801 0.6388918 0.6855942 0.3605647 0.3335364 0.3061979 0.343254 0.02697247 0.3427532 0.3058351 0.3058065 0.3427531 0.02653884 0.3341033 0.3061637 0.3335501 0.3055487 0.3517558 0.02693432 0.3433032 0.3058065 0.3427531 0.9905104 0.0274589 0.9993553 0.3067134 0.9901396 0.3063217 0.6478031 0.3060355 0.6568613 0.2714679 0.6568149 0.3063258 0.0278654 0.6393513 0.3061057 0.6477338 0.02778607 0.6482796 0.3610427 0.981665 0.6392967 0.9723001 0.6392967 0.9723001 0.00942105 0.360883 0.0189346 0.6394707 0.009928405 0.6397714 0.6938886 0.6477338 0.6850459 0.6477345 0.6850801 0.6388918 0.6935939 0.6567322 0.684695 0.6565854 0.6850459 0.6477345 0.6931985 0.6659321 0.6839599 0.6651824 0.684695 0.6565854 0.6850459 0.6477345 0.6761937 0.6480518 0.6760806 0.6391524 0.684695 0.6565854 0.6762608 0.6564863 0.6761937 0.6480518 0.684695 0.6565854 0.6839599 0.6651824 0.6759054 0.6637088 0.6761937 0.6480518 0.6675939 0.6487543 0.6668793 0.639513 0.6761937 0.6480518 0.6762608 0.6564863 0.669037 0.6568144 0.6762608 0.6564863 0.6759054 0.6637088 0.6704291 0.6622959 0.6389074 0.6852635 0.6477493 0.6852316 0.6477464 0.6940733 0.6391702 0.676265 0.6480688 0.6763802 0.6477493 0.6852316 0.639533 0.6670646 0.6487734 0.6677814 0.6480688 0.6763802 0.6477493 0.6852316 0.6565994 0.6848828 0.656744 0.693781 0.6480688 0.6763802 0.6565025 0.6764494 0.6565994 0.6848828 0.6480688 0.6763802 0.6487734 0.6677814 0.6568323 0.6692264 0.6565994 0.6848828 0.6651958 0.68415 0.665943 0.6933879 0.6565994 0.6848828 0.6565025 0.6764494 0.6637243 0.6760959 0.6565025 0.6764494 0.6568323 0.6692264 0.662313 0.6706197 0.6481876 0.6389694 0.648218 0.6478111 0.6393762 0.6478068 0.657186 0.6392337 0.6570693 0.6481322 0.648218 0.6478111 0.6663861 0.639598 0.6656678 0.6488381 0.6570693 0.6481322 0.648218 0.6478111 0.6485652 0.6566613 0.6396672 0.6568044 0.6570693 0.6481322 0.6569987 0.6565658 0.6485652 0.6566613 0.6570693 0.6481322 0.6656678 0.6488381 0.6642215 0.6568968 0.6485652 0.6566613 0.6492968 0.6652578 0.6400586 0.6660036 0.6485652 0.6566613 0.6569987 0.6565658 0.6573511 0.6637877 0.6569987 0.6565658 0.6642215 0.6568968 0.6628273 0.6623772 0.3149143 0.6388918 0.3149484 0.6477345 0.3061057 0.6477338 0.3239137 0.6391524 0.3238007 0.6480519 0.3149484 0.6477345 0.333115 0.6395129 0.3324005 0.6487544 0.3238007 0.6480519 0.3149484 0.6477345 0.3152994 0.6565855 0.3064005 0.6567322 0.3238007 0.6480519 0.3237336 0.6564864 0.3152994 0.6565855 0.3238007 0.6480519 0.3324005 0.6487544 0.3309574 0.6568144 0.3152994 0.6565855 0.3160345 0.6651825 0.3067958 0.6659321 0.3152994 0.6565855 0.3237336 0.6564864 0.3240891 0.6637088 0.3237336 0.6564864 0.3309574 0.6568144 0.3295652 0.6622959 0.3610907 0.6482416 0.352249 0.6482737 0.3522518 0.6394318 0.3608279 0.6572403 0.3519294 0.657125 0.352249 0.6482737 0.3604652 0.6664406 0.3512248 0.6657238 0.3519294 0.657125 0.352249 0.6482737 0.3433988 0.6486224 0.3432543 0.6397243 0.3519294 0.657125 0.3434957 0.6570557 0.3433988 0.6486224 0.3519294 0.657125 0.3512248 0.6657238 0.3431659 0.6642788 0.3433988 0.6486224 0.3348024 0.6493552 0.3340553 0.6401173 0.3433988 0.6486224 0.3434957 0.6570557 0.3362739 0.6574093 0.3434957 0.6570557 0.3431659 0.6642788 0.3376852 0.6628854 0.3518106 0.694536 0.3517802 0.6856942 0.360622 0.6856985 0.3428122 0.6942717 0.342929 0.6853732 0.3517802 0.6856942 0.333612 0.6939074 0.3343303 0.6846672 0.342929 0.6853732 0.3517802 0.6856942 0.3514329 0.676844 0.3603311 0.6767009 0.342929 0.6853732 0.3429995 0.6769395 0.3514329 0.676844 0.342929 0.6853732 0.3343303 0.6846672 0.3357766 0.6766086 0.3514329 0.676844 0.3507015 0.6682475 0.3599396 0.6675017 0.3514329 0.676844 0.3429995 0.6769395 0.3426471 0.6697176 0.3429995 0.6769395 0.3357766 0.6766086 0.3371708 0.6711281 0.9810597 0.6394706 0.9810559 0.6483185 0.9722082 0.6482796 0.9900659 0.6397714 0.9899122 0.648676 0.9810559 0.6483185 0.9992746 0.6401742 0.9985144 0.6494193 0.9899122 0.648676 0.9810559 0.6483185 0.9813684 0.6571745 0.9724661 0.6572823 0.9899122 0.648676 0.9898064 0.657114 0.9813684 0.6571745 0.9899122 0.648676 0.9985144 0.6494193 0.9970319 0.6574763 0.9813684 0.6571745 0.9820654 0.6657767 0.9728233 0.6664853 0.9813684 0.6571745 0.9898064 0.657114 0.9901285 0.6643402 0.9898064 0.657114 0.9970319 0.6574763 0.9956131 0.662953 0.6939109 0.3144174 0.6850588 0.3144208 0.6850906 0.3055689 0.6936183 0.3234218 0.6847116 0.3232802 0.6850588 0.3144208 0.6932271 0.3326266 0.6839821 0.3318848 0.6847116 0.3232802 0.6850588 0.3144208 0.6761953 0.3147424 0.676078 0.3058311 0.6847116 0.3232802 0.6762681 0.3231868 0.6761953 0.3147424 0.6847116 0.3232802 0.6839821 0.3318848 0.6759183 0.3304172 0.6761953 0.3147424 0.6675834 0.3154509 0.6668612 0.306194 0.6761953 0.3147424 0.6762681 0.3231868 0.6690354 0.323521 0.6762681 0.3231868 0.6759183 0.3304172 0.6704344 0.3290079 0.6482321 0.9723813 0.6482641 0.9812332 0.6394119 0.9812299 0.6572448 0.9726436 0.6571274 0.9815548 0.6482641 0.9812332 0.6664616 0.9730064 0.6657394 0.9822633 0.6571274 0.9815548 0.6482641 0.9812332 0.6486112 0.9900926 0.6397045 0.9902343 0.6571274 0.9815548 0.6570547 0.9899992 0.6486112 0.9900926 0.6571274 0.9815548 0.6657394 0.9822633 0.6642875 0.9903334 0.6486112 0.9900926 0.6493408 0.9986971 0.6400957 0.999439 0.6486112 0.9900926 0.6570547 0.9899992 0.6574044 0.9972296 0.6570547 0.9899992 0.6642875 0.9903334 0.6628884 0.9958203 0.02778607 0.6482796 0.01893842 0.6483185 0.0189346 0.6394707 0.02752816 0.6572824 0.01862591 0.6571746 0.01893842 0.6483185 0.02717107 0.6664853 0.01792883 0.6657769 0.01862591 0.6571746 0.01893842 0.6483185 0.010082 0.648676 0.009928405 0.6397714 0.01862591 0.6571746 0.01018792 0.657114 0.010082 0.648676 0.01862591 0.6571746 0.01792883 0.6657769 0.00986588 0.6643403 0.010082 0.648676 0.001479864 0.6494193 7.19756e-4 0.6401743 0.010082 0.648676 0.01018792 0.657114 0.00296247 0.6574763 0.01018792 0.657114 0.00986588 0.6643403 0.004381239 0.6629531 0.3610427 0.981665 0.3521907 0.981696 0.352195 0.9728441 0.3607783 0.9906703 0.3518713 0.9905565 0.3521907 0.981696 0.3604159 0.9998763 0.3511686 0.9991633 0.3518713 0.9905565 0.3521907 0.981696 0.3433283 0.9820454 0.3431832 0.9731345 0.3518713 0.9905565 0.3434275 0.9904896 0.3433283 0.9820454 0.3518713 0.9905565 0.3511686 0.9991633 0.3431003 0.997721 0.3433283 0.9820454 0.3347185 0.9827808 0.3339675 0.9735261 0.3433283 0.9820454 0.3434275 0.9904896 0.3361958 0.9908464 0.3434275 0.9904896 0.3431003 0.997721 0.3376119 0.9963288 0.9811279 0.3060314 0.9811322 0.3148833 0.9722801 0.3148523 0.9901396 0.3063217 0.9899945 0.3152326 0.9811322 0.3148833 0.9993553 0.3067134 0.9986042 0.315968 0.9899945 0.3152326 0.9811322 0.3148833 0.9814516 0.3237437 0.9725445 0.3238575 0.9899945 0.3152326 0.9898954 0.3236767 0.9814516 0.3237437 0.9899945 0.3152326 0.9986042 0.315968 0.997127 0.3240335 0.9814516 0.3237437 0.9821542 0.3323505 0.9729069 0.3330634 0.9814516 0.3237437 0.9898954 0.3236767 0.9902225 0.3309081 0.9898954 0.3236767 0.997127 0.3240335 0.9957108 0.329516 0.6855942 0.3605647 0.685598 0.3517169 0.6944456 0.3517558 0.6765879 0.360264 0.6767416 0.3513594 0.685598 0.3517169 0.6673793 0.3598611 0.6681395 0.3506161 0.6767416 0.3513594 0.685598 0.3517169 0.6852855 0.3428608 0.6941878 0.3427531 0.6767416 0.3513594 0.6768475 0.3429214 0.6852855 0.3428608 0.6767416 0.3513594 0.6681395 0.3506161 0.669622 0.342559 0.6852855 0.3428608 0.6845884 0.3342586 0.6938306 0.3335501 0.6852855 0.3428608 0.6768475 0.3429214 0.6765254 0.3356951 0.6768475 0.3429214 0.669622 0.342559 0.6710408 0.3370823 0.6389556 0.3518403 0.6478077 0.3518092 0.6478034 0.3606612 0.63922 0.342835 0.6481271 0.3429488 0.6478077 0.3518092 0.6395824 0.333629 0.6488298 0.334342 0.6481271 0.3429488 0.6478077 0.3518092 0.65667 0.35146 0.6568151 0.3603708 0.6481271 0.3429488 0.6565709 0.3430158 0.65667 0.35146 0.6481271 0.3429488 0.6488298 0.334342 0.656898 0.3357843 0.65667 0.35146 0.6652798 0.3507245 0.6660308 0.3599792 0.65667 0.35146 0.6565709 0.3430158 0.6638025 0.342659 0.6565709 0.3430158 0.656898 0.3357843 0.6623864 0.3371765 0.6478031 0.3060355 0.6478074 0.3148874 0.6389553 0.3148564 0.6568149 0.3063258 0.6566697 0.3152367 0.6478074 0.3148874 0.6660305 0.3067175 0.6652795 0.3159722 0.6566697 0.3152367 0.6478074 0.3148874 0.6481268 0.3237478 0.6392198 0.3238616 0.6566697 0.3152367 0.6565706 0.3236808 0.6481268 0.3237478 0.6566697 0.3152367 0.6652795 0.3159722 0.6638022 0.3240376 0.6481268 0.3237478 0.6488295 0.3323546 0.6395822 0.3330676 0.6481268 0.3237478 0.6565706 0.3236808 0.6568977 0.3309122 0.6565706 0.3236808 0.6638022 0.3240376 0.6623861 0.3295202 0.3055487 0.3517558 0.3143963 0.3517169 0.3144001 0.3605647 0.3058065 0.3427531 0.3147088 0.3428608 0.3143963 0.3517169 0.3061637 0.3335501 0.3154059 0.3342586 0.3147088 0.3428608 0.3143963 0.3517169 0.3232527 0.3513594 0.3234063 0.360264 0.3147088 0.3428608 0.3231468 0.3429214 0.3232527 0.3513594 0.3147088 0.3428608 0.3154059 0.3342586 0.3234689 0.3356951 0.3232527 0.3513594 0.3318548 0.3506161 0.332615 0.3598611 0.3232527 0.3513594 0.3231468 0.3429214 0.3303722 0.3425591 0.3231468 0.3429214 0.3234689 0.3356951 0.3289535 0.3370823 0.3605862 0.3144214 0.351734 0.3144248 0.3517659 0.3055729 0.3602936 0.3234258 0.3513869 0.3232842 0.351734 0.3144248 0.3599025 0.3326306 0.3506574 0.3318887 0.3513869 0.3232842 0.351734 0.3144248 0.3428705 0.3147464 0.3427532 0.3058351 0.3513869 0.3232842 0.3429433 0.3231908 0.3428705 0.3147464 0.3513869 0.3232842 0.3506574 0.3318887 0.3425936 0.3304212 0.3428705 0.3147464 0.3342586 0.3154549 0.3335364 0.3061979 0.3428705 0.3147464 0.3429433 0.3231908 0.3357106 0.323525 0.3429433 0.3231908 0.3425936 0.3304212 0.3371096 0.3290119 0.3517662 0.3611238 0.3517342 0.3522719 0.3605864 0.3522753 0.3427535 0.3608615 0.3428709 0.3519503 0.3517342 0.3522719 0.3335368 0.3604987 0.3342589 0.3512418 0.3428709 0.3519503 0.3517342 0.3522719 0.3513872 0.3434126 0.3602938 0.3432709 0.3428709 0.3519503 0.3429436 0.343506 0.3513872 0.3434126 0.3428709 0.3519503 0.3342589 0.3512418 0.3357109 0.3431717 0.3513872 0.3434126 0.3506577 0.334808 0.3599027 0.3340662 0.3513872 0.3434126 0.3429436 0.343506 0.3425939 0.3362756 0.3429436 0.343506 0.3357109 0.3431717 0.3371099 0.3376848 0.01842039 0.3611436 0.0183863 0.352301 0.02722901 0.3523016 0.00942105 0.360883 0.00953406 0.3519836 0.0183863 0.352301 2.19733e-4 0.3605225 9.34333e-4 0.3512811 0.00953406 0.3519836 0.0183863 0.352301 0.01803535 0.34345 0.02693432 0.3433032 0.00953406 0.3519836 0.009601116 0.3435491 0.01803535 0.34345 0.00953406 0.3519836 9.34333e-4 0.3512811 0.002377331 0.343221 0.01803535 0.34345 0.01730018 0.3348529 0.02653884 0.3341033 0.01803535 0.34345 0.009601116 0.3435491 0.009245693 0.3363266 0.009601116 0.3435491 0.002377331 0.343221 0.003769457 0.3377395 0.9727006 0.01888573 0.9815424 0.01888138 0.981512 0.02772319 0.9729915 0.009888052 0.9818897 0.01003116 0.9815424 0.01888138 0.973383 6.88851e-4 0.9826211 0.001434504 0.9818897 0.01003116 0.9815424 0.01888138 0.9903936 0.01856029 0.9905104 0.0274589 0.9818897 0.01003116 0.9903231 0.01012665 0.9903936 0.01856029 0.9818897 0.01003116 0.9826211 0.001434504 0.9906755 0.002904713 0.9903936 0.01856029 0.9989923 0.01785445 0.9997106 0.02709454 0.9903936 0.01856029 0.9903231 0.01012665 0.997546 0.009795665 0.9903231 0.01012665 0.9906755 0.002904713 0.9961518 0.004315197 0.3522516 0.02726483 0.3522487 0.01842302 0.3610905 0.0184549 0.343254 0.02697247 0.3433986 0.01807433 0.3522487 0.01842302 0.334055 0.02657938 0.3348022 0.01734143 0.3433986 0.01807433 0.3522487 0.01842302 0.3519291 0.009571731 0.3608278 0.009456515 0.3433986 0.01807433 0.3434955 0.009640932 0.3519291 0.009571731 0.3433986 0.01807433 0.3348022 0.01734143 0.3362737 0.009287416 0.3519291 0.009571731 0.3512246 9.72986e-4 0.360465 2.56121e-4 0.3519291 0.009571731 0.3434955 0.009640932 0.3431657 0.002417922 0.3434955 0.009640932 0.3362737 0.009287416 0.337685 0.003811359 0.9810597 0.6394706 0.9722158 0.5929967 0.9811455 0.5930828 0.3607013 0.3054916 0.4070624 0.3055641 0.4070624 0.3055641 0.3517662 0.3611238 0.3611739 0.6393192 0.3522518 0.6394318 0.6939109 0.3144174 0.9721928 0.3059222 0.9721928 0.3059222 0.6478031 0.3060355 0.6389176 0.271162 0.6478512 0.271247 0.6477464 0.6940733 0.6392967 0.9723001 0.6388242 0.6941861 0.6936183 0.3234218 0.9725445 0.3238575 0.6936183 0.3234218 0.02722901 0.3523016 0.3054693 0.3606842 0.02734375 0.3612246 0.6944456 0.3517558 0.7290468 0.3428218 0.7292356 0.351824 0.9900659 0.6397714 0.9811455 0.5930828 0.9901505 0.59329 0.3608279 0.6572403 0.6396672 0.6568044 0.3608279 0.6572403 0.3431832 0.9731345 0.3518106 0.694536 0.352195 0.9728441 0.694525 0.3606842 0.7292356 0.351824 0.7292907 0.3607518 0 0 0 0 0 0 0 0 0 0 0 0 0 0 0 0 0 0 0 0 0 0 0 0 0 0 0 0 0 0 0 0 0 0 0 0 0 0 0 0 0 0 0 0 0 0 0 0 0 0 0 0 0 0 0 0 0 0 0 0 0 0 0 0 0 0 0 0 0 0 0 0 0 0 0 0 0 0 0 0 0 0 0 0 0 0 0 0 0 0 0 0 0 0 0 0 0 0 0 0 0 0 0 0 0 0 0 0 0 0 0 0 0 0 0 0 0 0 0 0 0 0 0 0 0 0 0 0 0 0 0 0 0 0 0 0 0 0 0.6855942 0.3605647 0.6850801 0.6388918 0.6760806 0.6391524 0.3149143 0.6388918 0.3144001 0.3605647 0.3234063 0.360264 0.6392651 0.6388846 0.6388683 0.3607704 0.6478034 0.3606612 0.3605862 0.3144214 0.3605862 0.3144214 0.638868 0.3059263 0.3522516 0.02726483 0.3517659 0.3055729 0.3427532 0.3058351 0.6938886 0.6477338 0.9722082 0.6482796 0.9724661 0.6572823 0.3149143 0.6388918 0.3059909 0.6388108 0.3054693 0.3606842 0.360733 0.6946207 0.3611301 0.9727349 0.352195 0.9728441 0.3611737 0.02737754 0.3611737 0.02737754 0.4074714 0.01852738 0.6389556 0.3518403 0.6389556 0.3518403 0.3607016 0.361205 0.3427535 0.3608615 0.3517662 0.3611238 0.3522518 0.6394318 0.6397045 0.9902343 0.6397045 0.9902343 0.3604159 0.9998763 0.6389553 0.3148564 0.6389553 0.3148564 0.3602936 0.3234258 0.6850906 0.3055689 0.6851715 0.2591842 0.6941048 0.2591353 0.6388683 0.3607704 0.3607016 0.361205 0.3607016 0.361205 0.6941878 0.3427531 0.6938306 0.3335501 0.7287837 0.3336192 0.981512 0.02772319 0.9905104 0.0274589 0.9901396 0.3063217 0.6396672 0.6568044 0.6396672 0.6568044 0.3604652 0.6664406 0.9729915 0.009888052 0.9263197 0.01881325 0.9263197 0.01881325 0.6760806 0.6391524 0.6668793 0.639513 0.6673793 0.3598611 0.3605864 0.3522753 0.3605864 0.3522753 0.63922 0.342835 0.02734375 0.3612246 0.3054693 0.3606842 0.3059909 0.6388108 0.6388242 0.6941861 0.360733 0.6946207 0.360733 0.6946207 0.6481876 0.6389694 0.6478034 0.3606612 0.6568151 0.3603708 0.9727006 0.01888573 0.9263197 0.01881325 0.9263197 0.01881325 0.6394119 0.9812299 0.3610427 0.981665 0.3610427 0.981665 0.02752816 0.6572824 0.3064005 0.6567322 0.3067958 0.6659321 0.3234063 0.360264 0.332615 0.3598611 0.333115 0.6395129 0.02734375 0.3612246 0.0278654 0.6393513 0.0189346 0.6394707 0.676078 0.3058311 0.6761615 0.2593539 0.6851715 0.2591842 0.6389074 0.6852635 0.6389074 0.6852635 0.360733 0.6946207 0.02778607 0.6482796 0.3061057 0.6477338 0.3064005 0.6567322 0.3610907 0.6482416 0.3610907 0.6482416 0.6392651 0.6388846 0.9728233 0.6664853 0.6931985 0.6659321 0.6935939 0.6567322 0.6660305 0.3067175 0.6568149 0.3063258 0.6568613 0.2714679 0.665943 0.6933879 0.6664616 0.9730064 0.6572448 0.9726436 0.360622 0.6856985 0.6389074 0.6852635 0.6389074 0.6852635 0.6568151 0.3603708 0.6660308 0.3599792 0.6663861 0.639598 0.3608278 0.009456515 0.3608278 0.009456515 0.407301 0.009529113 0.9725445 0.3238575 0.9725445 0.3238575 0.6932271 0.3326266 0.6938886 0.6477338 0.6940034 0.6388108 0.9721289 0.6393512 0.9900659 0.6397714 0.9901505 0.59329 0.9993579 0.5935657 0.3339675 0.9735261 0.333612 0.6939074 0.3428122 0.6942717 0.728856 0.5925239 0.9722158 0.5929967 0.9721289 0.6393512 0.6940034 0.6388108 0.694525 0.3606842 0.728856 0.5925239 0.694525 0.3606842 0.7292907 0.3607518 0.728856 0.5925239 0.6392198 0.3238616 0.3602936 0.3234258 0.3602936 0.3234258 0.3340553 0.6401173 0.3335368 0.3604987 0.3427535 0.3608615 0.3603311 0.6767009 0.3603311 0.6767009 0.639533 0.6670646 0.9811279 0.3060314 0.9721928 0.3059222 0.9725896 0.02780789 0.6482321 0.9723813 0.6477464 0.6940733 0.656744 0.693781 0.676078 0.3058311 0.6668612 0.306194 0.6669477 0.2595909 0.3522516 0.02726483 0.3611737 0.02737754 0.3607013 0.3054916 0.009928405 0.6397714 7.19756e-4 0.6401743 2.19733e-4 0.3605225 0.973383 6.88851e-4 0.9265183 0.009815454 0.9265183 0.009815454 0.3608278 0.009456515 0.3608278 0.009456515 0.407301 0.009529113 0.3602938 0.3432709 0.3602938 0.3432709 0.6395824 0.333629 0.694525 0.3606842 0.6940034 0.6388108 0.6850801 0.6388918 0.3335364 0.3061979 0.334055 0.02657938 0.343254 0.02697247 0.3058065 0.3427531 0.02693432 0.3433032 0.02653884 0.3341033 0.3055487 0.3517558 0.02722901 0.3523016 0.02693432 0.3433032 0.9905104 0.0274589 0.9997106 0.02709454 0.9993553 0.3067134 0.6478031 0.3060355 0.6478512 0.271247 0.6568613 0.2714679 0.0278654 0.6393513 0.3059909 0.6388108 0.3061057 0.6477338 0.3610427 0.981665 0.3610427 0.981665 0.6392967 0.9723001 0.00942105 0.360883 0.01842039 0.3611436 0.0189346 0.6394707 0.9810597 0.6394706 0.9721289 0.6393512 0.9722158 0.5929967 0.6392649 0.02781212 0.6392649 0.02781212 0.4070624 0.3055641 0.6392649 0.02781212 0.3607013 0.3054916 0.4070624 0.3055641 0.3607013 0.3054916 0.3607013 0.3054916 0.4070624 0.3055641 0.3517662 0.3611238 0.3607016 0.361205 0.3611739 0.6393192 0.6939109 0.3144174 0.6939109 0.3144174 0.9721928 0.3059222 0.6478031 0.3060355 0.638868 0.3059263 0.6389176 0.271162 0.6477464 0.6940733 0.6482321 0.9723813 0.6392967 0.9723001 0.6936183 0.3234218 0.9725445 0.3238575 0.9725445 0.3238575 0.02722901 0.3523016 0.3055487 0.3517558 0.3054693 0.3606842 0.6944456 0.3517558 0.6941878 0.3427531 0.7290468 0.3428218 0.9900659 0.6397714 0.9810597 0.6394706 0.9811455 0.5930828 0.3608279 0.6572403 0.6396672 0.6568044 0.6396672 0.6568044 0.3431832 0.9731345 0.3428122 0.6942717 0.3518106 0.694536 0.694525 0.3606842 0.6944456 0.3517558 0.7292356 0.351824</float_array>
          <technique_common>
            <accessor source="#Cube_001-mesh-map-1-array" count="1692" stride="2">
              <param name="S" type="float"/>
              <param name="T" type="float"/>
            </accessor>
          </technique_common>
        </source>
        <vertices id="Cube_001-mesh-vertices">
          <input semantic="POSITION" source="#Cube_001-mesh-positions"/>
        </vertices>
        <triangles count="564">
          <input semantic="VERTEX" source="#Cube_001-mesh-vertices" offset="0"/>
          <input semantic="NORMAL" source="#Cube_001-mesh-normals" offset="1"/>
          <input semantic="TEXCOORD" source="#Cube_001-mesh-map-0" offset="2" set="0"/>
          <input semantic="TEXCOORD" source="#Cube_001-mesh-map-1" offset="2" set="1"/>
          <p>266 0 0 1 0 1 264 0 2 276 1 3 272 1 4 271 1 5 282 2 6 1 2 7 281 2 8 4 1 9 77 1 10 264 1 11 225 1 12 4 1 13 282 1 14 153 3 15 12 4 16 154 5 17 42 6 18 197 7 19 43 8 20 3 9 21 168 10 22 28 11 23 202 12 24 152 13 25 179 14 26 250 15 27 209 16 28 251 17 29 5 18 30 8 19 31 0 20 32 6 21 33 9 22 34 5 18 35 7 23 36 10 24 37 6 21 38 9 22 39 12 4 40 8 19 41 10 24 42 13 25 43 9 22 44 10 24 45 15 26 46 14 27 47 13 25 48 30 28 49 12 4 50 13 25 51 38 29 52 34 30 53 14 27 54 16 31 55 38 29 56 17 32 57 20 33 58 2 34 59 18 35 60 21 36 61 17 32 62 19 37 63 22 38 64 18 35 65 21 36 66 24 39 67 20 33 68 22 38 69 25 40 70 21 36 71 22 38 72 27 41 73 26 42 74 25 40 75 7 23 76 24 39 77 25 40 78 15 26 79 11 43 80 26 42 81 16 31 82 15 26 83 28 11 84 31 44 85 3 9 86 29 45 87 32 46 88 28 11 89 30 28 90 33 47 91 29 45 92 32 46 93 35 48 94 31 44 95 33 47 96 36 49 97 32 46 98 33 47 99 38 29 100 37 50 101 36 49 102 19 37 103 35 48 104 36 49 105 27 41 106 23 51 107 37 50 108 16 31 109 27 41 110 42 6 111 45 52 112 39 53 113 43 8 114 46 54 115 42 6 116 44 55 117 47 56 118 43 8 119 46 54 120 49 57 121 45 52 122 47 56 123 50 58 124 46 54 125 47 56 126 52 59 127 51 60 128 50 58 129 67 61 130 49 57 131 50 58 132 75 62 133 71 63 134 51 60 135 53 64 136 75 62 137 54 65 138 57 66 139 40 67 140 55 68 141 58 69 142 54 65 143 56 70 144 59 71 145 55 68 146 58 69 147 61 72 148 57 66 149 59 71 150 62 73 151 58 69 152 59 71 153 64 74 154 63 75 155 62 73 156 44 55 157 61 72 158 62 73 159 52 59 160 48 76 161 63 75 162 53 64 163 52 59 164 65 77 165 68 78 166 41 79 167 66 80 168 69 81 169 65 77 170 67 61 171 70 82 172 66 80 173 69 81 174 72 83 175 68 78 176 70 82 177 73 84 178 69 81 179 70 82 180 75 62 181 74 85 182 73 84 183 56 70 184 72 83 185 73 84 186 64 74 187 60 86 188 74 85 189 53 64 190 64 74 191 79 87 192 82 88 193 76 89 194 80 90 195 83 91 196 79 87 197 81 92 198 84 93 199 80 90 200 83 91 201 86 94 202 82 88 203 84 93 204 87 95 205 83 91 206 84 93 207 89 96 208 88 97 209 87 95 210 104 98 211 86 94 212 87 95 213 112 99 214 108 100 215 88 97 216 90 101 217 112 99 218 91 102 219 94 103 220 77 104 221 92 105 222 95 106 223 91 102 224 93 107 225 96 108 226 92 105 227 95 106 228 98 109 229 94 103 230 96 108 231 99 110 232 95 106 233 96 108 234 101 111 235 100 112 236 99 110 237 81 92 238 98 109 239 99 110 240 89 96 241 85 113 242 100 112 243 90 101 244 89 96 245 102 114 246 105 115 247 78 116 248 103 117 249 106 118 250 102 114 251 104 98 252 107 119 253 103 117 254 106 118 255 109 120 256 105 115 257 107 119 258 110 121 259 106 118 260 107 119 261 112 99 262 111 122 263 110 121 264 93 107 265 109 120 266 110 121 267 101 111 268 97 123 269 111 122 270 90 101 271 101 111 272 116 124 273 119 125 274 113 126 275 117 127 276 120 128 277 116 124 278 118 129 279 121 130 280 117 127 281 120 128 282 123 131 283 119 125 284 121 130 285 124 132 286 120 128 287 121 130 288 126 133 289 125 134 290 124 132 291 141 135 292 123 131 293 124 132 294 149 136 295 145 137 296 125 134 297 127 138 298 149 136 299 128 139 300 131 140 301 114 141 302 129 142 303 132 143 304 128 139 305 130 144 306 133 145 307 129 142 308 132 143 309 135 146 310 131 140 311 133 145 312 136 147 313 132 143 314 133 145 315 138 148 316 137 149 317 136 147 318 118 129 319 135 146 320 136 147 321 126 133 322 122 150 323 137 149 324 127 138 325 126 133 326 142 151 327 115 152 328 139 153 329 140 154 330 143 155 331 139 153 332 141 135 333 144 156 334 140 154 335 143 155 336 146 157 337 142 151 338 144 156 339 147 158 340 143 155 341 144 156 342 149 136 343 148 159 344 147 158 345 130 144 346 146 157 347 147 158 348 138 148 349 134 160 350 148 159 351 127 138 352 138 148 353 153 3 354 156 161 355 150 162 356 154 5 357 157 163 358 153 3 359 155 164 360 158 165 361 154 5 362 157 163 363 160 166 364 156 161 365 158 165 366 161 167 367 157 163 368 158 165 369 163 168 370 162 169 371 161 167 372 178 170 373 160 166 374 161 167 375 186 171 376 182 172 377 162 169 378 164 173 379 186 171 380 165 174 381 168 10 382 151 175 383 166 176 384 169 177 385 165 174 386 167 178 387 170 179 388 166 176 389 169 177 390 172 180 391 168 10 392 170 179 393 173 181 394 169 177 395 170 179 396 175 182 397 174 183 398 173 181 399 155 164 400 172 180 401 173 181 402 163 168 403 159 184 404 174 183 405 164 173 406 163 168 407 176 185 408 179 14 409 152 13 410 177 186 411 180 187 412 176 185 413 178 170 414 181 188 415 177 186 416 180 187 417 183 189 418 179 14 419 181 188 420 184 190 421 180 187 422 181 188 423 186 171 424 185 191 425 184 190 426 167 178 427 183 189 428 184 190 429 175 182 430 171 192 431 185 191 432 164 173 433 175 182 434 190 193 435 193 194 436 187 195 437 191 196 438 194 197 439 190 193 440 192 198 441 195 199 442 191 196 443 194 197 444 197 7 445 193 194 446 195 199 447 198 200 448 194 197 449 195 199 450 200 201 451 199 202 452 198 200 453 215 203 454 197 7 455 198 200 456 223 204 457 219 205 458 199 202 459 201 206 460 223 204 461 202 12 462 205 207 463 188 208 464 203 209 465 206 210 466 202 12 467 204 211 468 207 212 469 203 209 470 206 210 471 209 16 472 205 207 473 207 212 474 210 213 475 206 210 476 207 212 477 212 214 478 211 215 479 210 213 480 192 198 481 209 16 482 210 213 483 200 201 484 196 216 485 211 215 486 201 206 487 200 201 488 213 217 489 216 218 490 189 219 491 214 220 492 217 221 493 213 217 494 215 203 495 218 222 496 214 220 497 217 221 498 220 223 499 216 218 500 218 222 501 221 224 502 217 221 503 218 222 504 223 204 505 222 225 506 221 224 507 204 211 508 220 223 509 221 224 510 212 214 511 208 226 512 222 225 513 201 206 514 212 214 515 227 227 516 230 228 517 224 229 518 228 230 519 231 231 520 227 227 521 229 232 522 232 233 523 228 230 524 231 231 525 234 234 526 230 228 527 232 233 528 235 235 529 231 231 530 232 233 531 237 236 532 236 237 533 235 235 534 252 238 535 234 234 536 235 235 537 260 239 538 256 240 539 236 237 540 238 241 541 260 239 542 225 242 543 239 243 544 242 244 545 240 245 546 243 246 547 239 243 548 241 247 549 244 248 550 240 245 551 243 246 552 246 249 553 242 244 554 244 248 555 247 250 556 243 246 557 244 248 558 249 251 559 248 252 560 247 250 561 229 232 562 246 249 563 247 250 564 237 236 565 233 253 566 248 252 567 238 241 568 237 236 569 250 15 570 253 254 571 226 255 572 251 17 573 254 256 574 250 15 575 252 238 576 255 257 577 251 17 578 254 256 579 257 258 580 253 254 581 255 257 582 258 259 583 254 256 584 255 257 585 260 239 586 259 260 587 258 259 588 241 247 589 257 258 590 258 259 591 249 251 592 245 261 593 259 260 594 238 241 595 249 251 596 5 18 597 86 94 598 6 21 599 42 6 600 187 195 601 193 194 602 41 79 603 131 140 604 65 77 605 226 255 606 279 262 607 281 263 608 165 174 609 189 219 610 216 218 611 214 220 612 57 66 613 61 72 614 109 120 615 130 144 616 129 142 617 179 14 618 203 209 619 202 12 620 94 103 621 264 264 622 77 104 623 3 9 624 189 219 625 151 175 626 160 166 627 276 265 628 270 266 629 242 244 630 140 154 631 139 153 632 35 48 633 56 70 634 55 68 635 239 243 636 277 267 637 240 245 638 12 4 639 155 164 640 154 5 641 216 218 642 166 176 643 165 174 644 224 229 645 39 53 646 113 126 647 78 116 648 41 79 649 2 34 650 28 11 651 172 180 652 29 45 653 225 242 654 278 268 655 239 243 656 109 120 657 128 139 658 105 115 659 117 127 660 67 61 661 118 129 662 197 7 663 44 55 664 43 8 665 224 229 666 119 125 667 227 227 668 98 109 669 265 269 670 94 103 671 17 32 672 41 79 673 68 78 674 116 124 675 49 57 676 117 127 677 54 65 678 3 9 679 31 44 680 104 98 681 6 21 682 86 94 683 178 170 684 273 270 685 276 265 686 7 23 687 103 117 688 24 39 689 72 83 690 17 32 691 68 78 692 172 180 693 30 28 694 29 45 695 253 254 696 280 271 697 279 262 698 146 157 699 93 107 700 92 105 701 5 18 702 76 89 703 82 88 704 80 90 705 267 272 706 81 92 707 118 129 708 66 80 709 135 146 710 268 273 711 76 89 712 0 20 713 167 178 714 203 209 715 183 189 716 44 55 717 214 220 718 61 72 719 72 83 720 19 37 721 18 35 722 139 153 723 225 242 724 242 244 725 102 114 726 24 39 727 103 117 728 98 109 729 267 272 730 263 274 731 250 15 732 188 208 733 205 207 734 123 131 735 229 232 736 228 230 737 240 245 738 283 275 739 241 247 740 257 258 741 283 275 742 280 271 743 220 223 744 167 178 745 166 176 746 150 162 747 8 19 748 153 3 749 192 198 750 251 17 751 209 16 752 191 196 753 252 238 754 192 198 755 190 193 756 234 234 757 191 196 758 246 249 759 141 135 760 140 154 761 176 185 762 273 270 763 177 186 764 113 126 765 45 52 766 116 124 767 128 139 768 78 116 769 105 115 770 228 230 771 119 125 772 123 131 773 5 18 774 9 22 775 8 19 776 6 21 777 10 24 778 9 22 779 7 23 780 11 43 781 10 24 782 9 22 783 13 25 784 12 4 785 10 24 786 14 27 787 13 25 788 10 24 789 11 43 790 15 26 791 13 25 792 34 30 793 30 28 794 13 25 795 14 27 796 38 29 797 14 27 798 15 26 799 16 31 800 17 32 801 21 36 802 20 33 803 18 35 804 22 38 805 21 36 806 19 37 807 23 51 808 22 38 809 21 36 810 25 40 811 24 39 812 22 38 813 26 42 814 25 40 815 22 38 816 23 51 817 27 41 818 25 40 819 11 43 820 7 23 821 25 40 822 26 42 823 15 26 824 26 42 825 27 41 826 16 31 827 28 11 828 32 46 829 31 44 830 29 45 831 33 47 832 32 46 833 30 28 834 34 30 835 33 47 836 32 46 837 36 49 838 35 48 839 33 47 840 37 50 841 36 49 842 33 47 843 34 30 844 38 29 845 36 49 846 23 51 847 19 37 848 36 49 849 37 50 850 27 41 851 37 50 852 38 29 853 16 31 854 42 6 855 46 54 856 45 52 857 43 8 858 47 56 859 46 54 860 44 55 861 48 76 862 47 56 863 46 54 864 50 58 865 49 57 866 47 56 867 51 60 868 50 58 869 47 56 870 48 76 871 52 59 872 50 58 873 71 63 874 67 61 875 50 58 876 51 60 877 75 62 878 51 60 879 52 59 880 53 64 881 54 65 882 58 69 883 57 66 884 55 68 885 59 71 886 58 69 887 56 70 888 60 86 889 59 71 890 58 69 891 62 73 892 61 72 893 59 71 894 63 75 895 62 73 896 59 71 897 60 86 898 64 74 899 62 73 900 48 76 901 44 55 902 62 73 903 63 75 904 52 59 905 63 75 906 64 74 907 53 64 908 65 77 909 69 81 910 68 78 911 66 80 912 70 82 913 69 81 914 67 61 915 71 63 916 70 82 917 69 81 918 73 84 919 72 83 920 70 82 921 74 85 922 73 84 923 70 82 924 71 63 925 75 62 926 73 84 927 60 86 928 56 70 929 73 84 930 74 85 931 64 74 932 74 85 933 75 62 934 53 64 935 79 87 936 83 91 937 82 88 938 80 90 939 84 93 940 83 91 941 81 92 942 85 113 943 84 93 944 83 91 945 87 95 946 86 94 947 84 93 948 88 97 949 87 95 950 84 93 951 85 113 952 89 96 953 87 95 954 108 100 955 104 98 956 87 95 957 88 97 958 112 99 959 88 97 960 89 96 961 90 101 962 91 102 963 95 106 964 94 103 965 92 105 966 96 108 967 95 106 968 93 107 969 97 123 970 96 108 971 95 106 972 99 110 973 98 109 974 96 108 975 100 112 976 99 110 977 96 108 978 97 123 979 101 111 980 99 110 981 85 113 982 81 92 983 99 110 984 100 112 985 89 96 986 100 112 987 101 111 988 90 101 989 102 114 990 106 118 991 105 115 992 103 117 993 107 119 994 106 118 995 104 98 996 108 100 997 107 119 998 106 118 999 110 121 1000 109 120 1001 107 119 1002 111 122 1003 110 121 1004 107 119 1005 108 100 1006 112 99 1007 110 121 1008 97 123 1009 93 107 1010 110 121 1011 111 122 1012 101 111 1013 111 122 1014 112 99 1015 90 101 1016 116 124 1017 120 128 1018 119 125 1019 117 127 1020 121 130 1021 120 128 1022 118 129 1023 122 150 1024 121 130 1025 120 128 1026 124 132 1027 123 131 1028 121 130 1029 125 134 1030 124 132 1031 121 130 1032 122 150 1033 126 133 1034 124 132 1035 145 137 1036 141 135 1037 124 132 1038 125 134 1039 149 136 1040 125 134 1041 126 133 1042 127 138 1043 128 139 1044 132 143 1045 131 140 1046 129 142 1047 133 145 1048 132 143 1049 130 144 1050 134 160 1051 133 145 1052 132 143 1053 136 147 1054 135 146 1055 133 145 1056 137 149 1057 136 147 1058 133 145 1059 134 160 1060 138 148 1061 136 147 1062 122 150 1063 118 129 1064 136 147 1065 137 149 1066 126 133 1067 137 149 1068 138 148 1069 127 138 1070 139 153 1071 143 155 1072 142 151 1073 140 154 1074 144 156 1075 143 155 1076 141 135 1077 145 137 1078 144 156 1079 143 155 1080 147 158 1081 146 157 1082 144 156 1083 148 159 1084 147 158 1085 144 156 1086 145 137 1087 149 136 1088 147 158 1089 134 160 1090 130 144 1091 147 158 1092 148 159 1093 138 148 1094 148 159 1095 149 136 1096 127 138 1097 153 3 1098 157 163 1099 156 161 1100 154 5 1101 158 165 1102 157 163 1103 155 164 1104 159 184 1105 158 165 1106 157 163 1107 161 167 1108 160 166 1109 158 165 1110 162 169 1111 161 167 1112 158 165 1113 159 184 1114 163 168 1115 161 167 1116 182 172 1117 178 170 1118 161 167 1119 162 169 1120 186 171 1121 162 169 1122 163 168 1123 164 173 1124 165 174 1125 169 177 1126 168 10 1127 166 176 1128 170 179 1129 169 177 1130 167 178 1131 171 192 1132 170 179 1133 169 177 1134 173 181 1135 172 180 1136 170 179 1137 174 183 1138 173 181 1139 170 179 1140 171 192 1141 175 182 1142 173 181 1143 159 184 1144 155 164 1145 173 181 1146 174 183 1147 163 168 1148 174 183 1149 175 182 1150 164 173 1151 176 185 1152 180 187 1153 179 14 1154 177 186 1155 181 188 1156 180 187 1157 178 170 1158 182 172 1159 181 188 1160 180 187 1161 184 190 1162 183 189 1163 181 188 1164 185 191 1165 184 190 1166 181 188 1167 182 172 1168 186 171 1169 184 190 1170 171 192 1171 167 178 1172 184 190 1173 185 191 1174 175 182 1175 185 191 1176 186 171 1177 164 173 1178 190 193 1179 194 197 1180 193 194 1181 191 196 1182 195 199 1183 194 197 1184 192 198 1185 196 216 1186 195 199 1187 194 197 1188 198 200 1189 197 7 1190 195 199 1191 199 202 1192 198 200 1193 195 199 1194 196 216 1195 200 201 1196 198 200 1197 219 205 1198 215 203 1199 198 200 1200 199 202 1201 223 204 1202 199 202 1203 200 201 1204 201 206 1205 202 12 1206 206 210 1207 205 207 1208 203 209 1209 207 212 1210 206 210 1211 204 211 1212 208 226 1213 207 212 1214 206 210 1215 210 213 1216 209 16 1217 207 212 1218 211 215 1219 210 213 1220 207 212 1221 208 226 1222 212 214 1223 210 213 1224 196 216 1225 192 198 1226 210 213 1227 211 215 1228 200 201 1229 211 215 1230 212 214 1231 201 206 1232 213 217 1233 217 221 1234 216 218 1235 214 220 1236 218 222 1237 217 221 1238 215 203 1239 219 205 1240 218 222 1241 217 221 1242 221 224 1243 220 223 1244 218 222 1245 222 225 1246 221 224 1247 218 222 1248 219 205 1249 223 204 1250 221 224 1251 208 226 1252 204 211 1253 221 224 1254 222 225 1255 212 214 1256 222 225 1257 223 204 1258 201 206 1259 227 227 1260 231 231 1261 230 228 1262 228 230 1263 232 233 1264 231 231 1265 229 232 1266 233 253 1267 232 233 1268 231 231 1269 235 235 1270 234 234 1271 232 233 1272 236 237 1273 235 235 1274 232 233 1275 233 253 1276 237 236 1277 235 235 1278 256 240 1279 252 238 1280 235 235 1281 236 237 1282 260 239 1283 236 237 1284 237 236 1285 238 241 1286 239 243 1287 243 246 1288 242 244 1289 240 245 1290 244 248 1291 243 246 1292 241 247 1293 245 261 1294 244 248 1295 243 246 1296 247 250 1297 246 249 1298 244 248 1299 248 252 1300 247 250 1301 244 248 1302 245 261 1303 249 251 1304 247 250 1305 233 253 1306 229 232 1307 247 250 1308 248 252 1309 237 236 1310 248 252 1311 249 251 1312 238 241 1313 250 15 1314 254 256 1315 253 254 1316 251 17 1317 255 257 1318 254 256 1319 252 238 1320 256 240 1321 255 257 1322 254 256 1323 258 259 1324 257 258 1325 255 257 1326 259 260 1327 258 259 1328 255 257 1329 256 240 1330 260 239 1331 258 259 1332 245 261 1333 241 247 1334 258 259 1335 259 260 1336 249 251 1337 259 260 1338 260 239 1339 238 241 1340 79 87 1341 266 276 1342 262 277 1343 226 255 1344 281 263 1345 269 278 1346 213 217 1347 40 67 1348 57 66 1349 91 102 1350 115 152 1351 142 151 1352 176 185 1353 274 279 1354 272 280 1355 20 33 1356 78 116 1357 2 34 1358 91 102 1359 146 157 1360 92 105 1361 230 228 1362 187 195 1363 224 229 1364 156 161 1365 270 266 1366 271 281 1367 80 90 1368 262 277 1369 261 282 1370 54 65 1371 35 48 1372 55 68 1373 135 146 1374 65 77 1375 131 140 1376 150 162 1377 271 281 1378 275 283 1379 263 0 1380 267 0 1381 266 0 1382 267 0 1383 261 0 1384 266 0 1385 261 0 1386 262 0 1387 266 0 1388 266 0 1389 268 0 1390 1 0 1391 1 0 1392 4 0 1393 264 0 1394 264 0 1395 265 0 1396 266 0 1397 265 0 1398 263 0 1399 266 0 1400 276 1 1401 273 1 1402 272 1 1403 272 1 1404 274 1 1405 271 1 1406 274 1 1407 269 1 1408 1 1 1409 271 1 1410 274 1 1411 275 1 1412 1 1 1413 268 1 1414 275 1 1415 1 1 1416 275 1 1417 274 1 1418 271 1 1419 270 1 1420 276 1 1421 281 2 1422 279 2 1423 280 2 1424 280 2 1425 283 2 1426 281 2 1427 283 2 1428 277 2 1429 281 2 1430 277 2 1431 278 2 1432 282 2 1433 282 2 1434 4 2 1435 1 2 1436 1 2 1437 269 2 1438 281 2 1439 277 2 1440 282 2 1441 281 2 1442 4 1 1443 115 1 1444 77 1 1445 225 1 1446 115 1 1447 4 1 1448 153 3 1449 8 19 1450 12 4 1451 42 6 1452 193 194 1453 197 7 1454 3 9 1455 151 175 1456 168 10 1457 202 12 1458 188 208 1459 152 13 1460 250 15 1461 205 207 1462 209 16 1463 5 18 1464 82 88 1465 86 94 1466 42 6 1467 39 53 1468 187 195 1469 41 79 1470 114 141 1471 131 140 1472 226 255 1473 253 254 1474 279 262 1475 165 174 1476 151 175 1477 189 219 1478 214 220 1479 213 217 1480 57 66 1481 109 120 1482 93 107 1483 130 144 1484 179 14 1485 183 189 1486 203 209 1487 94 103 1488 265 269 1489 264 264 1490 3 9 1491 40 67 1492 189 219 1493 160 166 1494 178 170 1495 276 265 1496 242 244 1497 246 249 1498 140 154 1499 35 48 1500 19 37 1501 56 70 1502 239 243 1503 278 268 1504 277 267 1505 12 4 1506 30 28 1507 155 164 1508 216 218 1509 220 223 1510 166 176 1511 224 229 1512 187 195 1513 39 53 1514 78 116 1515 114 141 1516 41 79 1517 28 11 1518 168 10 1519 172 180 1520 225 242 1521 282 284 1522 278 268 1523 109 120 1524 129 142 1525 128 139 1526 117 127 1527 49 57 1528 67 61 1529 197 7 1530 215 203 1531 44 55 1532 224 229 1533 113 126 1534 119 125 1535 98 109 1536 263 274 1537 265 269 1538 17 32 1539 2 34 1540 41 79 1541 116 124 1542 45 52 1543 49 57 1544 54 65 1545 40 67 1546 3 9 1547 104 98 1548 7 23 1549 6 21 1550 178 170 1551 177 186 1552 273 270 1553 7 23 1554 104 98 1555 103 117 1556 72 83 1557 18 35 1558 17 32 1559 172 180 1560 155 164 1561 30 28 1562 253 254 1563 257 258 1564 280 271 1565 146 157 1566 130 144 1567 93 107 1568 5 18 1569 0 20 1570 76 89 1571 80 90 1572 261 282 1573 267 272 1574 118 129 1575 67 61 1576 66 80 1577 268 273 1578 266 276 1579 76 89 1580 0 20 1581 150 162 1582 268 273 1583 150 162 1584 275 283 1585 268 273 1586 167 178 1587 204 211 1588 203 209 1589 44 55 1590 215 203 1591 214 220 1592 72 83 1593 56 70 1594 19 37 1595 139 153 1596 115 152 1597 225 242 1598 102 114 1599 20 33 1600 24 39 1601 98 109 1602 81 92 1603 267 272 1604 250 15 1605 226 255 1606 188 208 1607 123 131 1608 141 135 1609 229 232 1610 240 245 1611 277 267 1612 283 275 1613 257 258 1614 241 247 1615 283 275 1616 220 223 1617 204 211 1618 167 178 1619 150 162 1620 0 20 1621 8 19 1622 192 198 1623 252 238 1624 251 17 1625 191 196 1626 234 234 1627 252 238 1628 190 193 1629 230 228 1630 234 234 1631 246 249 1632 229 232 1633 141 135 1634 176 185 1635 272 280 1636 273 270 1637 113 126 1638 39 53 1639 45 52 1640 128 139 1641 114 141 1642 78 116 1643 228 230 1644 227 227 1645 119 125 1646 79 87 1647 76 89 1648 266 276 1649 274 279 1650 152 13 1651 269 278 1652 152 13 1653 188 208 1654 269 278 1655 188 208 1656 226 255 1657 269 278 1658 213 217 1659 189 219 1660 40 67 1661 91 102 1662 77 104 1663 115 152 1664 176 185 1665 152 13 1666 274 279 1667 20 33 1668 102 114 1669 78 116 1670 91 102 1671 142 151 1672 146 157 1673 230 228 1674 190 193 1675 187 195 1676 156 161 1677 160 166 1678 270 266 1679 80 90 1680 79 87 1681 262 277 1682 54 65 1683 31 44 1684 35 48 1685 135 146 1686 66 80 1687 65 77 1688 150 162 1689 156 161 1690 271 281 1691</p>
        </triangles>
      </mesh>
    </geometry>
  </library_geometries>
  <library_visual_scenes>
    <visual_scene id="Scene" name="Scene">
      <node id="wall" name="wall" type="NODE">
        <matrix sid="transform">-4.37114e-8 1 0 2.5 -1 -4.37114e-8 0 -1 0 0 1 -8.5 0 0 0 1</matrix>
        <instance_geometry url="#Cube_001-mesh" name="wall"/>
      </node>
    </visual_scene>
  </library_visual_scenes>
  <scene>
    <instance_visual_scene url="#Scene"/>
  </scene>
</COLLADA>