<?xml version="1.0" encoding="utf-8"?>
<COLLADA xmlns="http://www.collada.org/2005/11/COLLADASchema" version="1.4.1" xmlns:xsi="http://www.w3.org/2001/XMLSchema-instance">
  <asset>
    <contributor>
      <author>Blender User</author>
      <authoring_tool>Blender 3.2.0 commit date:2022-06-08, commit time:10:22, hash:e05e1e369187</authoring_tool>
    </contributor>
    <created>2024-04-29T19:59:25</created>
    <modified>2024-04-29T19:59:25</modified>
    <unit name="meter" meter="1"/>
    <up_axis>Z_UP</up_axis>
  </asset>
  <library_images/>
  <library_geometries>
    <geometry id="Plane-mesh" name="Plane">
      <mesh>
        <source id="Plane-mesh-positions">
          <float_array id="Plane-mesh-positions-array" count="180">0.4268978 -0.6890953 0 0.3873983 -1.242579 0 0.5172907 0.06063443 0 0.5297482 0.791374 0 0.4012231 1.247137 0 0.3722062 -0.6890953 0 0.3327068 -1.242579 0 0.4625992 0.06063443 0 0.4750567 0.791374 0 0.3465316 1.247137 0 -0.01610368 -0.6344038 0 0.07565653 -1.23711 0 -0.02962464 0.1426717 0 -0.09920448 0.824189 0 0.007444024 1.247137 0 -0.07079523 -0.6344038 0 0.02096498 -1.23711 0 -0.08431619 0.1426717 0 -0.153896 0.824189 0 -0.04724746 1.247137 0 -0.4317594 -0.6125271 0 -0.3946907 -1.242579 0 -0.3304281 0.005942881 0 -0.3070324 0.6054228 0 -0.386335 1.247137 0 -0.4864509 -0.6125271 0 -0.4493823 -1.242579 0 -0.3851197 0.005942881 0 -0.3617239 0.6054228 0 -0.4410266 1.247137 0 0.4268978 -0.6890953 -0.1 0.3873983 -1.242579 -0.1 0.5172907 0.06063443 -0.1 0.5297482 0.791374 -0.09999996 0.4012231 1.247137 -0.09999996 0.3722062 -0.6890953 -0.09999996 0.3327068 -1.242579 -0.1 0.4625992 0.06063443 -0.1 0.4750567 0.791374 -0.1 0.3465316 1.247137 -0.1 -0.01610368 -0.6344038 -0.1 0.07565653 -1.23711 -0.1 -0.02962464 0.1426717 -0.1 -0.09920448 0.824189 -0.09999996 0.007444024 1.247137 -0.1 -0.07079523 -0.6344038 -0.1 0.02096498 -1.23711 -0.1 -0.08431619 0.1426717 -0.1 -0.153896 0.824189 -0.1 -0.04724746 1.247137 -0.1 -0.4317594 -0.6125271 -0.1 -0.3946907 -1.242579 -0.1 -0.3304281 0.005942881 -0.1 -0.3070324 0.6054228 -0.1 -0.386335 1.247137 -0.09999996 -0.4864509 -0.6125271 -0.09999996 -0.4493823 -1.242579 -0.1 -0.3851197 0.005942881 -0.1 -0.3617239 0.6054228 -0.1 -0.4410266 1.247137 -0.1</float_array>
          <technique_common>
            <accessor source="#Plane-mesh-positions-array" count="60" stride="3">
              <param name="X" type="float"/>
              <param name="Y" type="float"/>
              <param name="Z" type="float"/>
            </accessor>
          </technique_common>
        </source>
        <source id="Plane-mesh-normals">
          <float_array id="Plane-mesh-normals-array" count="177">0 0 1 0 0 -1 0 0 -1 3.72853e-7 0 -1 -2.4613e-7 0 -1 0 0 -1 0 0 -1 0 0 -1 0.9974632 -0.07118409 0 0.9928101 -0.1197005 0 0.9998548 -0.01704519 0 0.9624627 0.2714143 0 -0.9974632 0.07118409 0 -0.9928101 0.1197004 0 -0.9998548 0.01704519 0 -0.9624626 -0.2714143 0 0 1 0 0 -1 0 0.9886082 0.1505126 0 0.9998487 0.01739716 0 0.9948287 0.1015675 0 0.9696488 -0.244502 0 -0.9886082 -0.1505126 0 -0.9998487 -0.01739716 0 -0.9948287 -0.1015675 0 -0.9696488 0.244502 0 0.9982737 0.05873268 0 0.9868423 -0.1616858 0 0.9992393 -0.03899711 0 0.9924505 0.1226465 0 -0.9982737 -0.0587328 0 -0.9868423 0.161686 0 -0.9992393 0.03899711 0 -0.9924505 -0.1226465 0 2.98903e-7 0 -1 -3.63408e-7 0 -1 0 0 -1 3.22094e-7 0 -1 3.99782e-7 0 -1 4.24579e-7 0 -1 -2.20268e-7 0 -1 -4.32438e-7 0 -1 0.9928101 -0.1197004 0 0.9998548 -0.01704531 0 -0.9974632 0.07118409 0 -0.9928101 0.1197006 0 -0.9998548 0.01704531 0 -0.9624627 -0.2714145 0 0.9998487 0.01739716 0 0.9948287 0.1015675 0 0.9696488 -0.244502 0 -0.9948287 -0.1015675 0 -0.9696488 0.244502 0 0.9982737 0.0587328 0 0.9868423 -0.1616861 0 0.9924505 0.1226465 0 -0.9982737 -0.05873268 0 -0.9868423 0.161686 0 -0.9924505 -0.1226464 0</float_array>
          <technique_common>
            <accessor source="#Plane-mesh-normals-array" count="59" stride="3">
              <param name="X" type="float"/>
              <param name="Y" type="float"/>
              <param name="Z" type="float"/>
            </accessor>
          </technique_common>
        </source>
        <source id="Plane-mesh-map-0">
          <float_array id="Plane-mesh-map-0-array" count="648">0.8838717 0.5238682 0.8887998 0.5732535 0.8837689 0.5745015 0.8831431 0.8198727 0.8893666 0.695056 0.8879179 0.8210579 0.8840258 0.6944124 0.8887998 0.5732535 0.8893666 0.695056 0.881683 0.8712647 0.8879179 0.8210579 0.8839595 0.8728613 0.9585247 0.5709691 0.9599724 0.5265015 0.9635953 0.5712359 0.9574272 0.690389 0.9623247 0.821798 0.9578964 0.8220764 0.9585247 0.5709691 0.9630005 0.6898372 0.9574272 0.690389 0.9578964 0.8220764 0.9585952 0.872059 0.9567689 0.871169 0.8073264 0.53969 0.8127786 0.6104141 0.8075036 0.6108796 0.8072983 0.8183522 0.8128008 0.7115134 0.8117238 0.8191058 0.8073918 0.7105572 0.8127786 0.6104141 0.8128008 0.7115134 0.8072983 0.8183522 0.8084884 0.8705843 0.8066896 0.8696535 0.8682171 0.5722766 0.8778763 0.5156552 0.8736389 0.5740592 0.8734644 0.8198977 0.8683192 0.69503 0.8737772 0.6944074 0.8737772 0.6944074 0.8682171 0.5722766 0.8736389 0.5740592 0.8789301 0.8790886 0.8682793 0.8214392 0.8734644 0.8198977 0.9478548 0.5692473 0.9540132 0.4726214 0.9540054 0.5230467 0.9423386 0.8231627 0.9474348 0.6904831 0.9487255 0.8226943 0.9418795 0.6899933 0.9478548 0.5692473 0.9474348 0.6904831 0.9591279 0.9630473 0.9487255 0.8226943 0.9550837 0.876428 0.7915909 0.6097232 0.8011513 0.5309817 0.7971827 0.6105353 0.7981048 0.818978 0.7917333 0.7114099 0.797221 0.7104887 0.797221 0.7104887 0.7915909 0.6097232 0.7971827 0.6105353 0.8101001 0.9662628 0.7981048 0.818978 0.8049842 0.8750058 0.881683 0.8712647 0.8734644 0.8198977 0.8831431 0.8198727 0.8831431 0.8198727 0.8737772 0.6944074 0.8840258 0.6944124 0.8840258 0.6944124 0.8736389 0.5740592 0.8837689 0.5745015 0.8837689 0.5745015 0.8778763 0.5156552 0.8838717 0.5238682 0.8879179 0.8210579 0.8864867 0.9625155 0.8839595 0.8728613 0.8893666 0.695056 0.8994904 0.8233902 0.8879179 0.8210579 0.8887998 0.5732535 0.8993523 0.695128 0.8893666 0.695056 0.8865421 0.5223978 0.8994904 0.5714752 0.8887998 0.5732535 0.8865421 0.5223978 0.8778763 0.5156552 0.8807927 0.4495939 0.8839595 0.8728613 0.8789301 0.8790886 0.881683 0.8712647 0.9567689 0.871169 0.9487255 0.8226943 0.9578964 0.8220764 0.9578964 0.8220764 0.9474348 0.6904831 0.9574272 0.690389 0.9574272 0.690389 0.9478548 0.5692473 0.9585247 0.5709691 0.9585247 0.5709691 0.9540054 0.5230467 0.9575513 0.5271739 0.9623247 0.821798 0.9591279 0.9630473 0.9585952 0.872059 0.9630005 0.6898372 0.9737973 0.8241216 0.9623247 0.821798 0.9635953 0.5712359 0.9737517 0.6898004 0.9630005 0.6898372 0.9599724 0.5265015 0.9737973 0.5692537 0.9635953 0.5712359 0.9575513 0.5271739 0.9540132 0.4726214 0.9599724 0.5265015 0.9585952 0.872059 0.9550837 0.876428 0.9567689 0.871169 0.8066896 0.8696535 0.7981048 0.818978 0.8072983 0.8183522 0.8072983 0.8183522 0.797221 0.7104887 0.8073918 0.7105572 0.8073918 0.7105572 0.7971827 0.6105353 0.8075036 0.6108796 0.8075036 0.6108796 0.8011513 0.5309817 0.8073264 0.53969 0.8117238 0.8191058 0.8101001 0.9662628 0.8084884 0.8705843 0.8128008 0.7115134 0.8232615 0.8211352 0.8117238 0.8191058 0.8127786 0.6104141 0.8230648 0.7116062 0.8128008 0.7115134 0.8103758 0.5384016 0.8232615 0.6093804 0.8127786 0.6104141 0.8103758 0.5384016 0.8011513 0.5309817 0.804742 0.4247907 0.8084884 0.8705843 0.8049842 0.8750058 0.8066896 0.8696535 0.8838717 0.5238682 0.8865421 0.5223978 0.8887998 0.5732535 0.8831431 0.8198727 0.8840258 0.6944124 0.8893666 0.695056 0.8840258 0.6944124 0.8837689 0.5745015 0.8887998 0.5732535 0.881683 0.8712647 0.8831431 0.8198727 0.8879179 0.8210579 0.9585247 0.5709691 0.9575513 0.5271739 0.9599724 0.5265015 0.9574272 0.690389 0.9630005 0.6898372 0.9623247 0.821798 0.9585247 0.5709691 0.9635953 0.5712359 0.9630005 0.6898372 0.9578964 0.8220764 0.9623247 0.821798 0.9585952 0.872059 0.8073264 0.53969 0.8103758 0.5384016 0.8127786 0.6104141 0.8072983 0.8183522 0.8073918 0.7105572 0.8128008 0.7115134 0.8073918 0.7105572 0.8075036 0.6108796 0.8127786 0.6104141 0.8072983 0.8183522 0.8117238 0.8191058 0.8084884 0.8705843 0.8682171 0.5722766 0.8807927 0.4495939 0.8778763 0.5156552 0.8734644 0.8198977 0.8682793 0.8214392 0.8683192 0.69503 0.8737772 0.6944074 0.8683192 0.69503 0.8682171 0.5722766 0.8789301 0.8790886 0.8864867 0.9625155 0.8682793 0.8214392 0.9478548 0.5692473 0.9414241 0.5687393 0.9540132 0.4726214 0.9423386 0.8231627 0.9418795 0.6899933 0.9474348 0.6904831 0.9418795 0.6899933 0.9414241 0.5687393 0.9478548 0.5692473 0.9591279 0.9630473 0.9423386 0.8231627 0.9487255 0.8226943 0.7915909 0.6097232 0.804742 0.4247907 0.8011513 0.5309817 0.7981048 0.818978 0.791743 0.8208904 0.7917333 0.7114099 0.797221 0.7104887 0.7917333 0.7114099 0.7915909 0.6097232 0.8101001 0.9662628 0.791743 0.8208904 0.7981048 0.818978 0.881683 0.8712647 0.8789301 0.8790886 0.8734644 0.8198977 0.8831431 0.8198727 0.8734644 0.8198977 0.8737772 0.6944074 0.8840258 0.6944124 0.8737772 0.6944074 0.8736389 0.5740592 0.8837689 0.5745015 0.8736389 0.5740592 0.8778763 0.5156552 0.8879179 0.8210579 0.8994904 0.8233902 0.8864867 0.9625155 0.8893666 0.695056 0.8993523 0.695128 0.8994904 0.8233902 0.8887998 0.5732535 0.8994904 0.5714752 0.8993523 0.695128 0.8865421 0.5223978 0.8807927 0.4495939 0.8994904 0.5714752 0.8865421 0.5223978 0.8838717 0.5238682 0.8778763 0.5156552 0.8839595 0.8728613 0.8864867 0.9625155 0.8789301 0.8790886 0.9567689 0.871169 0.9550837 0.876428 0.9487255 0.8226943 0.9578964 0.8220764 0.9487255 0.8226943 0.9474348 0.6904831 0.9574272 0.690389 0.9474348 0.6904831 0.9478548 0.5692473 0.9585247 0.5709691 0.9478548 0.5692473 0.9540054 0.5230467 0.9623247 0.821798 0.9737973 0.8241216 0.9591279 0.9630473 0.9630005 0.6898372 0.9737517 0.6898004 0.9737973 0.8241216 0.9635953 0.5712359 0.9737973 0.5692537 0.9737517 0.6898004 0.9599724 0.5265015 0.9540132 0.4726214 0.9737973 0.5692537 0.9575513 0.5271739 0.9540054 0.5230467 0.9540132 0.4726214 0.9585952 0.872059 0.9591279 0.9630473 0.9550837 0.876428 0.8066896 0.8696535 0.8049842 0.8750058 0.7981048 0.818978 0.8072983 0.8183522 0.7981048 0.818978 0.797221 0.7104887 0.8073918 0.7105572 0.797221 0.7104887 0.7971827 0.6105353 0.8075036 0.6108796 0.7971827 0.6105353 0.8011513 0.5309817 0.8117238 0.8191058 0.8232615 0.8211352 0.8101001 0.9662628 0.8128008 0.7115134 0.8230648 0.7116062 0.8232615 0.8211352 0.8127786 0.6104141 0.8232615 0.6093804 0.8230648 0.7116062 0.8103758 0.5384016 0.804742 0.4247907 0.8232615 0.6093804 0.8103758 0.5384016 0.8073264 0.53969 0.8011513 0.5309817 0.8084884 0.8705843 0.8101001 0.9662628 0.8049842 0.8750058</float_array>
          <technique_common>
            <accessor source="#Plane-mesh-map-0-array" count="324" stride="2">
              <param name="S" type="float"/>
              <param name="T" type="float"/>
            </accessor>
          </technique_common>
        </source>
        <vertices id="Plane-mesh-vertices">
          <input semantic="POSITION" source="#Plane-mesh-positions"/>
        </vertices>
        <triangles count="108">
          <input semantic="VERTEX" source="#Plane-mesh-vertices" offset="0"/>
          <input semantic="NORMAL" source="#Plane-mesh-normals" offset="1"/>
          <input semantic="TEXCOORD" source="#Plane-mesh-map-0" offset="2" set="0"/>
          <p>4 0 0 8 0 1 3 0 2 0 0 3 7 0 4 5 0 5 2 0 6 8 0 7 7 0 8 1 0 9 5 0 10 6 0 11 13 0 12 19 0 13 18 0 14 12 0 15 15 0 16 10 0 17 13 0 18 17 0 19 12 0 20 10 0 21 16 0 22 11 0 23 24 0 24 28 0 25 23 0 26 20 0 27 27 0 28 25 0 29 22 0 30 28 0 31 27 0 32 20 0 33 26 0 34 21 0 35 38 1 36 34 1 37 33 1 38 30 2 39 37 2 40 32 2 41 32 3 42 38 3 43 33 3 44 31 4 45 35 4 46 30 4 47 43 5 48 49 5 49 44 5 50 45 2 51 42 2 52 40 2 53 47 6 54 43 6 55 42 6 56 46 2 57 40 2 58 41 2 59 58 7 60 54 7 61 53 7 62 50 2 63 57 2 64 52 2 65 52 2 66 58 2 67 53 2 68 56 2 69 50 2 70 51 2 71 1 8 72 30 8 73 0 8 74 0 9 75 32 9 76 2 9 77 2 10 78 33 10 79 3 10 80 3 11 81 34 11 82 4 11 83 5 12 84 36 12 85 6 12 86 7 13 87 35 13 88 5 13 89 8 14 90 37 14 91 7 14 92 9 15 93 38 15 94 8 15 95 9 16 96 34 16 97 39 16 98 6 17 99 31 17 100 1 17 101 11 18 102 40 18 103 10 18 104 10 19 105 42 19 106 12 19 107 12 20 108 43 20 109 13 20 110 13 21 111 44 21 112 14 21 113 15 22 114 46 22 115 16 22 116 17 23 117 45 23 118 15 23 119 18 24 120 47 24 121 17 24 122 19 25 123 48 25 124 18 25 125 14 16 126 49 16 127 19 16 128 16 17 129 41 17 130 11 17 131 21 26 132 50 26 133 20 26 134 20 27 135 52 27 136 22 27 137 22 28 138 53 28 139 23 28 140 23 29 141 54 29 142 24 29 143 25 30 144 56 30 145 26 30 146 27 31 147 55 31 148 25 31 149 28 32 150 57 32 151 27 32 152 29 33 153 58 33 154 28 33 155 29 16 156 54 16 157 59 16 158 26 17 159 51 17 160 21 17 161 4 0 162 9 0 163 8 0 164 0 0 165 2 0 166 7 0 167 2 0 168 3 0 169 8 0 170 1 0 171 0 0 172 5 0 173 13 0 174 14 0 175 19 0 176 12 0 177 17 0 178 15 0 179 13 0 180 18 0 181 17 0 182 10 0 183 15 0 184 16 0 185 24 0 186 29 0 187 28 0 188 20 0 189 22 0 190 27 0 191 22 0 192 23 0 193 28 0 194 20 0 195 25 0 196 26 0 197 38 34 198 39 34 199 34 34 200 30 35 201 35 35 202 37 35 203 32 2 204 37 2 205 38 2 206 31 36 207 36 36 208 35 36 209 43 37 210 48 37 211 49 37 212 45 2 213 47 2 214 42 2 215 47 38 216 48 38 217 43 38 218 46 2 219 45 2 220 40 2 221 58 39 222 59 39 223 54 39 224 50 40 225 55 40 226 57 40 227 52 2 228 57 2 229 58 2 230 56 41 231 55 41 232 50 41 233 1 8 234 31 8 235 30 8 236 0 42 237 30 42 238 32 42 239 2 43 240 32 43 241 33 43 242 3 11 243 33 11 244 34 11 245 5 44 246 35 44 247 36 44 248 7 45 249 37 45 250 35 45 251 8 46 252 38 46 253 37 46 254 9 47 255 39 47 256 38 47 257 9 16 258 4 16 259 34 16 260 6 17 261 36 17 262 31 17 263 11 18 264 41 18 265 40 18 266 10 48 267 40 48 268 42 48 269 12 49 270 42 49 271 43 49 272 13 50 273 43 50 274 44 50 275 15 22 276 45 22 277 46 22 278 17 23 279 47 23 280 45 23 281 18 51 282 48 51 283 47 51 284 19 52 285 49 52 286 48 52 287 14 16 288 44 16 289 49 16 290 16 17 291 46 17 292 41 17 293 21 53 294 51 53 295 50 53 296 20 54 297 50 54 298 52 54 299 22 28 300 52 28 301 53 28 302 23 55 303 53 55 304 54 55 305 25 56 306 55 56 307 56 56 308 27 57 309 57 57 310 55 57 311 28 32 312 58 32 313 57 32 314 29 58 315 59 58 316 58 58 317 29 16 318 24 16 319 54 16 320 26 17 321 56 17 322 51 17 323</p>
        </triangles>
      </mesh>
    </geometry>
    <geometry id="Cube_002-mesh" name="Cube.002">
      <mesh>
        <source id="Cube_002-mesh-positions">
          <float_array id="Cube_002-mesh-positions-array" count="24">1 1.3 0 1 -1.3 0 -1 -1.3 0 -1 1.3 0 -1 1.3 0.1 1 1.3 0.1 -1 -1.3 0.1 1 -1.3 0.1</float_array>
          <technique_common>
            <accessor source="#Cube_002-mesh-positions-array" count="8" stride="3">
              <param name="X" type="float"/>
              <param name="Y" type="float"/>
              <param name="Z" type="float"/>
            </accessor>
          </technique_common>
        </source>
        <source id="Cube_002-mesh-normals">
          <float_array id="Cube_002-mesh-normals-array" count="18">0 0 -1 0 0 1 0 -1 0 0 1 0 1 0 0 -1 0 0</float_array>
          <technique_common>
            <accessor source="#Cube_002-mesh-normals-array" count="6" stride="3">
              <param name="X" type="float"/>
              <param name="Y" type="float"/>
              <param name="Z" type="float"/>
            </accessor>
          </technique_common>
        </source>
        <source id="Cube_002-mesh-map-0">
          <float_array id="Cube_002-mesh-map-0-array" count="72">0.880891 0.1428761 0.9045218 0.1121559 0.9045218 0.1428761 0.02261984 0.03345781 0.7490367 0.9777995 0.02261984 0.9777995 0.9364235 0.1050667 0.9376052 0.08143568 0.9376052 0.1050667 0.9376052 0.1050667 0.9387867 0.08143568 0.9387867 0.1050667 0.94464 0.1699342 0.9458216 0.139214 0.9458216 0.1699342 0.9449438 0.139214 0.9461254 0.1084938 0.9461254 0.139214 0.880891 0.1428761 0.880891 0.1121559 0.9045218 0.1121559 0.02261984 0.03345781 0.7490367 0.03345781 0.7490367 0.9777995 0.9364235 0.1050667 0.9364235 0.08143568 0.9376052 0.08143568 0.9376052 0.1050667 0.9376052 0.08143568 0.9387867 0.08143568 0.94464 0.1699342 0.94464 0.139214 0.9458216 0.139214 0.9449438 0.139214 0.9449438 0.1084938 0.9461254 0.1084938</float_array>
          <technique_common>
            <accessor source="#Cube_002-mesh-map-0-array" count="36" stride="2">
              <param name="S" type="float"/>
              <param name="T" type="float"/>
            </accessor>
          </technique_common>
        </source>
        <vertices id="Cube_002-mesh-vertices">
          <input semantic="POSITION" source="#Cube_002-mesh-positions"/>
        </vertices>
        <triangles count="12">
          <input semantic="VERTEX" source="#Cube_002-mesh-vertices" offset="0"/>
          <input semantic="NORMAL" source="#Cube_002-mesh-normals" offset="1"/>
          <input semantic="TEXCOORD" source="#Cube_002-mesh-map-0" offset="2" set="0"/>
          <p>0 0 0 2 0 1 3 0 2 6 1 3 5 1 4 4 1 5 7 2 6 2 2 7 1 2 8 4 3 9 0 3 10 3 3 11 5 4 12 1 4 13 0 4 14 6 5 15 3 5 16 2 5 17 0 0 18 1 0 19 2 0 20 6 1 21 7 1 22 5 1 23 7 2 24 6 2 25 2 2 26 4 3 27 5 3 28 0 3 29 5 4 30 7 4 31 1 4 32 6 5 33 4 5 34 3 5 35</p>
        </triangles>
      </mesh>
    </geometry>
    <geometry id="Cube_001-mesh" name="Cube.001">
      <mesh>
        <source id="Cube_001-mesh-positions">
          <float_array id="Cube_001-mesh-positions-array" count="48">0.9 1.2 1 0.9 -1.2 1 -0.9 1.2 1 -0.9 -1.2 1 1 1.3 0 1 -1.3 0 -1 -1.3 0 -1 1.3 0 1 1.3 1 1 -1.3 1 -1 -1.3 1 -1 1.3 1 0.9 1.2 0.1 0.9 -1.2 0.1 -0.9 -1.2 0.1 -0.9 1.2 0.1</float_array>
          <technique_common>
            <accessor source="#Cube_001-mesh-positions-array" count="16" stride="3">
              <param name="X" type="float"/>
              <param name="Y" type="float"/>
              <param name="Z" type="float"/>
            </accessor>
          </technique_common>
        </source>
        <source id="Cube_001-mesh-normals">
          <float_array id="Cube_001-mesh-normals-array" count="24">1 0 0 0 -1 0 -1 0 0 0 1 0 -9.93411e-7 0 1 0 0 1 9.93411e-7 0 1 0 0 -1</float_array>
          <technique_common>
            <accessor source="#Cube_001-mesh-normals-array" count="8" stride="3">
              <param name="X" type="float"/>
              <param name="Y" type="float"/>
              <param name="Z" type="float"/>
            </accessor>
          </technique_common>
        </source>
        <source id="Cube_001-mesh-map-0">
          <float_array id="Cube_001-mesh-map-0-array" count="168">0.9202675 0.1611115 0.9484964 0.08771616 0.9484964 0.1611115 0.8920385 0.2175695 0.9202675 0.1611115 0.9202675 0.2175695 0.8920385 0.1611115 0.9202675 0.08771616 0.9202675 0.1611115 0.9202675 0.2175695 0.9484964 0.1611115 0.9484964 0.2175695 0.7791224 0.1667573 0.8045285 0.2175695 0.7791224 0.2175695 0.8892154 0.02278947 0.8920385 0.09336191 0.8892154 0.09053909 0.8384034 0.02278947 0.8920385 0.01996654 0.8892154 0.02278947 0.8384034 0.09053909 0.8355804 0.01996654 0.8384034 0.02278947 0.8892154 0.09053909 0.8355804 0.09336191 0.8384034 0.09053909 0.9428505 0.01996654 0.8920385 0.08771616 0.8920385 0.01996654 0.9484964 0.1554657 0.9739026 0.2062779 0.9484964 0.2062779 0.9428505 0.01996654 0.9682567 0.08771616 0.9428505 0.08771616 0.9484964 0.08771616 0.9739026 0.1554657 0.9484964 0.1554657 0.7791224 0.09336191 0.8355804 0.01996654 0.8355804 0.09336191 0.9202675 0.1611115 0.9202675 0.08771616 0.9484964 0.08771616 0.8920385 0.2175695 0.8920385 0.1611115 0.9202675 0.1611115 0.8920385 0.1611115 0.8920385 0.08771616 0.9202675 0.08771616 0.9202675 0.2175695 0.9202675 0.1611115 0.9484964 0.1611115 0.7791224 0.1667573 0.8045285 0.1667573 0.8045285 0.2175695 0.8892154 0.02278947 0.8920385 0.01996654 0.8920385 0.09336191 0.8384034 0.02278947 0.8355804 0.01996654 0.8920385 0.01996654 0.8384034 0.09053909 0.8355804 0.09336191 0.8355804 0.01996654 0.8892154 0.09053909 0.8920385 0.09336191 0.8355804 0.09336191 0.9428505 0.01996654 0.9428505 0.08771616 0.8920385 0.08771616 0.9484964 0.1554657 0.9739026 0.1554657 0.9739026 0.2062779 0.9428505 0.01996654 0.9682567 0.01996654 0.9682567 0.08771616 0.9484964 0.08771616 0.9739026 0.08771616 0.9739026 0.1554657 0.7791224 0.09336191 0.7791224 0.01996654 0.8355804 0.01996654</float_array>
          <technique_common>
            <accessor source="#Cube_001-mesh-map-0-array" count="84" stride="2">
              <param name="S" type="float"/>
              <param name="T" type="float"/>
            </accessor>
          </technique_common>
        </source>
        <vertices id="Cube_001-mesh-vertices">
          <input semantic="POSITION" source="#Cube_001-mesh-positions"/>
        </vertices>
        <triangles count="28">
          <input semantic="VERTEX" source="#Cube_001-mesh-vertices" offset="0"/>
          <input semantic="NORMAL" source="#Cube_001-mesh-normals" offset="1"/>
          <input semantic="TEXCOORD" source="#Cube_001-mesh-map-0" offset="2" set="0"/>
          <p>8 0 0 5 0 1 4 0 2 9 1 3 6 1 4 5 1 5 10 2 6 7 2 7 6 2 8 11 3 9 4 3 10 7 3 11 2 1 12 12 1 13 0 1 14 1 4 15 8 4 16 0 4 17 3 5 18 9 5 19 1 5 20 2 6 21 10 6 22 3 6 23 0 5 24 11 5 25 2 5 26 13 5 27 15 5 28 14 5 29 1 3 30 14 3 31 3 3 32 3 0 33 15 0 34 2 0 35 0 2 36 13 2 37 1 2 38 4 7 39 6 7 40 7 7 41 8 0 42 9 0 43 5 0 44 9 1 45 10 1 46 6 1 47 10 2 48 11 2 49 7 2 50 11 3 51 8 3 52 4 3 53 2 1 54 15 1 55 12 1 56 1 5 57 9 5 58 8 5 59 3 5 60 10 5 61 9 5 62 2 5 63 11 5 64 10 5 65 0 5 66 8 5 67 11 5 68 13 5 69 12 5 70 15 5 71 1 3 72 13 3 73 14 3 74 3 0 75 14 0 76 15 0 77 0 2 78 12 2 79 13 2 80 4 7 81 5 7 82 6 7 83</p>
        </triangles>
      </mesh>
    </geometry>
  </library_geometries>
  <library_visual_scenes>
    <visual_scene id="Scene" name="Scene">
      <node id="wire" name="wire" type="NODE">
        <matrix sid="transform">1 0 0 0 0 1 0 0 0 0 1 0.4906062 0 0 0 1</matrix>
        <instance_geometry url="#Plane-mesh" name="wire"/>
      </node>
      <node id="lid" name="lid" type="NODE">
        <matrix sid="transform">1 0 0 0 0 1 0 0 0 0 1 1 0 0 0 1</matrix>
        <instance_geometry url="#Cube_002-mesh" name="lid"/>
      </node>
      <node id="elecbox" name="elecbox" type="NODE">
        <matrix sid="transform">1 0 0 0 0 1 0 0 0 0 1 0 0 0 0 1</matrix>
        <instance_geometry url="#Cube_001-mesh" name="elecbox"/>
      </node>
    </visual_scene>
  </library_visual_scenes>
  <scene>
    <instance_visual_scene url="#Scene"/>
  </scene>
</COLLADA>