<?xml version="1.0" encoding="utf-8"?>
<COLLADA xmlns="http://www.collada.org/2005/11/COLLADASchema" version="1.4.1" xmlns:xsi="http://www.w3.org/2001/XMLSchema-instance">
  <asset>
    <contributor>
      <author>Blender User</author>
      <authoring_tool>Blender 3.2.0 commit date:2022-06-08, commit time:10:22, hash:e05e1e369187</authoring_tool>
    </contributor>
    <created>2024-04-21T21:51:10</created>
    <modified>2024-04-21T21:51:10</modified>
    <unit name="meter" meter="1"/>
    <up_axis>Z_UP</up_axis>
  </asset>
  <library_images/>
  <library_geometries>
    <geometry id="Cube_001-mesh" name="Cube.001">
      <mesh>
        <source id="Cube_001-mesh-positions">
          <float_array id="Cube_001-mesh-positions-array" count="102">-2.38419e-7 5.011967 11.5 -2.38419e-7 5.011967 0 -11.5 5.011967 0 -11.44892 5.011967 -2.388092 -11.29897 5.011967 -2.750122 2.388092 5.011967 11.44892 2.750121 5.011967 11.29897 -10 5.011967 -3.5 3.5 5.011967 10 3.060659 5.011967 11.06066 3.298967 5.011967 10.75012 2 5.011967 11.5 3.448925 5.011967 10.38809 -11.5 5.011967 -2 -11.06066 5.011967 -3.060659 -10.75012 5.011967 -3.298967 -10.38809 5.011967 -3.448925 -2.38419e-7 -5.011967 11.5 -2.38419e-7 -5.011967 0 -11.5 -5.011967 0 -11.29897 -5.011967 -2.750122 -11.44892 -5.011967 -2.388092 2.388092 -5.011967 11.44892 2.750121 -5.011967 11.29897 -10 -5.011967 -3.5 3.5 -5.011967 10 3.060659 -5.011967 11.06066 3.298967 -5.011967 10.75012 2 -5.011967 11.5 3.448925 -5.011967 10.38809 -11.5 -5.011967 -2 -11.06066 -5.011967 -3.060659 -10.75012 -5.011967 -3.298967 -10.38809 -5.011967 -3.448925</float_array>
          <technique_common>
            <accessor source="#Cube_001-mesh-positions-array" count="34" stride="3">
              <param name="X" type="float"/>
              <param name="Y" type="float"/>
              <param name="Z" type="float"/>
            </accessor>
          </technique_common>
        </source>
        <source id="Cube_001-mesh-normals">
          <float_array id="Cube_001-mesh-normals-array" count="99">-1 0 0 0 0 1 -0.9659318 0 -0.2587968 -0.8660134 0 -0.5000211 -0.9659319 0 -0.2587968 0.5000227 0 0.8660123 0.2587951 0 0.9659323 0.5000199 0 0.866014 0.7071072 0 0.7071065 0.7071062 0 0.7071075 0.8660129 0 0.5000217 0.8660134 0 0.500021 0.2587987 0 0.9659314 0.06537884 0 0.9978606 0.06538069 0 0.9978604 -0.7071067 0 0.7071069 0.9659317 0 0.2587971 0.965932 0 0.2587965 -0.9978604 0 -0.06537997 -0.9978605 0 -0.06537997 -0.8660134 0 -0.5000211 -0.7071074 0 -0.7071063 -0.5000205 0 -0.8660136 -0.7071071 0 -0.7071065 -0.2587965 0 -0.9659319 -0.5000215 0 -0.8660131 -0.7071069 0 0.7071067 -0.7071068 0 0.7071068 0.991451 0 0.1304801 0.991451 0 0.1304801 -0.1304816 0 -0.9914507 -0.2587965 0 -0.965932 -0.1304798 0 -0.991451</float_array>
          <technique_common>
            <accessor source="#Cube_001-mesh-normals-array" count="33" stride="3">
              <param name="X" type="float"/>
              <param name="Y" type="float"/>
              <param name="Z" type="float"/>
            </accessor>
          </technique_common>
        </source>
        <source id="Cube_001-mesh-map-0">
          <float_array id="Cube_001-mesh-map-0-array" count="192">0.375 0.04243916 0.5803571 0.1750016 0.5803571 0.0427044 0.125 0.7075608 0.3303571 0.5749984 0.125 0.5760853 0 0 0 0 0 0 0 0 0 0 0 0 0 0 0 0 0 0 0 0 0 0 0 0 0 0 0 0 0 0 0 0 0 0 0 0 0 0 0 0 0 0 0 0 0 0 0 0 0 0 0 0 0 0 0 0 0 0 0 0 0 0 0 0 0 0 0 0 0 0 0 0 0 0 0 0 0 0 0 0 0 0 0 0 0.375 0.04243916 0.375 0.1739146 0.5803571 0.1750016 0.125 0.7075608 0.3303572 0.7072956 0.3303571 0.5749984 0 0 0 0 0 0 0 0 0 0 0 0 0 0 0 0 0 0 0 0 0 0 0 0 0 0 0 0 0 0 0 0 0 0 0 0 0 0 0 0 0 0 0 0 0 0 0 0 0 0 0 0 0 0 0 0 0 0 0 0 0 0 0 0 0 0 0 0 0 0 0 0 0 0 0 0 0 0 0 0 0 0 0 0</float_array>
          <technique_common>
            <accessor source="#Cube_001-mesh-map-0-array" count="96" stride="2">
              <param name="S" type="float"/>
              <param name="T" type="float"/>
            </accessor>
          </technique_common>
        </source>
        <source id="Cube_001-mesh-map-1">
          <float_array id="Cube_001-mesh-map-1-array" count="192">0 0 0 0 0 0 0 0 0 0 0 0 0.3519259 0.213912 0.3431705 0.07344788 0.3521707 0.07364779 0.7854406 0.6569134 0.9258233 0.6481887 0.925989 0.6571906 0.785293 0.6661143 0.925989 0.6571906 0.9262208 0.6663931 0.656909 0.7856245 0.6663752 0.9264051 0.6571614 0.9261682 0.7855532 0.6479135 0.9257764 0.6392611 0.9258233 0.6481887 0.7856041 0.6389887 0.9235457 0.5929021 0.9257764 0.6392611 0.6479064 0.7857342 0.6571614 0.9261682 0.6481512 0.9259983 0.3519259 0.213912 0.361095 0.0737282 0.3608569 0.2138946 0.3429181 0.2139915 0.3339686 0.07318079 0.3431705 0.07344788 0.2139598 0.3429343 0.07314133 0.3340111 0.2140691 0.3337323 0.2138839 0.3519356 0.07341128 0.3432115 0.2139598 0.3429343 0.3607013 0.3054916 0.4070624 0.3055641 0.4070624 0.3055641 0.6389798 0.7857831 0.6481512 0.9259983 0.639218 0.9259495 0.2138686 0.3608622 0.07361388 0.3522107 0.2138839 0.3519356 0 0 0 0 0 0 0 0 0 0 0 0 0.3519259 0.213912 0.3429181 0.2139915 0.3431705 0.07344788 0.7854406 0.6569134 0.7855532 0.6479135 0.9258233 0.6481887 0.785293 0.6661143 0.7854406 0.6569134 0.925989 0.6571906 0.656909 0.7856245 0.6661138 0.7854804 0.6663752 0.9264051 0.7855532 0.6479135 0.7856041 0.6389887 0.9257764 0.6392611 0.7856041 0.6389887 0.7763648 0.5926162 0.9235457 0.5929021 0.6479064 0.7857342 0.656909 0.7856245 0.6571614 0.9261682 0.3519259 0.213912 0.3521707 0.07364779 0.361095 0.0737282 0.3429181 0.2139915 0.3337072 0.2141054 0.3339686 0.07318079 0.2139598 0.3429343 0.07341128 0.3432115 0.07314133 0.3340111 0.2138839 0.3519356 0.07361388 0.3522107 0.07341128 0.3432115 0.3607013 0.3054916 0.3607013 0.3054916 0.4070624 0.3055641 0.6389798 0.7857831 0.6479064 0.7857342 0.6481512 0.9259983 0.2138686 0.3608622 0.07369637 0.3611345 0.07361388 0.3522107</float_array>
          <technique_common>
            <accessor source="#Cube_001-mesh-map-1-array" count="96" stride="2">
              <param name="S" type="float"/>
              <param name="T" type="float"/>
            </accessor>
          </technique_common>
        </source>
        <vertices id="Cube_001-mesh-vertices">
          <input semantic="POSITION" source="#Cube_001-mesh-positions"/>
        </vertices>
        <triangles count="32">
          <input semantic="VERTEX" source="#Cube_001-mesh-vertices" offset="0"/>
          <input semantic="NORMAL" source="#Cube_001-mesh-normals" offset="1"/>
          <input semantic="TEXCOORD" source="#Cube_001-mesh-map-0" offset="2" set="0"/>
          <input semantic="TEXCOORD" source="#Cube_001-mesh-map-1" offset="2" set="1"/>
          <p>1 0 0 17 0 1 0 0 2 1 1 3 19 1 4 18 1 5 3 2 6 20 3 7 21 4 8 6 5 9 22 6 10 23 7 11 9 8 12 23 7 13 26 9 14 10 10 15 26 9 16 27 11 17 5 12 18 28 13 19 22 6 20 11 14 21 17 15 22 28 13 23 12 16 24 27 11 25 29 17 26 3 2 27 30 18 28 13 19 29 4 20 30 31 21 31 20 3 32 15 22 33 31 21 34 14 23 35 16 24 36 32 25 37 15 22 38 13 19 39 19 26 40 2 27 41 8 28 42 29 17 43 25 29 44 7 30 45 33 31 46 16 24 47 1 0 48 18 0 49 17 0 50 1 1 51 2 1 52 19 1 53 3 2 54 4 20 55 20 3 56 6 5 57 5 12 58 22 6 59 9 8 60 6 5 61 23 7 62 10 10 63 9 8 64 26 9 65 5 12 66 11 14 67 28 13 68 11 14 69 0 27 70 17 15 71 12 16 72 10 10 73 27 11 74 3 2 75 21 4 76 30 18 77 4 20 78 14 23 79 31 21 80 15 22 81 32 25 82 31 21 83 16 24 84 33 31 85 32 25 86 13 19 87 30 18 88 19 26 89 8 28 90 12 16 91 29 17 92 7 30 93 24 32 94 33 31 95</p>
        </triangles>
      </mesh>
    </geometry>
  </library_geometries>
  <library_visual_scenes>
    <visual_scene id="Scene" name="Scene">
      <node id="wall" name="wall" type="NODE">
        <matrix sid="transform">-4.37114e-8 1 0 -2.38419e-7 -1 -4.37114e-8 0 -5 0 0 1 -5 0 0 0 1</matrix>
        <instance_geometry url="#Cube_001-mesh" name="wall"/>
      </node>
    </visual_scene>
  </library_visual_scenes>
  <scene>
    <instance_visual_scene url="#Scene"/>
  </scene>
</COLLADA>