<?xml version="1.0" encoding="utf-8"?>
<COLLADA xmlns="http://www.collada.org/2005/11/COLLADASchema" version="1.4.1" xmlns:xsi="http://www.w3.org/2001/XMLSchema-instance">
  <asset>
    <contributor>
      <author>Blender User</author>
      <authoring_tool>Blender 3.2.0 commit date:2022-06-08, commit time:10:22, hash:e05e1e369187</authoring_tool>
    </contributor>
    <created>2024-04-20T20:37:39</created>
    <modified>2024-04-20T20:37:39</modified>
    <unit name="meter" meter="1"/>
    <up_axis>Z_UP</up_axis>
  </asset>
  <library_images/>
  <library_geometries>
    <geometry id="Cube-mesh" name="Cube">
      <mesh>
        <source id="Cube-mesh-positions">
          <float_array id="Cube-mesh-positions-array" count="252">0.6 0.65 0 0.65 0.6 0 0.65 -0.6 0 0.6 -0.65 0 -0.6 -0.65 0 -0.65 -0.6 0 -0.65 0.6 0 -0.6 0.65 0 0.6 0.65 0.2 0.6 0.6 0.25 0.65 0.6 0.2 0.6 -0.6 0.25 0.6 -0.65 0.2 0.65 -0.6 0.2 -0.6 -0.6 0.25 -0.65 -0.6 0.2 -0.6 -0.65 0.2 -0.6 0.6 0.25 -0.6 0.65 0.2 -0.65 0.6 0.2 0.5578205 0.5578205 0.25 0.5578205 -0.5578205 0.25 -0.5578205 0.5578205 0.25 -0.5578205 -0.5578205 0.25 0.5 0.4182295 0.00999999 0.4182295 0.5 0.00999999 0.4937756 0.4495217 0.00999999 0.4760499 0.4760499 0.00999999 0.4495217 0.4937756 0.00999999 0.4182295 -0.5 0.00999999 0.5 -0.4182295 0.00999999 0.4495217 -0.4937756 0.00999999 0.4760499 -0.4760499 0.00999999 0.4937756 -0.4495217 0.00999999 -0.4182295 0.5 0.00999999 -0.5 0.4182295 0.00999999 -0.4495217 0.4937756 0.00999999 -0.4760499 0.4760499 0.00999999 -0.4937756 0.4495217 0.00999999 -0.5 -0.4182295 0.00999999 -0.4182295 -0.5 0.00999999 -0.4937756 -0.4495217 0.00999999 -0.4760499 -0.4760499 0.00999999 -0.4495217 -0.4937756 0.00999999 0.4345042 0.5067412 0.25 0.4182295 0.5 0.2390402 0.5 0.4182295 0.2390402 0.5067412 0.4345042 0.25 0.4495217 0.4937756 0.2390402 0.4619376 0.501118 0.25 0.4760499 0.4760499 0.2390402 0.4853678 0.4853678 0.25 0.4937756 0.4495217 0.2390402 0.501118 0.4619376 0.25 0.5067412 -0.4345042 0.25 0.5 -0.4182295 0.2390402 0.4182295 -0.5 0.2390402 0.4345042 -0.5067412 0.25 0.4937756 -0.4495217 0.2390402 0.501118 -0.4619376 0.25 0.4760499 -0.4760499 0.2390402 0.4853678 -0.4853678 0.25 0.4495217 -0.4937756 0.2390402 0.4619376 -0.501118 0.25 -0.5067412 0.4345042 0.25 -0.5 0.4182295 0.2390402 -0.4182295 0.5 0.2390402 -0.4345042 0.5067412 0.25 -0.4937756 0.4495217 0.2390402 -0.501118 0.4619376 0.25 -0.4760499 0.4760499 0.2390402 -0.4853678 0.4853678 0.25 -0.4495217 0.4937756 0.2390402 -0.4619376 0.501118 0.25 -0.4345042 -0.5067412 0.25 -0.4182295 -0.5 0.2390402 -0.5 -0.4182295 0.2390402 -0.5067412 -0.4345042 0.25 -0.4495217 -0.4937756 0.2390402 -0.4619376 -0.501118 0.25 -0.4760499 -0.4760499 0.2390402 -0.4853678 -0.4853678 0.25 -0.4937756 -0.4495217 0.2390402 -0.501118 -0.4619376 0.25</float_array>
          <technique_common>
            <accessor source="#Cube-mesh-positions-array" count="84" stride="3">
              <param name="X" type="float"/>
              <param name="Y" type="float"/>
              <param name="Z" type="float"/>
            </accessor>
          </technique_common>
        </source>
        <source id="Cube-mesh-normals">
          <float_array id="Cube-mesh-normals-array" count="297">0 -1 0 -1 0 0 0 0 1 0 0 -1 -0.980785 -0.1950922 0 1 0 0 -0.5555703 -0.8314696 0 0 0 1 -1.33152e-7 0 1 -0.8314693 0.5555707 0 0.1950917 -0.980785 0 0.5773494 0.5773507 0.5773507 0.5773494 -0.5773507 0.5773507 -0.5773494 -0.5773507 0.5773507 -0.5773494 0.5773507 0.5773507 0.7071067 0.707107 0 0.7071067 0 0.7071068 0 -0.7071064 0.7071072 -0.7071067 0 0.7071068 0 0.7071064 0.7071072 0.7071067 -0.707107 0 -0.7071072 -0.7071064 0 -0.7071067 0.707107 0 0 1 0 -0.1950917 -0.980785 0 -0.8314693 -0.5555707 0 -0.980785 0.1950922 0 -0.5555703 0.8314696 0 0.980785 -0.1950922 0 0.5555703 -0.8314696 0 0.8314704 -0.5555693 0 0.1950917 0.980785 0 0.8314704 0.5555693 0 0.5555703 0.8314696 0 -0.1950917 0.980785 0 0.980785 0.1950922 0 1.33152e-7 0 1 -0.1455184 -0.7315654 0.6660604 -0.3580534 -0.5358655 0.7646214 -0.5365875 -0.3607 0.7628691 -0.7340457 -0.1504612 0.6622223 -0.7315638 0.1455205 0.6660617 -0.5358628 0.3580532 0.7646235 -0.3607013 0.5365882 0.7628682 -0.1504629 0.7340455 0.6622221 0.7315638 -0.1455205 0.6660617 0.5358628 -0.3580532 0.7646235 0.3607013 -0.5365882 0.7628682 0.1504629 -0.7340455 0.6622221 0.1455184 0.7315654 0.6660604 0.3580534 0.5358655 0.7646214 0.5365875 0.3607 0.7628691 0.7340457 0.1504612 0.6622223 -0.8517724 0 0.523912 0 -0.8517736 0.52391 0 0.8517719 0.5239129 0.8517724 0 0.523912 0 0 1 0 0 1 0 0 1 0 0 1 1.83868e-7 0 1 -0.8314704 0.5555693 0 0.1950917 -0.980785 0 0.7071072 0.7071064 0 0.7071066 0 0.707107 0 -0.7071071 0.7071065 -0.7071066 0 0.707107 0 0.7071071 0.7071065 0.7071072 -0.7071064 0 -0.7071067 -0.707107 0 -0.7071072 0.7071064 0 -0.1950917 -0.980785 0 -0.8314704 -0.5555693 0 0.8314693 -0.5555707 0 0.1950917 0.980785 0 0.8314693 0.5555707 0 -0.1950917 0.980785 0 -1.83868e-7 0 1 -0.1504629 -0.7340455 0.6622221 -0.3607013 -0.5365882 0.7628682 -0.5358628 -0.3580532 0.7646235 -0.7315638 -0.1455205 0.6660617 -0.7340457 0.1504612 0.6622223 -0.5365875 0.3607 0.7628691 -0.3580534 0.5358655 0.7646214 -0.1455184 0.7315654 0.6660604 0.7340457 -0.1504612 0.6622223 0.5365875 -0.3607 0.7628691 0.3580534 -0.5358655 0.7646214 0.1455184 -0.7315654 0.6660604 0.1504629 0.7340455 0.6622221 0.3607013 0.5365882 0.7628682 0.5358628 0.3580532 0.7646235 0.7315638 0.1455205 0.6660617 -0.8517724 0 0.523912 0 -0.8517727 0.5239114 0 0.8517746 0.5239085 0.8517724 0 0.523912</float_array>
          <technique_common>
            <accessor source="#Cube-mesh-normals-array" count="99" stride="3">
              <param name="X" type="float"/>
              <param name="Y" type="float"/>
              <param name="Z" type="float"/>
            </accessor>
          </technique_common>
        </source>
        <source id="Cube-mesh-map-0">
          <float_array id="Cube-mesh-map-0-array" count="984">0.6 0.2596154 0.5 0.4903846 0.5 0.2596154 0.6 0.5096154 0.5 0.7403846 0.5 0.5096154 0.625 0.03427463 0.625 0.7157254 0.625 0.6124748 0.5 0.4903846 0.5 0.5096154 0.5 0.009615361 0.6249999 0.1118222 0.625 0.1158856 0.6249999 0.1109298 0.6 0.009615361 0.5 0.2403846 0.5 0.009615361 0.625 0.130439 0.625 0.1030595 0.6249998 0.130308 0.625 0.249499 0.625 0.6026642 0.625 0.6341144 0.625 0.7157254 0.625 0.4958131 0.625 0.4995427 0.625 0.4958131 0.625 0.2541869 0.625 0.2782408 0.625 0.2626055 0.625 0.2551584 0.625 0.26354 0.625 0.619561 0.625 0.6026642 0.625 0.6196919 0.6 0 0.625 0.009615361 0.6 0.009615361 0.625 0.2541869 0.6 0.2596154 0.6 0.2403846 0.625 0.4958131 0.6 0.5096154 0.6 0.4903846 0.625 0.7596154 0.6 0.7596154 0.6 0.75 0.6 0 0.5 0.009615361 0.5 0 0.625 0.2541869 0.6 0.009615361 0.625 0.03427463 0.625 0.4958131 0.6 0.2596154 0.625 0.2541869 0.625 0.7157254 0.6 0.5096154 0.625 0.4958131 0.625 0.9903846 0.6 0.7596154 0.625 0.7596154 0.5 0.2596154 0.6 0.2403846 0.6 0.2596154 0.5 0.5096154 0.6 0.4903846 0.6 0.5096154 0.5 0.7596154 0.6 0.7403846 0.6 0.7596154 0.6 0.7596154 0.5 0.9903846 0.5 0.7596154 0.625 0.1473358 0.6249999 0.130308 0.6249999 0.1473358 0.625 0.1079856 0.625 0.1109298 0.6249999 0.1030595 0.625 0.2504574 0.625 0.2548668 0.625 0.257719 0.6249999 0.1158856 0.625 0.249499 0.625 0.249499 0.625 0.2545277 0.625 0.249499 0.625 0.2551584 0.625 0.273906 0.625 0.26354 0.625 0.2737751 0.625 0.6402583 0.625 0.6445813 0.625 0.6868117 0.625 0.2809492 0.625 0.4690508 0.625 0.4690508 0.625 0.6341144 0.625 0.6390702 0.625 0.6341143 0.625 0.6420144 0.625 0.6196919 0.625 0.6469404 0.625 0.4717592 0.625 0.4779443 0.625 0.4922811 0.625 0.6381778 0.625 0.6469405 0.6249999 0.6390702 0.625 0.476094 0.625 0.4690508 0.625 0.4762249 0.625 0.4954723 0.625 0.48646 0.625 0.4948416 0.625 0.4873946 0.625 0.4762249 0.625 0.48646 0.625 0.6026642 0.625 0.1473358 0.625 0.1473358 0.6249999 0.1226076 0.625 0.1098589 0.625 0.06318831 0.625 0.1098589 0.625 0.1012797 0.625 0.06318831 0.625 0.1012797 0.625 0.09820282 0.625 0.06318831 0.625 0.2611254 0.625 0.2619963 0.625 0.257719 0.625 0.2586193 0.625 0.2611254 0.625 0.257719 0.625 0.2548668 0.625 0.2586193 0.625 0.257719 0.625 0.2809492 0.625 0.2737751 0.625 0.2809492 0.625 0.500501 0.625 0.6341144 0.625 0.6341144 0.625 0.6445813 0.625 0.648303 0.625 0.6868117 0.625 0.6483029 0.625 0.6508399 0.625 0.6868117 0.625 0.6508399 0.625 0.6517972 0.625 0.6868117 0.625 0.4867551 0.625 0.4880038 0.625 0.4922811 0.625 0.4832189 0.625 0.4867551 0.625 0.4922811 0.625 0.4779443 0.625 0.4832189 0.625 0.4922811 0.625 0.500501 0.625 0.4948416 0.625 0.500501 0.625 0.2541869 0.625 0.03427463 0.625 0.1097417 0.6249999 0.130308 0.625 0.1375252 0.6249999 0.1473358 0.625 0.1030595 0.6249999 0.1249241 0.6249998 0.130308 0.6249999 0.1030595 0.625 0.109309 0.625 0.1028239 0.6249999 0.1109298 0.625 0.1135909 0.625 0.1108871 0.625 0.2545277 0.625 0.2504574 0.625 0.249499 0.625 0.2626055 0.625 0.2560756 0.6249999 0.2545276 0.625 0.2626054 0.625 0.2716906 0.625 0.2625607 0.625 0.273906 0.625 0.2777187 0.625 0.2739123 0.625 0.6390702 0.625 0.6402583 0.625 0.6341143 0.625 0.6469405 0.625 0.640691 0.6249999 0.6390702 0.625 0.6469404 0.625 0.6250759 0.625 0.6471762 0.625 0.6196919 0.625 0.610484 0.625 0.6196982 0.625 0.476094 0.625 0.4717592 0.625 0.4690508 0.625 0.4873946 0.625 0.4783094 0.6249999 0.476094 0.625 0.4873946 0.625 0.4939245 0.625 0.4874393 0.625 0.4954723 0.625 0.4982064 0.625 0.4955025 0.625 0.1097417 0.625 0.249499 0.625 0.2504574 0.625 0.1473358 0.625 0.6124748 0.625 0.6026642 0.625 0.2782408 0.625 0.4690508 0.625 0.4717592 0.625 0.4995427 0.625 0.6341144 0.625 0.6402583 0.625 0.1375252 0.6249999 0.1226076 0.625 0.06318831 0.6 0.2596154 0.6 0.4903846 0.5 0.4903846 0.6 0.5096154 0.6 0.7403846 0.5 0.7403846 0.625 0.7157254 0.625 0.6868117 0.625 0.6124748 0.625 0.6124748 0.625 0.1375252 0.625 0.03427463 0.625 0.1375252 0.625 0.06318831 0.625 0.03427463 0.5 0.5096154 0.5 0.7403846 0.5 0.7211539 0.5 0.7211539 0.5 0.02884608 0.5 0.5096154 0.5 0.02884608 0.5 0.009615361 0.5 0.5096154 0.5 0.009615361 0.5 0.2403846 0.5 0.2596154 0.5 0.2596154 0.5 0.4903846 0.5 0.009615361 0.6249999 0.1118222 0.625 0.1158856 0.625 0.1158856 0.6 0.009615361 0.6 0.2403846 0.5 0.2403846 0.625 0.130439 0.625 0.1079856 0.625 0.1030595 0.625 0.6341144 0.625 0.500501 0.625 0.4690508 0.625 0.500501 0.625 0.4948416 0.625 0.4762249 0.625 0.4948416 0.625 0.48646 0.625 0.4762249 0.625 0.4762249 0.625 0.4690508 0.625 0.500501 0.625 0.4690508 0.625 0.2809492 0.625 0.6341144 0.625 0.2809492 0.625 0.2737751 0.625 0.26354 0.625 0.26354 0.625 0.2551584 0.625 0.249499 0.625 0.249499 0.625 0.1158856 0.625 0.6026642 0.625 0.1158856 0.6249999 0.1118222 0.625 0.1473358 0.625 0.6026642 0.625 0.1158856 0.625 0.1473358 0.6249999 0.1118222 0.625 0.1079856 0.625 0.130439 0.625 0.130439 0.625 0.1473358 0.6249999 0.1118222 0.625 0.6026642 0.625 0.619561 0.625 0.6420144 0.625 0.6420144 0.625 0.6381778 0.625 0.6026642 0.625 0.6381778 0.625 0.6341144 0.625 0.6026642 0.625 0.2809492 0.625 0.26354 0.625 0.249499 0.625 0.6341144 0.625 0.2809492 0.625 0.249499 0.625 0.4958131 0.625 0.4922811 0.625 0.4995427 0.625 0.4995427 0.625 0.6402583 0.625 0.7157254 0.625 0.6402583 0.625 0.6868117 0.625 0.7157254 0.625 0.2541869 0.625 0.257719 0.625 0.2782408 0.625 0.2782408 0.625 0.4717592 0.625 0.4958131 0.625 0.4717592 0.625 0.492281 0.625 0.4958131 0.625 0.2626055 0.6249999 0.2545276 0.625 0.2551584 0.625 0.619561 0.625 0.6026642 0.625 0.6026642 0.6 0 0.6 0.009615361 0.5 0.009615361 0.625 0.2541869 0.6 0.2403846 0.6 0.009615361 0.625 0.4958131 0.6 0.4903846 0.6 0.2596154 0.625 0.7157254 0.6 0.7403846 0.6 0.5096154 0.625 0.9903846 0.6 0.9903846 0.6 0.7596154 0.5 0.2596154 0.5 0.2403846 0.6 0.2403846 0.5 0.5096154 0.5 0.4903846 0.6 0.4903846 0.5 0.7596154 0.5 0.7403846 0.6 0.7403846 0.6 0.7596154 0.6 0.9903846 0.5 0.9903846 0.625 0.1473358 0.625 0.130439 0.6249999 0.130308 0.625 0.1079856 0.6249999 0.1118222 0.625 0.1109298 0.6249999 0.1158856 0.625 0.1158856 0.625 0.249499 0.625 0.2545277 0.625 0.249499 0.625 0.249499 0.625 0.273906 0.625 0.2626054 0.625 0.26354 0.625 0.2809492 0.625 0.2809492 0.625 0.4690508 0.625 0.6341144 0.625 0.6381778 0.625 0.6390702 0.625 0.6420144 0.625 0.619561 0.625 0.6196919 0.625 0.6381778 0.625 0.6420144 0.625 0.6469405 0.625 0.476094 0.625 0.4690508 0.625 0.4690508 0.625 0.4954723 0.625 0.4873946 0.625 0.48646 0.625 0.4873946 0.6249999 0.476094 0.625 0.4762249 0.625 0.6026642 0.625 0.6026642 0.625 0.1473358 0.625 0.2809492 0.625 0.273906 0.625 0.2737751 0.625 0.500501 0.625 0.500501 0.625 0.6341144 0.625 0.500501 0.625 0.4954723 0.625 0.4948416 0.625 0.03427463 0.625 0.06318831 0.625 0.1097417 0.625 0.1097417 0.625 0.2504574 0.625 0.2541869 0.625 0.2504574 0.625 0.257719 0.625 0.2541869 0.6249999 0.130308 0.6249999 0.1226076 0.625 0.1375252 0.625 0.1030595 0.625 0.1028239 0.6249999 0.1249241 0.6249999 0.1030595 0.625 0.1109298 0.625 0.109309 0.6249999 0.1109298 0.625 0.1158856 0.625 0.1135909 0.625 0.2545277 0.625 0.2548668 0.625 0.2504574 0.625 0.2626055 0.625 0.2625607 0.625 0.2560756 0.625 0.2626054 0.625 0.273906 0.625 0.2716906 0.625 0.273906 0.625 0.2809492 0.625 0.2777187 0.625 0.6390702 0.625 0.6445813 0.625 0.6402583 0.625 0.6469405 0.625 0.6471762 0.625 0.640691 0.625 0.6469404 0.625 0.6196919 0.625 0.6250759 0.625 0.6196919 0.625 0.6026642 0.625 0.610484 0.625 0.476094 0.625 0.4779443 0.625 0.4717592 0.625 0.4873946 0.625 0.4874393 0.625 0.4783094 0.625 0.4873946 0.625 0.4954723 0.625 0.4939245 0.625 0.4954723 0.625 0.500501 0.625 0.4982064 0.625 0.1097417 0.6249999 0.1158856 0.625 0.249499 0.625 0.1473358 0.625 0.1375252 0.625 0.6124748 0.625 0.2782408 0.625 0.2809492 0.625 0.4690508 0.625 0.4995427 0.625 0.500501 0.625 0.6341144</float_array>
          <technique_common>
            <accessor source="#Cube-mesh-map-0-array" count="492" stride="2">
              <param name="S" type="float"/>
              <param name="T" type="float"/>
            </accessor>
          </technique_common>
        </source>
        <vertices id="Cube-mesh-vertices">
          <input semantic="POSITION" source="#Cube-mesh-positions"/>
        </vertices>
        <triangles count="164">
          <input semantic="VERTEX" source="#Cube-mesh-vertices" offset="0"/>
          <input semantic="NORMAL" source="#Cube-mesh-normals" offset="1"/>
          <input semantic="TEXCOORD" source="#Cube-mesh-map-0" offset="2" set="0"/>
          <p>12 0 0 4 0 1 3 0 2 15 1 3 6 1 4 5 1 5 9 2 6 17 2 7 67 2 8 4 3 9 5 3 10 1 3 11 26 4 12 46 4 13 52 4 14 10 5 15 2 5 16 1 5 17 28 6 18 50 6 19 48 6 20 30 7 21 34 7 22 35 7 23 17 8 24 14 8 25 77 8 26 14 2 27 11 2 28 57 2 29 60 9 30 33 9 31 32 9 32 36 10 33 66 10 34 72 10 35 8 11 36 9 11 37 10 11 38 11 12 39 12 12 40 13 12 41 14 13 42 15 13 43 16 13 44 17 14 45 18 14 46 19 14 47 8 15 48 1 15 49 0 15 50 11 16 51 10 16 52 9 16 53 14 17 54 12 17 55 11 17 56 17 18 57 15 18 58 14 18 59 9 19 60 18 19 61 17 19 62 3 20 63 13 20 64 12 20 65 5 21 66 16 21 67 15 21 68 7 22 69 19 22 70 18 22 71 18 23 72 0 23 73 7 23 74 25 24 75 48 24 76 45 24 77 27 25 78 52 25 79 50 25 80 54 2 81 59 2 82 21 2 83 46 1 84 30 1 85 55 1 86 58 26 87 30 26 88 33 26 89 62 27 90 32 27 91 31 27 92 64 2 93 69 2 94 22 2 95 56 23 96 40 23 97 75 23 98 35 28 99 68 28 100 65 28 101 37 29 102 72 29 103 70 29 104 74 2 105 79 2 106 23 2 107 38 30 108 70 30 109 68 30 110 78 31 111 40 31 112 43 31 113 82 32 114 42 32 115 41 32 116 80 33 117 43 33 118 42 33 119 66 0 120 25 0 121 45 0 122 49 2 123 51 2 124 20 2 125 51 2 126 53 2 127 20 2 128 53 2 129 47 2 130 20 2 131 63 2 132 57 2 133 21 2 134 61 2 135 63 2 136 21 2 137 59 2 138 61 2 139 21 2 140 56 34 141 31 34 142 29 34 143 76 5 144 35 5 145 65 5 146 69 2 147 71 2 148 22 2 149 71 2 150 73 2 151 22 2 152 73 2 153 67 2 154 22 2 155 83 2 156 77 2 157 23 2 158 81 2 159 83 2 160 23 2 161 79 2 162 81 2 163 23 2 164 76 35 165 41 35 166 39 35 167 11 36 168 9 36 169 47 36 170 48 37 171 44 37 172 45 37 173 50 38 174 49 38 175 48 38 176 50 39 177 53 39 178 51 39 179 52 40 180 47 40 181 53 40 182 58 41 183 54 41 184 55 41 185 60 42 186 59 42 187 58 42 188 60 43 189 63 43 190 61 43 191 62 44 192 57 44 193 63 44 194 68 45 195 64 45 196 65 45 197 70 46 198 69 46 199 68 46 200 70 47 201 73 47 202 71 47 203 72 48 204 67 48 205 73 48 206 78 49 207 74 49 208 75 49 209 80 50 210 79 50 211 78 50 212 80 51 213 83 51 214 81 51 215 82 52 216 77 52 217 83 52 218 47 53 219 55 53 220 54 53 221 45 54 222 67 54 223 66 54 224 57 55 225 75 55 226 74 55 227 77 56 228 65 56 229 64 56 230 44 2 231 49 2 232 20 2 233 12 0 234 16 0 235 4 0 236 15 1 237 19 1 238 6 1 239 17 2 240 22 2 241 67 2 242 67 2 243 44 2 244 9 2 245 44 2 246 20 2 247 9 2 248 5 3 249 6 3 250 7 3 251 7 3 252 0 3 253 5 3 254 0 3 255 1 3 256 5 3 257 1 3 258 2 3 259 3 3 260 3 3 261 4 3 262 1 3 263 26 4 264 24 4 265 46 4 266 10 5 267 13 5 268 2 5 269 28 6 270 27 6 271 50 6 272 35 57 273 39 57 274 40 57 275 39 58 276 41 58 277 43 58 278 41 2 279 42 2 280 43 2 281 43 2 282 40 2 283 39 2 284 40 2 285 29 2 286 35 2 287 29 2 288 31 2 289 32 2 290 32 2 291 33 2 292 30 2 293 30 59 294 24 59 295 34 59 296 24 2 297 26 2 298 25 2 299 34 2 300 24 2 301 25 2 302 26 2 303 27 2 304 28 2 305 28 2 306 25 2 307 26 2 308 34 2 309 36 2 310 37 2 311 37 2 312 38 2 313 34 2 314 38 2 315 35 2 316 34 2 317 29 2 318 32 2 319 30 2 320 35 60 321 29 60 322 30 60 323 14 2 324 23 2 325 77 2 326 77 61 327 64 61 328 17 61 329 64 2 330 22 2 331 17 2 332 11 2 333 21 2 334 57 2 335 57 2 336 74 2 337 14 2 338 74 2 339 23 2 340 14 2 341 60 62 342 58 62 343 33 62 344 36 63 345 34 63 346 66 63 347 8 64 348 10 64 349 1 64 350 11 65 351 13 65 352 10 65 353 14 66 354 16 66 355 12 66 356 17 67 357 19 67 358 15 67 359 9 68 360 8 68 361 18 68 362 3 69 363 2 69 364 13 69 365 5 70 366 4 70 367 16 70 368 7 71 369 6 71 370 19 71 371 18 23 372 8 23 373 0 23 374 25 72 375 28 72 376 48 72 377 27 73 378 26 73 379 52 73 380 46 1 381 24 1 382 30 1 383 58 26 384 55 26 385 30 26 386 62 27 387 60 27 388 32 27 389 56 23 390 29 23 391 40 23 392 35 28 393 38 28 394 68 28 395 37 29 396 36 29 397 72 29 398 38 74 399 37 74 400 70 74 401 78 75 402 75 75 403 40 75 404 82 76 405 80 76 406 42 76 407 80 33 408 78 33 409 43 33 410 66 0 411 34 0 412 25 0 413 56 77 414 62 77 415 31 77 416 76 5 417 39 5 418 35 5 419 76 35 420 82 35 421 41 35 422 9 2 423 20 2 424 47 2 425 47 78 426 54 78 427 11 78 428 54 2 429 21 2 430 11 2 431 48 79 432 49 79 433 44 79 434 50 80 435 51 80 436 49 80 437 50 81 438 52 81 439 53 81 440 52 82 441 46 82 442 47 82 443 58 83 444 59 83 445 54 83 446 60 84 447 61 84 448 59 84 449 60 85 450 62 85 451 63 85 452 62 86 453 56 86 454 57 86 455 68 87 456 69 87 457 64 87 458 70 88 459 71 88 460 69 88 461 70 89 462 72 89 463 73 89 464 72 90 465 66 90 466 67 90 467 78 91 468 79 91 469 74 91 470 80 92 471 81 92 472 79 92 473 80 93 474 82 93 475 83 93 476 82 94 477 76 94 478 77 94 479 47 95 480 46 95 481 55 95 482 45 96 483 44 96 484 67 96 485 57 97 486 56 97 487 75 97 488 77 98 489 76 98 490 65 98 491</p>
        </triangles>
      </mesh>
    </geometry>
  </library_geometries>
  <library_visual_scenes>
    <visual_scene id="Scene" name="Scene">
      <node id="slot" name="slot" type="NODE">
        <matrix sid="transform">1 0 0 0 0 1 0 0 0 0 1 0 0 0 0 1</matrix>
        <instance_geometry url="#Cube-mesh" name="slot"/>
      </node>
    </visual_scene>
  </library_visual_scenes>
  <scene>
    <instance_visual_scene url="#Scene"/>
  </scene>
</COLLADA>