<?xml version="1.0" encoding="utf-8"?>
<COLLADA xmlns="http://www.collada.org/2005/11/COLLADASchema" version="1.4.1" xmlns:xsi="http://www.w3.org/2001/XMLSchema-instance">
  <asset>
    <contributor>
      <author>Blender User</author>
      <authoring_tool>Blender 3.2.0 commit date:2022-06-08, commit time:10:22, hash:e05e1e369187</authoring_tool>
    </contributor>
    <created>2024-04-22T19:17:43</created>
    <modified>2024-04-22T19:17:43</modified>
    <unit name="meter" meter="1"/>
    <up_axis>Z_UP</up_axis>
  </asset>
  <library_images/>
  <library_geometries>
    <geometry id="Cube_002-mesh" name="Cube.002">
      <mesh>
        <source id="Cube_002-mesh-positions">
          <float_array id="Cube_002-mesh-positions-array" count="42">5 5 -5 5 5 5 5 -5 -5 5 -5 5 -5 5 -5 -5 5 5 -5 -5 -5 7 7 -7 7 7 5 7 -5 -7 7 -5 5 -5 7 -7 -5 7 5 -5 -5 -7</float_array>
          <technique_common>
            <accessor source="#Cube_002-mesh-positions-array" count="14" stride="3">
              <param name="X" type="float"/>
              <param name="Y" type="float"/>
              <param name="Z" type="float"/>
            </accessor>
          </technique_common>
        </source>
        <source id="Cube_002-mesh-normals">
          <float_array id="Cube_002-mesh-normals-array" count="18">-1 0 0 0 -1 0 0 0 1 1 0 0 0 1 0 0 0 -1</float_array>
          <technique_common>
            <accessor source="#Cube_002-mesh-normals-array" count="6" stride="3">
              <param name="X" type="float"/>
              <param name="Y" type="float"/>
              <param name="Z" type="float"/>
            </accessor>
          </technique_common>
        </source>
        <source id="Cube_002-mesh-map-0">
          <float_array id="Cube_002-mesh-map-0-array" count="144">0.9237423 0.703125 0.7118778 0.9149894 0.7118778 0.703125 0.7118778 0.703125 0.5000135 0.9149894 0.5000135 0.7031251 0.7118778 0.703125 0.5000134 0.4912607 0.7118777 0.4912606 0.7064088 0.4347459 0.5004766 0.2288136 0.7064087 0.2288136 0.9123411 0.02288144 0.7064087 0.2288136 0.7064088 0.02288132 0.5004766 0.02288132 0.7064087 0.2288136 0.5004766 0.2288136 0.9441208 0.9441208 0.9864937 0.7322563 0.9864937 0.9864937 0.9441208 0.4621292 0.9864937 0.6739936 0.9441208 0.6739936 0.9441208 0.4621292 0.7322564 0.4197564 0.9864937 0.4197564 0.03575205 0.3861228 0.01456564 0.2801907 0.03575205 0.2801907 0.03575205 0.3861228 0.1416842 0.4073093 0.01456564 0.4073093 0.9441208 0.9441208 0.7322564 0.9864937 0.7322564 0.9441208 0.9237423 0.703125 0.9237422 0.9149894 0.7118778 0.9149894 0.7118778 0.703125 0.7118778 0.9149894 0.5000135 0.9149894 0.7118778 0.703125 0.5000135 0.7031251 0.5000134 0.4912607 0.7064088 0.4347459 0.5004766 0.4347459 0.5004766 0.2288136 0.9123411 0.02288144 0.9123409 0.2288137 0.7064087 0.2288136 0.5004766 0.02288132 0.7064088 0.02288132 0.7064087 0.2288136 0.9441208 0.9441208 0.9441208 0.7322563 0.9864937 0.7322563 0.9441208 0.4621292 0.9864937 0.4197564 0.9864937 0.6739936 0.9441208 0.4621292 0.7322564 0.4621292 0.7322564 0.4197564 0.03575205 0.3861228 0.01456564 0.4073093 0.01456564 0.2801907 0.03575205 0.3861228 0.1416842 0.3861229 0.1416842 0.4073093 0.9441208 0.9441208 0.9864937 0.9864937 0.7322564 0.9864937</float_array>
          <technique_common>
            <accessor source="#Cube_002-mesh-map-0-array" count="72" stride="2">
              <param name="S" type="float"/>
              <param name="T" type="float"/>
            </accessor>
          </technique_common>
        </source>
        <vertices id="Cube_002-mesh-vertices">
          <input semantic="POSITION" source="#Cube_002-mesh-positions"/>
        </vertices>
        <triangles count="24">
          <input semantic="VERTEX" source="#Cube_002-mesh-vertices" offset="0"/>
          <input semantic="NORMAL" source="#Cube_002-mesh-normals" offset="1"/>
          <input semantic="TEXCOORD" source="#Cube_002-mesh-map-0" offset="2" set="0"/>
          <p>2 0 0 1 0 1 0 0 2 0 1 3 5 1 4 4 1 5 0 2 6 6 2 7 2 2 8 8 3 9 9 3 10 7 3 11 12 4 12 7 4 13 11 4 14 13 5 15 7 5 16 9 5 17 1 2 18 10 2 19 8 2 20 2 1 21 10 1 22 3 1 23 2 1 24 13 1 25 9 1 26 4 0 27 13 0 28 6 0 29 4 0 30 12 0 31 11 0 32 1 2 33 12 2 34 5 2 35 2 0 36 3 0 37 1 0 38 0 1 39 1 1 40 5 1 41 0 2 42 4 2 43 6 2 44 8 3 45 10 3 46 9 3 47 12 4 48 8 4 49 7 4 50 13 5 51 11 5 52 7 5 53 1 2 54 3 2 55 10 2 56 2 1 57 9 1 58 10 1 59 2 1 60 6 1 61 13 1 62 4 0 63 11 0 64 13 0 65 4 0 66 5 0 67 12 0 68 1 2 69 8 2 70 12 2 71</p>
        </triangles>
      </mesh>
    </geometry>
    <geometry id="Cube_001-mesh" name="Cube.001">
      <mesh>
        <source id="Cube_001-mesh-positions">
          <float_array id="Cube_001-mesh-positions-array" count="42">5 5 -5 5 5 5 5 -5 -5 5 -5 5 -5 5 -5 -5 5 5 -5 -5 -5 7 7 -7 7 7 5 7 -5 -7 7 -5 5 -5 7 -7 -5 7 5 -5 -5 -7</float_array>
          <technique_common>
            <accessor source="#Cube_001-mesh-positions-array" count="14" stride="3">
              <param name="X" type="float"/>
              <param name="Y" type="float"/>
              <param name="Z" type="float"/>
            </accessor>
          </technique_common>
        </source>
        <source id="Cube_001-mesh-normals">
          <float_array id="Cube_001-mesh-normals-array" count="18">-1 0 0 0 -1 0 0 0 1 1 0 0 0 1 0 0 0 -1</float_array>
          <technique_common>
            <accessor source="#Cube_001-mesh-normals-array" count="6" stride="3">
              <param name="X" type="float"/>
              <param name="Y" type="float"/>
              <param name="Z" type="float"/>
            </accessor>
          </technique_common>
        </source>
        <source id="Cube_001-mesh-map-0">
          <float_array id="Cube_001-mesh-map-0-array" count="144">0.4999867 0.703125 0.2881222 0.9149894 0.2881222 0.703125 0.2881222 0.703125 0.07625782 0.9149894 0.0762577 0.703125 0.2881222 0.703125 0.4999867 0.4912607 0.4999867 0.703125 0.08765888 0.2288136 0.2935911 0.02288138 0.2935912 0.2288136 0.4995232 0.4347459 0.2935912 0.2288136 0.4995232 0.2288136 0.4995232 0.02288132 0.2935912 0.2288136 0.2935911 0.02288138 0.05587917 0.9441207 0.2677437 0.9864937 0.01350629 0.9864936 0.03575211 0.3861229 0.01456564 0.2801907 0.03575205 0.2801907 0.03575211 0.3861229 0.1416843 0.4073093 0.01456564 0.4073093 0.05587923 0.4621292 0.2677437 0.4197563 0.2677437 0.4621292 0.05587923 0.4621292 0.01350629 0.6739937 0.01350635 0.4197564 0.05587917 0.9441207 0.01350629 0.7322564 0.05587917 0.7322564 0.4999867 0.703125 0.4999865 0.9149895 0.2881222 0.9149894 0.2881222 0.703125 0.2881222 0.9149894 0.07625782 0.9149894 0.2881222 0.703125 0.2881222 0.4912605 0.4999867 0.4912607 0.08765888 0.2288136 0.08765888 0.02288138 0.2935911 0.02288138 0.4995232 0.4347459 0.2935911 0.4347459 0.2935912 0.2288136 0.4995232 0.02288132 0.4995232 0.2288136 0.2935912 0.2288136 0.05587917 0.9441207 0.2677437 0.9441207 0.2677437 0.9864937 0.03575211 0.3861229 0.01456564 0.4073093 0.01456564 0.2801907 0.03575211 0.3861229 0.1416843 0.3861229 0.1416843 0.4073093 0.05587923 0.4621292 0.01350635 0.4197564 0.2677437 0.4197563 0.05587923 0.4621292 0.05587923 0.6739937 0.01350629 0.6739937 0.05587917 0.9441207 0.01350629 0.9864936 0.01350629 0.7322564</float_array>
          <technique_common>
            <accessor source="#Cube_001-mesh-map-0-array" count="72" stride="2">
              <param name="S" type="float"/>
              <param name="T" type="float"/>
            </accessor>
          </technique_common>
        </source>
        <vertices id="Cube_001-mesh-vertices">
          <input semantic="POSITION" source="#Cube_001-mesh-positions"/>
        </vertices>
        <triangles count="24">
          <input semantic="VERTEX" source="#Cube_001-mesh-vertices" offset="0"/>
          <input semantic="NORMAL" source="#Cube_001-mesh-normals" offset="1"/>
          <input semantic="TEXCOORD" source="#Cube_001-mesh-map-0" offset="2" set="0"/>
          <p>2 0 0 1 0 1 0 0 2 0 1 3 5 1 4 4 1 5 0 2 6 6 2 7 2 2 8 8 3 9 9 3 10 7 3 11 12 4 12 7 4 13 11 4 14 13 5 15 7 5 16 9 5 17 1 2 18 10 2 19 8 2 20 2 1 21 10 1 22 3 1 23 2 1 24 13 1 25 9 1 26 4 0 27 13 0 28 6 0 29 4 0 30 12 0 31 11 0 32 1 2 33 12 2 34 5 2 35 2 0 36 3 0 37 1 0 38 0 1 39 1 1 40 5 1 41 0 2 42 4 2 43 6 2 44 8 3 45 10 3 46 9 3 47 12 4 48 8 4 49 7 4 50 13 5 51 11 5 52 7 5 53 1 2 54 3 2 55 10 2 56 2 1 57 9 1 58 10 1 59 2 1 60 6 1 61 13 1 62 4 0 63 11 0 64 13 0 65 4 0 66 5 0 67 12 0 68 1 2 69 8 2 70 12 2 71</p>
        </triangles>
      </mesh>
    </geometry>
  </library_geometries>
  <library_visual_scenes>
    <visual_scene id="Scene" name="Scene">
      <node id="wall_001" name="wall.001" type="NODE">
        <matrix sid="transform">-1 8.74228e-8 0 -10 -8.74228e-8 -1 0 0 0 0 1 0 0 0 0 1</matrix>
        <instance_geometry url="#Cube_002-mesh" name="wall.001"/>
      </node>
      <node id="wall" name="wall" type="NODE">
        <matrix sid="transform">-4.37114e-8 1 0 0 -1 -4.37114e-8 0 0 0 0 1 0 0 0 0 1</matrix>
        <instance_geometry url="#Cube_001-mesh" name="wall"/>
      </node>
    </visual_scene>
  </library_visual_scenes>
  <scene>
    <instance_visual_scene url="#Scene"/>
  </scene>
</COLLADA>